<svg width="360" height="294" viewBox="0 0 360 294" fill="none" xmlns="http://www.w3.org/2000/svg" aria-hidden="true"><path d="M350 0H10C4.47715 0 0 4.47715 0 10V284C0 289.523 4.47715 294 10 294H350C355.523 294 360 289.523 360 284V10C360 4.47715 355.523 0 350 0Z" fill="#ADD9F2"/><mask id="customize-forms-2_svg__a" style="mask-type:alpha" maskUnits="userSpaceOnUse" x="0" y="0" width="360" height="294"><path d="M350 0H10C4.47715 0 0 4.47715 0 10V284C0 289.523 4.47715 294 10 294H350C355.523 294 360 289.523 360 284V10C360 4.47715 355.523 0 350 0Z" fill="#FFB629"/></mask><g mask="url(#customize-forms-2_svg__a)"><path fill-rule="evenodd" clip-rule="evenodd" d="M326.474 167.817C334.15 182.218 338.716 191.038 340.172 194.277C342.355 199.134 334.11 224.364 316.179 235.913C304.226 243.612 301.512 238.448 308.039 220.421L326.474 167.817Z" fill="#9B27C2"/><path d="M295 43H103C99.6863 43 97 45.6863 97 49V245C97 248.314 99.6863 251 103 251H295C298.314 251 301 248.314 301 245V49C301 45.6863 298.314 43 295 43Z" fill="#fff"/><path d="M194.257 60.1651C196.446 60.1651 197.568 58.7131 197.865 57.5141L196.446 57.0851C196.237 57.8111 195.588 58.6801 194.257 58.6801C193.003 58.6801 191.837 57.7671 191.837 56.1061C191.837 54.3351 193.069 53.4991 194.235 53.4991C195.588 53.4991 196.193 54.3241 196.38 55.0721L197.81 54.6211C197.502 53.3561 196.391 52.0361 194.235 52.0361C192.145 52.0361 190.264 53.6201 190.264 56.1061C190.264 58.5921 192.079 60.1651 194.257 60.1651ZM201.265 58.8341C200.55 58.8341 199.89 58.3061 199.89 57.2941C199.89 56.2711 200.55 55.7541 201.265 55.7541C201.98 55.7541 202.64 56.2711 202.64 57.2941C202.64 58.3171 201.98 58.8341 201.265 58.8341ZM201.265 54.4231C199.648 54.4231 198.427 55.6221 198.427 57.2941C198.427 58.9551 199.648 60.1651 201.265 60.1651C202.882 60.1651 204.103 58.9551 204.103 57.2941C204.103 55.6221 202.882 54.4231 201.265 54.4231ZM206.721 56.8871C206.721 56.2601 207.095 55.7651 207.733 55.7651C208.437 55.7651 208.734 56.2381 208.734 56.8431V60.0001H210.197V56.5901C210.197 55.4021 209.581 54.4451 208.239 54.4451C207.656 54.4451 207.007 54.6981 206.677 55.2591V54.5881H205.258V60.0001H206.721V56.8871ZM213.486 52.9711H212.166V53.7301C212.166 54.2141 211.902 54.5881 211.33 54.5881H211.055V55.8861H212.034V58.4051C212.034 59.4501 212.694 60.0771 213.75 60.0771C214.179 60.0771 214.443 60.0001 214.575 59.9451V58.7351C214.498 58.7571 214.3 58.7791 214.124 58.7791C213.706 58.7791 213.486 58.6251 213.486 58.1521V55.8861H214.575V54.5881H213.486V52.9711ZM215.52 58.5261C215.52 59.3731 216.224 60.1541 217.379 60.1541C218.182 60.1541 218.699 59.7801 218.974 59.3511C218.974 59.5601 218.996 59.8571 219.029 60.0001H220.371C220.338 59.8131 220.305 59.4281 220.305 59.1421V56.4801C220.305 55.3911 219.667 54.4231 217.951 54.4231C216.499 54.4231 215.718 55.3581 215.63 56.2051L216.928 56.4801C216.972 56.0071 217.324 55.6001 217.962 55.6001C218.578 55.6001 218.875 55.9191 218.875 56.3041C218.875 56.4911 218.776 56.6451 218.468 56.6891L217.137 56.8871C216.235 57.0191 215.52 57.5581 215.52 58.5261ZM217.687 59.0651C217.214 59.0651 216.983 58.7571 216.983 58.4381C216.983 58.0201 217.28 57.8111 217.654 57.7561L218.875 57.5691V57.8111C218.875 58.7681 218.303 59.0651 217.687 59.0651ZM224.189 55.7761C224.915 55.7761 225.256 56.2381 225.388 56.6891L226.697 56.2491C226.466 55.3361 225.63 54.4231 224.156 54.4231C222.583 54.4231 221.351 55.6221 221.351 57.2941C221.351 58.9551 222.605 60.1651 224.2 60.1651C225.641 60.1651 226.488 59.2411 226.73 58.3391L225.443 57.9101C225.322 58.3281 224.948 58.8231 224.2 58.8231C223.452 58.8231 222.814 58.2731 222.814 57.2941C222.814 56.3151 223.441 55.7761 224.189 55.7761ZM229.61 52.9711H228.29V53.7301C228.29 54.2141 228.026 54.5881 227.454 54.5881H227.179V55.8861H228.158V58.4051C228.158 59.4501 228.818 60.0771 229.874 60.0771C230.303 60.0771 230.567 60.0001 230.699 59.9451V58.7351C230.622 58.7571 230.424 58.7791 230.248 58.7791C229.83 58.7791 229.61 58.6251 229.61 58.1521V55.8861H230.699V54.5881H229.61V52.9711ZM236.266 60.0001V56.9641H239.291V55.5671H236.255V53.6421H239.665V52.2011H234.737V60.0001H236.266ZM242.88 58.8341C242.165 58.8341 241.505 58.3061 241.505 57.2941C241.505 56.2711 242.165 55.7541 242.88 55.7541C243.595 55.7541 244.255 56.2711 244.255 57.2941C244.255 58.3171 243.595 58.8341 242.88 58.8341ZM242.88 54.4231C241.263 54.4231 240.042 55.6221 240.042 57.2941C240.042 58.9551 241.263 60.1651 242.88 60.1651C244.497 60.1651 245.718 58.9551 245.718 57.2941C245.718 55.6221 244.497 54.4231 242.88 54.4231ZM250.173 54.5661C250.063 54.5551 249.953 54.5441 249.832 54.5441C249.37 54.5441 248.622 54.6761 248.292 55.3911V54.5881H246.873V60.0001H248.336V57.5251C248.336 56.3591 248.985 55.9961 249.733 55.9961C249.865 55.9961 250.008 56.0071 250.173 56.0401V54.5661ZM252.665 60.0001V56.8321C252.665 56.2381 253.039 55.7651 253.677 55.7651C254.337 55.7651 254.634 56.2051 254.634 56.7881V60.0001H256.086V56.8321C256.086 56.2491 256.46 55.7651 257.087 55.7651C257.758 55.7651 258.044 56.2051 258.044 56.7881V60.0001H259.463V56.4911C259.463 55.0391 258.506 54.4341 257.505 54.4341C256.79 54.4341 256.218 54.6761 255.789 55.3361C255.514 54.7531 254.92 54.4341 254.183 54.4341C253.589 54.4341 252.896 54.7201 252.599 55.2481V54.5881H251.202V60.0001H252.665Z" fill="#0A1551"/><path fill-rule="evenodd" clip-rule="evenodd" d="M166.8 78.9102V86.0002H165.55L162.05 80.6301V86.0002H160.85V78.9102H162.38L165.6 83.9402V78.9102H166.8ZM169.717 86.1502C168.697 86.1502 168.067 85.4502 168.067 84.6802C168.067 83.8102 168.707 83.3302 169.537 83.2102L170.787 83.0201C171.067 82.9801 171.147 82.8401 171.147 82.6702C171.147 82.2602 170.867 81.9302 170.227 81.9302C169.617 81.9302 169.277 82.3201 169.227 82.8102L168.167 82.5702C168.257 81.7302 169.017 80.9802 170.217 80.9802C171.717 80.9802 172.287 81.8302 172.287 82.8002V85.2202C172.287 85.6602 172.337 85.9502 172.347 86.0002H171.267C171.257 85.9702 171.217 85.7701 171.217 85.3801C170.987 85.7501 170.507 86.1502 169.717 86.1502ZM169.227 84.6102C169.227 84.9402 169.477 85.2402 169.937 85.2402C170.587 85.2402 171.147 84.9302 171.147 83.9802V83.7602L169.877 83.9501C169.517 84.0102 169.227 84.2102 169.227 84.6102ZM174.839 83.1102V86.0002H173.689V81.1301H174.799V81.7502C175.079 81.2502 175.689 80.9902 176.239 80.9902C176.879 80.9902 177.439 81.2802 177.699 81.8502C178.079 81.2102 178.649 80.9902 179.279 80.9902C180.159 80.9902 180.999 81.5501 180.999 82.8401V86.0002H179.879V83.0302C179.879 82.4602 179.589 82.0302 178.939 82.0302C178.329 82.0302 177.929 82.5102 177.929 83.1102V86.0002H176.789V83.0302C176.789 82.4701 176.509 82.0302 175.849 82.0302C175.229 82.0302 174.839 82.4902 174.839 83.1102ZM184.42 81.9501C183.69 81.9501 183.27 82.5102 183.23 83.0302H185.62C185.6 82.4602 185.22 81.9501 184.42 81.9501ZM184.53 85.1502C185.23 85.1502 185.59 84.7802 185.75 84.3002L186.73 84.6102C186.47 85.4602 185.7 86.1502 184.53 86.1502C183.21 86.1502 182.04 85.1902 182.04 83.5402C182.04 82.0002 183.18 80.9802 184.41 80.9802C185.91 80.9802 186.79 81.9702 186.79 83.5102C186.79 83.7002 186.77 83.8601 186.76 83.8801H183.2C183.23 84.6202 183.81 85.1502 184.53 85.1502ZM165.23 124.88V126H160.85V118.91H165.23V120.03H162.05V121.91H164.93V123H162.05V124.88H165.23ZM167.623 123.11V126H166.473V121.13H167.583V121.75C167.863 121.25 168.473 120.99 169.023 120.99C169.663 120.99 170.223 121.28 170.483 121.85C170.863 121.21 171.433 120.99 172.063 120.99C172.943 120.99 173.783 121.55 173.783 122.84V126H172.663V123.03C172.663 122.46 172.373 122.03 171.723 122.03C171.113 122.03 170.713 122.51 170.713 123.11V126H169.573V123.03C169.573 122.47 169.293 122.03 168.633 122.03C168.013 122.03 167.623 122.49 167.623 123.11ZM176.553 126.15C175.533 126.15 174.903 125.45 174.903 124.68C174.903 123.81 175.543 123.33 176.373 123.21L177.623 123.02C177.903 122.98 177.983 122.84 177.983 122.67C177.983 122.26 177.703 121.93 177.063 121.93C176.453 121.93 176.113 122.32 176.063 122.81L175.003 122.57C175.093 121.73 175.853 120.98 177.053 120.98C178.553 120.98 179.123 121.83 179.123 122.8V125.22C179.123 125.66 179.173 125.95 179.183 126H178.103C178.093 125.97 178.053 125.77 178.053 125.38C177.823 125.75 177.343 126.15 176.553 126.15ZM176.063 124.61C176.063 124.94 176.313 125.24 176.773 125.24C177.423 125.24 177.983 124.93 177.983 123.98V123.76L176.713 123.95C176.353 124.01 176.063 124.21 176.063 124.61ZM181.675 121.13V126H180.525V121.13H181.675ZM181.095 120.17C180.685 120.17 180.345 119.84 180.345 119.42C180.345 119 180.685 118.66 181.095 118.66C181.515 118.66 181.855 119 181.855 119.42C181.855 119.84 181.515 120.17 181.095 120.17ZM184.332 118.76V126H183.172V118.76H184.332Z" fill="#5C678E"/><path fill-rule="evenodd" clip-rule="evenodd" d="M219 91H161C159.895 91 159 91.8954 159 93V104C159 105.105 159.895 106 161 106H219C220.105 106 221 105.105 221 104V93C221 91.8954 220.105 91 219 91ZM289 131H161C159.895 131 159 131.895 159 133V145C159 146.105 159.895 147 161 147H289C290.105 147 291 146.105 291 145V133C291 131.895 290.105 131 289 131ZM231 91H289C290.105 91 291 91.8954 291 93V104C291 105.105 290.105 106 289 106H231C229.895 106 229 105.105 229 104V93C229 91.8954 229.895 91 231 91Z" fill="#E6EBF5"/><path d="M149 43V251H63C60.7909 251 59 249.019 59 246.574V47C59 44.7909 60.7909 43 63 43H149Z" fill="#232D5D"/><path opacity=".4" d="M161.773 163H287.227C289.311 163 291 163.729 291 164.629V240.371C291 241.271 289.311 242 287.227 242H161.773C159.689 242 158 241.271 158 240.371V164.629C158 163.729 159.689 163 161.773 163Z" stroke="#09F" stroke-width="2" stroke-linecap="round" stroke-dasharray="6 6"/><path fill-rule="evenodd" clip-rule="evenodd" d="M149 43H63C60.7909 43 59 44.7909 59 47V66H149V43ZM59.5 87H59V88H59.5H148.5H149V87H148.5H59.5ZM59.5 110.5H59V111.5H59.5H148.5H149V110.5H148.5H59.5ZM59 134H59.5H148.5H149V135H148.5H59.5H59V134ZM59.5 157.5H59V158.5H59.5H148.5H149V157.5H148.5H59.5ZM59 181H59.5H148.5H149V182H148.5H59.5H59V181ZM59.5 204.5H59V205.5H59.5H148.5H149V204.5H148.5H59.5ZM59 228H59.5H148.5H149V229H148.5H59.5H59V228Z" fill="#394684"/><path d="M73.1873 167.275C73.1866 167.28 73.1864 167.281 73.1851 167.29 73.1851 167.29 73.1862 167.283 73.1873 167.275zM73.1868 167.279C73.1902 167.256 73.1888 167.265 73.1868 167.279V167.279z" fill="#fff"/><path fill-rule="evenodd" clip-rule="evenodd" d="M75.0492 55.3184V58.0004H74.1672V51.6194H78.0462V52.4384H75.0492V54.4904H77.7672V55.3184H75.0492ZM79.2218 55.8314C79.2218 56.8394 79.8518 57.3794 80.5718 57.3794C81.2918 57.3794 81.9218 56.8394 81.9218 55.8314C81.9218 54.8324 81.2918 54.2924 80.5718 54.2924C79.8518 54.2924 79.2218 54.8324 79.2218 55.8314ZM78.3578 55.8314C78.3578 54.5174 79.2758 53.5364 80.5718 53.5364C81.8678 53.5364 82.7858 54.5174 82.7858 55.8314C82.7858 57.1544 81.8678 58.1354 80.5718 58.1354C79.2758 58.1354 78.3578 57.1544 78.3578 55.8314ZM85.9922 53.5994C86.1092 53.5994 86.2262 53.6174 86.2712 53.6264V54.5264C86.1452 54.5084 86.0192 54.4994 85.9022 54.4994C85.1912 54.4994 84.7142 54.8774 84.7142 55.8314V58.0004H83.8682V53.6714H84.6962V54.4274C85.0112 53.7614 85.5512 53.5994 85.9922 53.5994ZM88.0099 55.3904V58.0004H87.1729V53.6714H87.9829V54.2474C88.2529 53.7704 88.7929 53.5454 89.2969 53.5454C89.8369 53.5454 90.3589 53.8064 90.5929 54.3644C90.9349 53.7434 91.4929 53.5454 92.0419 53.5454C92.7979 53.5454 93.5359 54.0584 93.5359 55.1924V58.0004H92.6989V55.2824C92.6989 54.7154 92.4199 54.2924 91.7809 54.2924C91.1869 54.2924 90.7819 54.7604 90.7819 55.3814V58.0004H89.9359V55.2824C89.9359 54.7244 89.6659 54.2924 89.0179 54.2924C88.4149 54.2924 88.0099 54.7424 88.0099 55.3904ZM101.109 57.1814V58.0004H97.2297V51.6194H101.109V52.4384H98.1117V54.4004H100.83V55.2284H98.1117V57.1814H101.109ZM103.215 51.4844V58.0004H102.369V51.4844H103.215ZM106.382 54.2834C105.671 54.2834 105.239 54.8324 105.203 55.3904H107.57C107.552 54.7694 107.147 54.2834 106.382 54.2834ZM106.481 57.3884C107.183 57.3884 107.534 57.0014 107.696 56.5154L108.425 56.7674C108.182 57.5324 107.489 58.1354 106.481 58.1354C105.32 58.1354 104.303 57.2894 104.303 55.8224C104.303 54.4634 105.284 53.5364 106.373 53.5364C107.705 53.5364 108.452 54.4544 108.452 55.8044C108.452 55.9124 108.443 56.0204 108.434 56.0744H105.176C105.194 56.8484 105.752 57.3884 106.481 57.3884ZM110.369 55.3904V58.0004H109.532V53.6714H110.342V54.2474C110.612 53.7704 111.152 53.5454 111.656 53.5454C112.196 53.5454 112.718 53.8064 112.952 54.3644C113.294 53.7434 113.852 53.5454 114.401 53.5454C115.157 53.5454 115.895 54.0584 115.895 55.1924V58.0004H115.058V55.2824C115.058 54.7154 114.779 54.2924 114.14 54.2924C113.546 54.2924 113.141 54.7604 113.141 55.3814V58.0004H112.295V55.2824C112.295 54.7244 112.025 54.2924 111.377 54.2924C110.774 54.2924 110.369 54.7424 110.369 55.3904ZM118.977 54.2834C118.266 54.2834 117.834 54.8324 117.798 55.3904H120.165C120.147 54.7694 119.742 54.2834 118.977 54.2834ZM119.076 57.3884C119.778 57.3884 120.129 57.0014 120.291 56.5154L121.02 56.7674C120.777 57.5324 120.084 58.1354 119.076 58.1354C117.915 58.1354 116.898 57.2894 116.898 55.8224C116.898 54.4634 117.879 53.5364 118.968 53.5364C120.3 53.5364 121.047 54.4544 121.047 55.8044C121.047 55.9124 121.038 56.0204 121.029 56.0744H117.771C117.789 56.8484 118.347 57.3884 119.076 57.3884ZM123.981 54.3104C123.315 54.3104 122.973 54.8414 122.973 55.4984V58.0004H122.127V53.6714H122.955V54.2924C123.27 53.7524 123.783 53.5454 124.287 53.5454C125.322 53.5454 125.835 54.2924 125.835 55.2554V58.0004H124.989V55.3994C124.989 54.7964 124.737 54.3104 123.981 54.3104ZM127.541 52.3034H128.315V53.6714H129.251V54.4364H128.315V56.6864C128.315 57.0824 128.477 57.2804 128.918 57.2804C129.026 57.2804 129.179 57.2624 129.251 57.2444V57.9644C129.179 57.9914 128.963 58.0454 128.675 58.0454C127.937 58.0454 127.469 57.5954 127.469 56.8124V54.4364H126.641V53.6714H126.875C127.343 53.6714 127.541 53.3834 127.541 53.0054V52.3034ZM131.783 58.1354C130.595 58.1354 130.091 57.3704 130.019 56.8754L130.784 56.6054C130.838 57.0554 131.18 57.4154 131.792 57.4154C132.269 57.4154 132.53 57.1454 132.53 56.8394C132.53 56.5694 132.332 56.3624 131.972 56.2814L131.234 56.1194C130.559 55.9754 130.154 55.5164 130.154 54.9044C130.154 54.1664 130.847 53.5364 131.693 53.5364C132.881 53.5364 133.25 54.3104 133.34 54.6974L132.593 54.9764C132.557 54.7514 132.377 54.2564 131.693 54.2564C131.261 54.2564 130.973 54.5354 130.973 54.8324C130.973 55.0934 131.135 55.2824 131.468 55.3544L132.17 55.5074C132.953 55.6784 133.367 56.1554 133.367 56.7944C133.367 57.4064 132.854 58.1354 131.783 58.1354ZM66.8763 79.0638L66.8761 79.2801V79.2801V79.2801V79.2802V79.2802V79.2802V79.2803V79.2803C66.8759 79.428 66.8758 79.5651 66.8765 79.7022C66.8776 79.9021 66.9757 80.001 67.1718 79.999C67.2827 79.9979 67.3937 79.9983 67.5047 79.9986L67.5082 79.9987C67.5625 79.9988 67.6169 79.999 67.6712 79.999C67.905 79.999 68.1387 79.9993 68.3725 79.9995C69.1613 80.0004 69.9501 80.0012 70.7388 79.9924C70.8556 79.9911 71.0587 79.9169 71.0716 79.8472C71.1153 79.6125 71.1193 79.3584 71.0711 79.1265C71.0635 79.0901 70.9195 79.0829 70.7794 79.0759H70.7793H70.7793H70.7792H70.7792H70.7791C70.7203 79.0729 70.6622 79.07 70.6151 79.065C70.5844 79.0617 70.5534 79.0612 70.5224 79.0607H70.5223C70.4818 79.06 70.4414 79.0593 70.402 79.0525C70.1659 79.0118 69.9982 78.8293 69.9976 78.5838C69.9951 77.4714 69.9952 76.359 69.9953 75.2466V75.2416C69.9953 74.6963 69.9954 74.1509 69.9951 73.6055C69.995 73.41 70.0969 73.3251 70.2761 73.3224C70.4071 73.3204 70.5381 73.3208 70.6692 73.3211L70.823 73.3214C71.6952 73.3214 72.0547 73.6092 72.2692 74.4793C72.3271 74.7142 72.4276 74.7648 72.7472 74.7365C72.9576 74.7178 73.0006 74.5823 73 74.3984C72.9988 74.0659 72.999 73.7334 72.9992 73.4009V73.4001C72.9993 73.0496 72.9995 72.6991 72.9981 72.3486C72.9971 72.076 72.9226 72.0007 72.6584 72.0006C70.217 71.9998 67.7755 71.9997 65.334 72.0009C65.0629 72.001 65.0013 72.0673 65.0007 72.3482C64.9998 72.816 65 73.2838 65.0002 73.7516V73.7522L65.0003 74.3249C65.0004 74.6945 65.0585 74.7434 65.4114 74.7391C65.6545 74.7361 65.7101 74.5801 65.7511 74.3823C65.8971 73.6793 66.3279 73.3237 67.0265 73.3215C67.1097 73.3212 67.1929 73.3215 67.2762 73.3219C67.4149 73.3224 67.5537 73.323 67.6923 73.3206C67.9018 73.317 67.9918 73.4159 67.9914 73.6321C67.9898 74.4778 67.9898 75.3235 67.9898 76.1692C67.9898 76.9585 67.9898 77.7479 67.9885 78.5372C67.988 78.8619 67.8044 79.0505 67.4876 79.0625C67.3597 79.0674 67.2317 79.0662 67.0903 79.065C67.0225 79.0644 66.9517 79.0638 66.8763 79.0638ZM85.656 74.056V73.328H81.08V74.056H82.976V79H83.76V74.056H85.656ZM86.1046 76.68C86.1366 76.184 86.5206 75.696 87.1526 75.696C87.8326 75.696 88.1926 76.128 88.2086 76.68H86.1046ZM88.3206 77.68C88.1766 78.112 87.8646 78.456 87.2406 78.456C86.5926 78.456 86.0966 77.976 86.0806 77.288H88.9766C88.9846 77.24 88.9926 77.144 88.9926 77.048C88.9926 75.848 88.3286 75.032 87.1446 75.032C86.1766 75.032 85.3046 75.856 85.3046 77.064C85.3046 78.368 86.2086 79.12 87.2406 79.12C88.1366 79.12 88.7526 78.584 88.9686 77.904L88.3206 77.68ZM89.3534 79H90.2494L91.2254 77.584L92.2174 79H93.1214C93.0056 78.8442 92.7102 78.4331 92.4146 78.0217L92.414 78.0209L92.4134 78.02L92.4128 78.0191L92.4122 78.0183C92.1166 77.6069 91.8213 77.1958 91.7054 77.04L93.0734 75.152H92.1854L91.2574 76.504L90.3134 75.152H89.4014L90.7854 77.04L89.3534 79ZM94.8902 73.936H94.2022V74.56C94.2022 74.896 94.0262 75.152 93.6102 75.152H93.4022V75.832H94.1382V77.944C94.1382 78.64 94.5542 79.04 95.2102 79.04C95.4662 79.04 95.6582 78.992 95.7222 78.968V78.328C95.6582 78.344 95.5222 78.36 95.4262 78.36C95.0342 78.36 94.8902 78.184 94.8902 77.832V75.832H95.7222V75.152H94.8902V73.936ZM97.4699 79V78.44C97.7099 78.856 98.1499 79.104 98.7179 79.104C99.8619 79.104 100.51 78.2 100.51 77.056C100.51 75.936 99.9099 75.04 98.7419 75.04C98.1019 75.04 97.6539 75.352 97.4699 75.696V73.208H96.7259V79H97.4699ZM99.7419 77.056C99.7419 77.888 99.2939 78.432 98.6059 78.432C97.9419 78.432 97.4619 77.888 97.4619 77.056C97.4619 76.224 97.9419 75.704 98.6059 75.704C99.3019 75.704 99.7419 76.224 99.7419 77.056ZM103.116 78.448C102.476 78.448 101.916 77.968 101.916 77.072C101.916 76.184 102.476 75.704 103.116 75.704C103.756 75.704 104.316 76.184 104.316 77.072C104.316 77.968 103.756 78.448 103.116 78.448ZM103.116 75.032C101.964 75.032 101.148 75.904 101.148 77.072C101.148 78.248 101.964 79.12 103.116 79.12C104.268 79.12 105.084 78.248 105.084 77.072C105.084 75.904 104.268 75.032 103.116 75.032ZM105.408 79H106.304L107.28 77.584L108.272 79H109.176C109.06 78.8442 108.765 78.4331 108.469 78.0217L108.469 78.0209L108.468 78.02L108.467 78.0191L108.467 78.0183C108.171 77.6069 107.876 77.1958 107.76 77.04L109.128 75.152H108.24L107.312 76.504L106.368 75.152H105.456L106.84 77.04L105.408 79ZM85.648 102H86.496L84.24 96.328H83.336L81.08 102H81.92L82.52 100.416H85.032L85.648 102ZM83.768 97.144L84.752 99.688H82.8L83.768 97.144ZM87.588 100.064C87.588 99.272 88.036 98.712 88.724 98.712C89.412 98.712 89.828 99.256 89.828 100.048C89.828 100.84 89.404 101.44 88.716 101.44C87.996 101.44 87.588 100.856 87.588 100.064ZM89.836 101.48C89.836 101.712 89.86 101.912 89.876 102H90.604C90.596 101.936 90.564 101.656 90.564 101.288V96.208H89.82V98.696C89.692 98.384 89.324 98.048 88.644 98.048C87.556 98.048 86.82 98.976 86.82 100.064C86.82 101.208 87.516 102.104 88.644 102.104C89.244 102.104 89.652 101.784 89.836 101.416V101.48ZM93.9791 98.112C93.9391 98.104 93.8351 98.088 93.7311 98.088C93.3391 98.088 92.8591 98.232 92.5791 98.824V98.152H91.8431V102H92.5951V100.072C92.5951 99.224 93.0191 98.888 93.6511 98.888C93.7551 98.888 93.8671 98.896 93.9791 98.912V98.112ZM95.2296 99.68C95.2616 99.184 95.6456 98.696 96.2776 98.696C96.9576 98.696 97.3176 99.128 97.3336 99.68H95.2296ZM97.4456 100.68C97.3016 101.112 96.9896 101.456 96.3656 101.456C95.7176 101.456 95.2216 100.976 95.2056 100.288H98.1016C98.1096 100.24 98.1176 100.144 98.1176 100.048C98.1176 98.848 97.4536 98.032 96.2696 98.032C95.3016 98.032 94.4296 98.856 94.4296 100.064C94.4296 101.368 95.3336 102.12 96.3656 102.12C97.2616 102.12 97.8776 101.584 98.0936 100.904L97.4456 100.68ZM98.7175 101C98.7815 101.44 99.2295 102.12 100.286 102.12C101.238 102.12 101.694 101.472 101.694 100.928C101.694 100.36 101.326 99.936 100.63 99.784L100.006 99.648C99.7095 99.584 99.5655 99.416 99.5655 99.184C99.5655 98.92 99.8215 98.672 100.206 98.672C100.814 98.672 100.974 99.112 101.006 99.312L101.67 99.064C101.59 98.72 101.262 98.032 100.206 98.032C99.4535 98.032 98.8375 98.592 98.8375 99.248C98.8375 99.792 99.1975 100.2 99.7975 100.328L100.454 100.472C100.774 100.544 100.95 100.728 100.95 100.968C100.95 101.24 100.718 101.48 100.294 101.48C99.7495 101.48 99.4455 101.16 99.3975 100.76L98.7175 101ZM102.335 101C102.399 101.44 102.847 102.12 103.903 102.12C104.855 102.12 105.311 101.472 105.311 100.928C105.311 100.36 104.943 99.936 104.247 99.784L103.623 99.648C103.327 99.584 103.183 99.416 103.183 99.184C103.183 98.92 103.439 98.672 103.823 98.672C104.431 98.672 104.591 99.112 104.623 99.312L105.287 99.064C105.207 98.72 104.879 98.032 103.823 98.032C103.071 98.032 102.455 98.592 102.455 99.248C102.455 99.792 102.815 100.2 103.415 100.328L104.071 100.472C104.391 100.544 104.567 100.728 104.567 100.968C104.567 101.24 104.335 101.48 103.911 101.48C103.367 101.48 103.063 101.16 103.015 100.76L102.335 101ZM82.504 120.461V122.405H83.64C84.32 122.405 84.736 122.029 84.736 121.445C84.736 120.845 84.32 120.461 83.64 120.461H82.504ZM85.536 121.437C85.536 122.397 84.832 123.109 83.784 123.109H82.504V125.429H81.72V119.757H83.784C84.832 119.757 85.536 120.485 85.536 121.437ZM87.9833 122.149C87.4073 122.149 87.1033 122.597 87.0873 123.165V125.429H86.3353V119.637H87.0873V122.029C87.3673 121.621 87.8153 121.469 88.2553 121.469C89.1753 121.469 89.6313 122.133 89.6313 122.989V125.429H88.8793V123.117C88.8793 122.581 88.6553 122.149 87.9833 122.149ZM91.2755 123.501C91.2755 124.397 91.8355 124.877 92.4755 124.877C93.1155 124.877 93.6755 124.397 93.6755 123.501C93.6755 122.613 93.1155 122.133 92.4755 122.133C91.8355 122.133 91.2755 122.613 91.2755 123.501ZM90.5075 123.501C90.5075 122.333 91.3235 121.461 92.4755 121.461C93.6275 121.461 94.4435 122.333 94.4435 123.501C94.4435 124.677 93.6275 125.549 92.4755 125.549C91.3235 125.549 90.5075 124.677 90.5075 123.501ZM97.0536 122.149C96.4616 122.149 96.1576 122.621 96.1576 123.205V125.429H95.4056V121.581H96.1416V122.133C96.4216 121.653 96.8776 121.469 97.3256 121.469C98.2456 121.469 98.7016 122.133 98.7016 122.989V125.429H97.9496V123.117C97.9496 122.581 97.7256 122.149 97.0536 122.149ZM101.434 122.125C100.802 122.125 100.418 122.613 100.386 123.109H102.49C102.474 122.557 102.114 122.125 101.434 122.125ZM101.522 124.885C102.146 124.885 102.458 124.541 102.602 124.109L103.25 124.333C103.034 125.013 102.418 125.549 101.522 125.549C100.49 125.549 99.5858 124.797 99.5858 123.493C99.5858 122.285 100.458 121.461 101.426 121.461C102.61 121.461 103.274 122.277 103.274 123.477C103.274 123.573 103.266 123.669 103.258 123.717H100.362C100.378 124.405 100.874 124.885 101.522 124.885ZM85.168 149V148.272H82.504V146.536H84.92V145.8H82.504V144.056H85.168V143.328H81.72V149H85.168ZM86.9153 149V146.68C86.9153 146.104 87.2753 145.704 87.8113 145.704C88.3873 145.704 88.6273 146.088 88.6273 146.584V149H89.3793V146.672C89.3793 146.12 89.7393 145.704 90.2673 145.704C90.8353 145.704 91.0833 146.08 91.0833 146.584V149H91.8273V146.504C91.8273 145.496 91.1713 145.04 90.4993 145.04C90.0113 145.04 89.5153 145.216 89.2113 145.768C89.0033 145.272 88.5393 145.04 88.0593 145.04C87.6113 145.04 87.1313 145.24 86.8913 145.664V145.152H86.1713V149H86.9153ZM92.7906 147.968C92.7906 148.576 93.2946 149.12 94.0786 149.12C94.7666 149.12 95.1506 148.752 95.3186 148.48C95.3186 148.76 95.3426 148.904 95.3586 149H96.0946C96.0786 148.904 96.0466 148.704 96.0466 148.368V146.44C96.0466 145.688 95.5986 145.032 94.4466 145.032C93.6146 145.032 92.9506 145.544 92.8706 146.28L93.5906 146.448C93.6386 146 93.9346 145.672 94.4626 145.672C95.0466 145.672 95.2946 145.984 95.2946 146.36C95.2946 146.496 95.2306 146.616 94.9986 146.648L93.9586 146.8C93.2946 146.896 92.7906 147.28 92.7906 147.968ZM94.1826 148.488C93.7986 148.488 93.5586 148.216 93.5586 147.928C93.5586 147.584 93.7986 147.4 94.1186 147.352L95.2946 147.176V147.352C95.2946 148.192 94.7986 148.488 94.1826 148.488ZM97.9621 149V145.152H97.2181V149H97.9621ZM97.0501 143.696C97.0501 143.992 97.2901 144.232 97.5861 144.232C97.8901 144.232 98.1301 143.992 98.1301 143.696C98.1301 143.392 97.8901 143.152 97.5861 143.152C97.2901 143.152 97.0501 143.392 97.0501 143.696ZM99.9936 149V143.208H99.2416V149H99.9936ZM82.504 168.032V169.976H83.64C84.32 169.976 84.736 169.6 84.736 169.016C84.736 168.416 84.32 168.032 83.64 168.032H82.504ZM85.536 169.008C85.536 169.968 84.832 170.68 83.784 170.68H82.504V173H81.72V167.328H83.784C84.832 167.328 85.536 168.056 85.536 169.008ZM88.1843 169.088C88.2883 169.088 88.3923 169.104 88.4323 169.112V169.912C88.3203 169.896 88.2083 169.888 88.1043 169.888C87.4723 169.888 87.0483 170.224 87.0483 171.072V173H86.2963V169.152H87.0323V169.824C87.3123 169.232 87.7923 169.088 88.1843 169.088ZM89.6427 171.072C89.6427 171.968 90.2027 172.448 90.8427 172.448C91.4827 172.448 92.0427 171.968 92.0427 171.072C92.0427 170.184 91.4827 169.704 90.8427 169.704C90.2027 169.704 89.6427 170.184 89.6427 171.072ZM88.8747 171.072C88.8747 169.904 89.6907 169.032 90.8427 169.032C91.9947 169.032 92.8107 169.904 92.8107 171.072C92.8107 172.248 91.9947 173.12 90.8427 173.12C89.6907 173.12 88.8747 172.248 88.8747 171.072ZM95.3568 169.712C94.6688 169.712 94.2208 170.272 94.2208 171.064C94.2208 171.856 94.6288 172.44 95.3488 172.44C96.0368 172.44 96.4608 171.84 96.4608 171.048C96.4608 170.256 96.0448 169.712 95.3568 169.712ZM96.5088 173C96.4928 172.912 96.4688 172.712 96.4688 172.48V172.416C96.2848 172.784 95.8768 173.104 95.2768 173.104C94.1488 173.104 93.4528 172.208 93.4528 171.064C93.4528 169.976 94.1888 169.048 95.2768 169.048C95.9568 169.048 96.3248 169.384 96.4528 169.696V167.208H97.1968V172.288C97.1968 172.656 97.2288 172.936 97.2368 173H96.5088ZM101.005 173C100.989 172.912 100.973 172.696 100.973 172.536C100.765 172.936 100.285 173.12 99.8369 173.12C98.9409 173.12 98.3969 172.448 98.3969 171.576V169.152H99.1489V171.464C99.1489 171.992 99.3889 172.456 100.021 172.456C100.629 172.456 100.933 172.056 100.933 171.472V169.152H101.685V172.288C101.685 172.592 101.709 172.864 101.725 173H101.005ZM105.577 170.544C105.481 170.168 105.201 169.728 104.545 169.728C103.937 169.728 103.377 170.176 103.377 171.072C103.377 171.952 103.929 172.424 104.553 172.424C105.273 172.424 105.537 171.936 105.625 171.632L106.289 171.92C106.105 172.472 105.553 173.12 104.553 173.12C103.433 173.12 102.609 172.24 102.609 171.072C102.609 169.872 103.449 169.032 104.545 169.032C105.569 169.032 106.097 169.672 106.257 170.256L105.577 170.544ZM107.491 167.936H108.179V169.152H109.011V169.832H108.179V171.832C108.179 172.184 108.323 172.36 108.715 172.36C108.811 172.36 108.947 172.344 109.011 172.328V172.968C108.947 172.992 108.755 173.04 108.499 173.04C107.843 173.04 107.427 172.64 107.427 171.944V169.832H106.691V169.152H106.899C107.315 169.152 107.491 168.896 107.491 168.56V167.936ZM111.262 173.12C110.206 173.12 109.758 172.44 109.694 172L110.374 171.76C110.422 172.16 110.726 172.48 111.27 172.48C111.694 172.48 111.926 172.24 111.926 171.968C111.926 171.728 111.75 171.544 111.43 171.472L110.774 171.328C110.174 171.2 109.814 170.792 109.814 170.248C109.814 169.592 110.43 169.032 111.182 169.032C112.238 169.032 112.566 169.72 112.646 170.064L111.982 170.312C111.95 170.112 111.79 169.672 111.182 169.672C110.798 169.672 110.542 169.92 110.542 170.184C110.542 170.416 110.686 170.584 110.982 170.648L111.606 170.784C112.302 170.936 112.67 171.36 112.67 171.928C112.67 172.472 112.214 173.12 111.262 173.12ZM85.336 191.616C85.208 191 84.696 190.208 83.416 190.208C82.368 190.208 81.544 191.008 81.544 191.896C81.544 192.744 82.12 193.272 82.928 193.448L83.736 193.624C84.304 193.744 84.584 194.096 84.584 194.504C84.584 195 84.2 195.408 83.416 195.408C82.56 195.408 82.112 194.824 82.056 194.192L81.304 194.432C81.408 195.24 82.056 196.12 83.424 196.12C84.632 196.12 85.384 195.32 85.384 194.44C85.384 193.648 84.856 193.056 83.912 192.848L83.064 192.664C82.584 192.56 82.336 192.248 82.336 191.84C82.336 191.312 82.792 190.896 83.432 190.896C84.224 190.896 84.568 191.456 84.632 191.864L85.336 191.616ZM87.3121 190.936H86.6241V191.56C86.6241 191.896 86.4481 192.152 86.0321 192.152H85.8241V192.832H86.5601V194.944C86.5601 195.64 86.9761 196.04 87.6321 196.04C87.8881 196.04 88.0801 195.992 88.1441 195.968V195.328C88.0801 195.344 87.9441 195.36 87.8481 195.36C87.4561 195.36 87.3121 195.184 87.3121 194.832V192.832H88.1441V192.152H87.3121V190.936ZM88.9078 194.968C88.9078 195.576 89.4118 196.12 90.1958 196.12C90.8838 196.12 91.2678 195.752 91.4358 195.48C91.4358 195.76 91.4598 195.904 91.4758 196H92.2118C92.1958 195.904 92.1638 195.704 92.1638 195.368V193.44C92.1638 192.688 91.7158 192.032 90.5638 192.032C89.7318 192.032 89.0678 192.544 88.9878 193.28L89.7078 193.448C89.7558 193 90.0518 192.672 90.5798 192.672C91.1638 192.672 91.4118 192.984 91.4118 193.36C91.4118 193.496 91.3478 193.616 91.1158 193.648L90.0758 193.8C89.4118 193.896 88.9078 194.28 88.9078 194.968ZM90.2998 195.488C89.9158 195.488 89.6758 195.216 89.6758 194.928C89.6758 194.584 89.9158 194.4 90.2358 194.352L91.4118 194.176V194.352C91.4118 195.192 90.9158 195.488 90.2998 195.488ZM95.4713 192.112C95.4313 192.104 95.3273 192.088 95.2233 192.088C94.8313 192.088 94.3513 192.232 94.0713 192.824V192.152H93.3353V196H94.0873V194.072C94.0873 193.224 94.5113 192.888 95.1433 192.888C95.2473 192.888 95.3593 192.896 95.4713 192.912V192.112ZM101.289 196H102.201L100.849 193.624C101.705 193.464 102.225 192.832 102.225 192.016C102.225 191.08 101.561 190.328 100.489 190.328H98.3528V196H99.1448V193.68H99.9928L101.289 196ZM99.1448 192.976V191.032H100.345C100.985 191.032 101.417 191.416 101.417 192.016C101.417 192.6 100.985 192.976 100.345 192.976H99.1448ZM102.947 194.968C102.947 195.576 103.451 196.12 104.235 196.12C104.923 196.12 105.307 195.752 105.475 195.48C105.475 195.76 105.499 195.904 105.515 196H106.251C106.235 195.904 106.203 195.704 106.203 195.368V193.44C106.203 192.688 105.755 192.032 104.603 192.032C103.771 192.032 103.107 192.544 103.027 193.28L103.747 193.448C103.795 193 104.091 192.672 104.619 192.672C105.203 192.672 105.451 192.984 105.451 193.36C105.451 193.496 105.387 193.616 105.155 193.648L104.115 193.8C103.451 193.896 102.947 194.28 102.947 194.968ZM104.339 195.488C103.955 195.488 103.715 195.216 103.715 194.928C103.715 194.584 103.955 194.4 104.275 194.352L105.451 194.176V194.352C105.451 195.192 104.955 195.488 104.339 195.488ZM108.382 190.936H107.694V191.56C107.694 191.896 107.518 192.152 107.102 192.152H106.894V192.832H107.63V194.944C107.63 195.64 108.046 196.04 108.702 196.04C108.958 196.04 109.15 195.992 109.214 195.968V195.328C109.15 195.344 109.014 195.36 108.918 195.36C108.526 195.36 108.382 195.184 108.382 194.832V192.832H109.214V192.152H108.382V190.936ZM110.962 196V192.152H110.218V196H110.962ZM110.05 190.696C110.05 190.992 110.29 191.232 110.586 191.232C110.89 191.232 111.13 190.992 111.13 190.696C111.13 190.392 110.89 190.152 110.586 190.152C110.29 190.152 110.05 190.392 110.05 190.696ZM112.994 193.776C112.994 193.192 113.298 192.72 113.89 192.72C114.562 192.72 114.786 193.152 114.786 193.688V196H115.538V193.56C115.538 192.704 115.082 192.04 114.162 192.04C113.714 192.04 113.258 192.224 112.978 192.704V192.152H112.242V196H112.994V193.776ZM116.454 196.208C116.55 197.032 117.27 197.64 118.23 197.64C119.678 197.64 120.158 196.688 120.158 195.712V192.152H119.414V192.688C119.222 192.304 118.822 192.08 118.23 192.08C117.174 192.08 116.462 192.912 116.462 193.952C116.462 195.04 117.206 195.816 118.23 195.816C118.806 195.816 119.222 195.536 119.406 195.184V195.736C119.406 196.568 119.038 196.984 118.23 196.984C117.646 196.984 117.238 196.576 117.182 196.04L116.454 196.208ZM118.342 195.184C117.662 195.184 117.23 194.704 117.23 193.952C117.23 193.208 117.678 192.72 118.342 192.72C118.99 192.72 119.438 193.208 119.438 193.952C119.438 194.696 118.99 195.184 118.342 195.184ZM87.848 214.328V220H87.072V215.584L85.136 220H84.416L82.496 215.584V220H81.72V214.328H82.784L84.784 218.944L86.8 214.328H87.848ZM91.7783 220C91.7623 219.912 91.7463 219.696 91.7463 219.536C91.5383 219.936 91.0583 220.12 90.6103 220.12C89.7143 220.12 89.1703 219.448 89.1703 218.576V216.152H89.9223V218.464C89.9223 218.992 90.1623 219.456 90.7943 219.456C91.4023 219.456 91.7063 219.056 91.7063 218.472V216.152H92.4583V219.288C92.4583 219.592 92.4823 219.864 92.4983 220H91.7783ZM94.4936 214.208V220H93.7416V214.208H94.4936ZM96.0928 214.936H96.7808V216.152H97.6128V216.832H96.7808V218.832C96.7808 219.184 96.9248 219.36 97.3168 219.36C97.4128 219.36 97.5488 219.344 97.6128 219.328V219.968C97.5488 219.992 97.3568 220.04 97.1008 220.04C96.4448 220.04 96.0288 219.64 96.0288 218.944V216.832H95.2928V216.152H95.5008C95.9168 216.152 96.0928 215.896 96.0928 215.56V214.936ZM99.3606 216.152V220H98.6166V216.152H99.3606ZM98.9846 215.232C98.6886 215.232 98.4486 214.992 98.4486 214.696C98.4486 214.392 98.6886 214.152 98.9846 214.152C99.2886 214.152 99.5286 214.392 99.5286 214.696C99.5286 214.992 99.2886 215.232 98.9846 215.232ZM101.384 219.48V221.52H100.64V216.152H101.368V216.752C101.576 216.368 102.032 216.064 102.656 216.064C103.808 216.064 104.424 216.952 104.424 218.072C104.424 219.216 103.76 220.104 102.632 220.104C102.04 220.104 101.592 219.824 101.384 219.48ZM102.52 219.432C103.216 219.432 103.656 218.864 103.656 218.072C103.656 217.304 103.224 216.728 102.52 216.728C101.832 216.728 101.376 217.304 101.376 218.072C101.376 218.864 101.832 219.432 102.52 219.432ZM106.134 214.208V220H105.382V214.208H106.134ZM108.949 216.696C108.317 216.696 107.933 217.184 107.901 217.68H110.005C109.989 217.128 109.629 216.696 108.949 216.696ZM109.037 219.456C109.661 219.456 109.973 219.112 110.117 218.68L110.765 218.904C110.549 219.584 109.933 220.12 109.037 220.12C108.005 220.12 107.101 219.368 107.101 218.064C107.101 216.856 107.973 216.032 108.941 216.032C110.125 216.032 110.789 216.848 110.789 218.048C110.789 218.144 110.781 218.24 110.773 218.288H107.877C107.893 218.976 108.389 219.456 109.037 219.456ZM115.525 214.208C116.805 214.208 117.317 215 117.445 215.616L116.741 215.864C116.677 215.456 116.333 214.896 115.541 214.896C114.901 214.896 114.445 215.312 114.445 215.84C114.445 216.248 114.693 216.56 115.173 216.664L116.021 216.848C116.965 217.056 117.493 217.648 117.493 218.44C117.493 219.32 116.741 220.12 115.533 220.12C114.165 220.12 113.517 219.24 113.413 218.432L114.165 218.192C114.221 218.824 114.669 219.408 115.525 219.408C116.309 219.408 116.693 219 116.693 218.504C116.693 218.096 116.413 217.744 115.845 217.624L115.037 217.448C114.229 217.272 113.653 216.744 113.653 215.896C113.653 215.008 114.477 214.208 115.525 214.208ZM119.949 216.696C119.317 216.696 118.933 217.184 118.901 217.68H121.005C120.989 217.128 120.629 216.696 119.949 216.696ZM120.037 219.456C120.661 219.456 120.973 219.112 121.117 218.68L121.765 218.904C121.549 219.584 120.933 220.12 120.037 220.12C119.005 220.12 118.101 219.368 118.101 218.064C118.101 216.856 118.973 216.032 119.941 216.032C121.125 216.032 121.789 216.848 121.789 218.048C121.789 218.144 121.781 218.24 121.773 218.288H118.877C118.893 218.976 119.389 219.456 120.037 219.456ZM123.501 214.208V220H122.749V214.208H123.501ZM126.317 216.696C125.685 216.696 125.301 217.184 125.269 217.68H127.373C127.357 217.128 126.997 216.696 126.317 216.696ZM126.405 219.456C127.029 219.456 127.341 219.112 127.485 218.68L128.133 218.904C127.917 219.584 127.301 220.12 126.405 220.12C125.373 220.12 124.469 219.368 124.469 218.064C124.469 216.856 125.341 216.032 126.309 216.032C127.493 216.032 128.157 216.848 128.157 218.048C128.157 218.144 128.149 218.24 128.141 218.288H125.245C125.261 218.976 125.757 219.456 126.405 219.456ZM131.765 217.544C131.669 217.168 131.389 216.728 130.733 216.728C130.125 216.728 129.565 217.176 129.565 218.072C129.565 218.952 130.117 219.424 130.741 219.424C131.461 219.424 131.725 218.936 131.813 218.632L132.477 218.92C132.293 219.472 131.741 220.12 130.741 220.12C129.621 220.12 128.797 219.24 128.797 218.072C128.797 216.872 129.637 216.032 130.733 216.032C131.757 216.032 132.285 216.672 132.445 217.256L131.765 217.544ZM133.679 214.936H134.367V216.152H135.199V216.832H134.367V218.832C134.367 219.184 134.511 219.36 134.903 219.36C134.999 219.36 135.135 219.344 135.199 219.328V219.968C135.135 219.992 134.943 220.04 134.687 220.04C134.031 220.04 133.615 219.64 133.615 218.944V216.832H132.879V216.152H133.087C133.503 216.152 133.679 215.896 133.679 215.56V214.936ZM83.224 243V237.816H82.536C82.416 238.376 81.92 238.776 81.2 238.792V239.344H82.456V243H83.224ZM85.0354 240.408C85.0354 239.616 85.1794 239.056 85.4914 238.728C85.6914 238.52 85.9474 238.392 86.3154 238.392C86.6834 238.392 86.9394 238.52 87.1394 238.728C87.4514 239.056 87.5954 239.616 87.5954 240.408C87.5954 241.2 87.4514 241.76 87.1394 242.088C86.9394 242.296 86.6834 242.424 86.3154 242.424C85.9474 242.424 85.6914 242.296 85.4914 242.088C85.1794 241.76 85.0354 241.2 85.0354 240.408ZM84.2594 240.408C84.2594 241.12 84.3794 241.776 84.7234 242.288C85.0594 242.792 85.5794 243.12 86.3154 243.12C87.0514 243.12 87.5714 242.792 87.9074 242.288C88.2514 241.776 88.3714 241.12 88.3714 240.408C88.3714 239.696 88.2514 239.04 87.9074 238.528C87.5714 238.024 87.0514 237.696 86.3154 237.696C85.5794 237.696 85.0594 238.024 84.7234 238.528C84.3794 239.04 84.2594 239.696 84.2594 240.408ZM89.9104 240.408C89.9104 239.616 90.0544 239.056 90.3664 238.728C90.5664 238.52 90.8224 238.392 91.1904 238.392C91.5584 238.392 91.8144 238.52 92.0144 238.728C92.3264 239.056 92.4704 239.616 92.4704 240.408C92.4704 241.2 92.3264 241.76 92.0144 242.088C91.8144 242.296 91.5584 242.424 91.1904 242.424C90.8224 242.424 90.5664 242.296 90.3664 242.088C90.0544 241.76 89.9104 241.2 89.9104 240.408ZM89.1344 240.408C89.1344 241.12 89.2544 241.776 89.5984 242.288C89.9344 242.792 90.4544 243.12 91.1904 243.12C91.9264 243.12 92.4464 242.792 92.7824 242.288C93.1264 241.776 93.2464 241.12 93.2464 240.408C93.2464 239.696 93.1264 239.04 92.7824 238.528C92.4464 238.024 91.9264 237.696 91.1904 237.696C90.4544 237.696 89.9344 238.024 89.5984 238.528C89.2544 239.04 89.1344 239.696 89.1344 240.408ZM94.0884 240.384V241.016H95.5844V242.592H96.2404V241.016H97.7444V240.384H96.2404V238.824H95.5844V240.384H94.0884ZM101.572 243V240.68C101.572 240.104 101.932 239.704 102.468 239.704C103.044 239.704 103.284 240.088 103.284 240.584V243H104.036V240.672C104.036 240.12 104.396 239.704 104.924 239.704C105.492 239.704 105.74 240.08 105.74 240.584V243H106.484V240.504C106.484 239.496 105.828 239.04 105.156 239.04C104.668 239.04 104.172 239.216 103.868 239.768C103.66 239.272 103.196 239.04 102.716 239.04C102.268 239.04 101.788 239.24 101.548 239.664V239.152H100.828V243H101.572ZM109.335 242.448C108.695 242.448 108.135 241.968 108.135 241.072C108.135 240.184 108.695 239.704 109.335 239.704C109.975 239.704 110.535 240.184 110.535 241.072C110.535 241.968 109.975 242.448 109.335 242.448ZM109.335 239.032C108.183 239.032 107.367 239.904 107.367 241.072C107.367 242.248 108.183 243.12 109.335 243.12C110.487 243.12 111.303 242.248 111.303 241.072C111.303 239.904 110.487 239.032 109.335 239.032ZM114.401 239.112C114.361 239.104 114.257 239.088 114.153 239.088C113.761 239.088 113.281 239.232 113.001 239.824V239.152H112.265V243H113.017V241.072C113.017 240.224 113.441 239.888 114.073 239.888C114.177 239.888 114.289 239.896 114.401 239.912V239.112ZM115.651 240.68C115.683 240.184 116.067 239.696 116.699 239.696C117.379 239.696 117.739 240.128 117.755 240.68H115.651ZM117.867 241.68C117.723 242.112 117.411 242.456 116.787 242.456C116.139 242.456 115.643 241.976 115.627 241.288H118.523C118.531 241.24 118.539 241.144 118.539 241.048C118.539 239.848 117.875 239.032 116.691 239.032C115.723 239.032 114.851 239.856 114.851 241.064C114.851 242.368 115.755 243.12 116.787 243.12C117.683 243.12 118.299 242.584 118.515 241.904L117.867 241.68ZM125.478 242.528C125.478 242.24 125.254 242.008 124.966 242.008C124.678 242.008 124.446 242.24 124.446 242.528C124.446 242.816 124.678 243.04 124.966 243.04C125.254 243.04 125.478 242.816 125.478 242.528ZM122.982 242.528C122.982 242.24 122.758 242.008 122.47 242.008C122.182 242.008 121.95 242.24 121.95 242.528C121.95 242.816 122.182 243.04 122.47 243.04C122.758 243.04 122.982 242.816 122.982 242.528ZM120.494 242.528C120.494 242.24 120.27 242.008 119.982 242.008C119.694 242.008 119.462 242.24 119.462 242.528C119.462 242.816 119.694 243.04 119.982 243.04C120.27 243.04 120.494 242.816 120.494 242.528ZM69.5 104C69.547 104 69.664 103.987 69.7363 103.867L72.623 99.0545C72.8731 98.5646 73 98.0352 73 97.4811C73 96.5421 72.6298 95.6618 71.9576 95.0024C71.2859 94.3435 70.3956 93.9878 69.4502 94.0003C67.559 94.0263 66.0112 95.5783 66.0001 97.4599C65.9967 98.0215 66.1235 98.558 66.3771 99.0545L69.2637 103.867C69.336 103.987 69.453 104 69.5 104ZM68 97.5C68 96.6729 68.6729 96 69.5 96C70.3271 96 71 96.6729 71 97.5C71 97.9001 70.8438 98.2766 70.5602 98.5602C70.2766 98.8438 69.9001 99 69.5001 99H69.5C68.6729 99 68 98.3271 68 97.5ZM70.991 214.4C70.9915 214.078 71.2718 213.801 71.5962 213.802C71.9199 213.804 72.1966 214.083 72.1943 214.407C72.1922 214.725 71.9149 215 71.5943 215.001C71.2714 215.002 70.9905 214.723 70.991 214.4ZM72.9999 213.107V213.005C72.965 213.003 72.9473 213 72.9296 213L72.2474 213C71.3412 213 70.435 213 69.5287 213.002C69.49 213.002 69.4419 213.024 69.4141 213.052C68.0283 214.43 66.6436 215.808 65.2607 217.188C64.9093 217.539 64.9148 218.033 65.2673 218.384C65.5161 218.633 65.7652 218.881 66.0142 219.129L66.0152 219.13L66.0166 219.131L66.019 219.133L66.0228 219.137L66.0287 219.143C66.305 219.418 66.5814 219.693 66.8573 219.969C67.0748 220.186 67.2912 220.404 67.5075 220.623L67.6734 220.79C67.9643 221.084 68.4301 221.068 68.7517 220.751C70.1495 219.373 71.547 217.995 72.9423 216.615C72.975 216.582 72.9975 216.523 72.9976 216.477C73.0001 215.531 73 214.586 72.9999 213.641L72.9999 213.107ZM65.5539 143.147L65.5647 143.155C65.5771 143.164 65.5872 143.171 65.5961 143.18L66.9881 144.477L69.2773 146.609C69.3176 146.646 69.3593 146.683 69.4047 146.714C69.7615 146.956 70.2317 146.916 70.5501 146.62L74.2365 143.185C74.2418 143.18 74.2468 143.174 74.2517 143.169C74.26 143.16 74.2681 143.151 74.2765 143.142C74.096 143.036 73.9041 143 73.7019 143C71.1801 143.001 68.6582 143.001 66.1364 143C65.9341 143 65.7423 143.037 65.5539 143.147ZM65.1635 143.519C65.0546 143.696 65.0016 143.877 65.0015 144.071L65.0008 145.145C64.9999 146.397 64.999 147.649 65.0027 148.901C65.0046 149.537 65.4747 149.998 66.119 149.998C67.696 150 69.273 150 70.85 150H70.8684C71.8182 150 72.7681 150 73.7179 150C73.9214 150 74.1127 149.957 74.2862 149.854C74.6544 149.635 74.8354 149.308 74.8369 148.886C74.8382 148.566 74.8379 148.246 74.8376 147.926L74.8374 147.524L74.8374 146.597V146.592C74.8373 145.773 74.8372 144.953 74.8376 144.134C74.8376 143.917 74.7974 143.711 74.6748 143.521L74.657 143.536C74.6447 143.547 74.6338 143.556 74.6234 143.566C74.1632 143.994 73.7031 144.423 73.243 144.851L73.2219 144.871C72.5945 145.455 71.967 146.04 71.3392 146.624C71.3118 146.65 71.2845 146.675 71.2574 146.701L71.1945 146.762L71.1944 146.762C71.0602 146.891 70.9259 147.021 70.7763 147.13C70.1991 147.549 69.4456 147.501 68.9214 147.015C68.0629 146.22 67.207 145.422 66.3511 144.624L66.3465 144.62L65.5034 143.834C65.4028 143.74 65.3021 143.647 65.1974 143.55L65.1921 143.545L65.1635 143.519ZM66.2672 197.95L69.5 196.25L72.7328 197.95L72.1154 194.35L74.7308 191.8L71.1164 191.275L69.5 188L67.8836 191.275L64.2692 191.8L66.8846 194.35L66.2672 197.95ZM67.3786 121.587L67.3921 121.575L67.3923 121.575C67.3983 121.57 67.4038 121.565 67.4091 121.561C67.4125 121.558 67.4157 121.555 67.4191 121.553L67.644 121.377C67.828 121.234 68.0119 121.09 68.1953 120.947C68.4681 120.732 68.5319 120.435 68.3726 120.126C68.2765 119.939 68.1795 119.752 68.0827 119.565L68.0151 119.435L67.8797 119.174L67.8796 119.174C67.7376 118.901 67.5956 118.628 67.4549 118.354C67.3842 118.216 67.2865 118.106 67.1411 118.049C66.9429 117.971 66.751 117.984 66.5704 118.104C66.2512 118.317 65.9317 118.53 65.6123 118.742L65.6116 118.742L65.4241 118.867C65.1435 119.054 64.9813 119.315 65.0017 119.654C65.0217 119.985 65.052 120.32 65.1226 120.643C65.2856 121.39 65.6031 122.077 66.0011 122.726C66.825 124.069 67.909 125.156 69.2503 125.981C70.1699 126.546 71.1485 126.949 72.2464 126.999C72.6306 127.016 72.9312 126.882 73.1449 126.561C73.2359 126.424 73.3264 126.287 73.4168 126.149L73.4186 126.147L73.5772 125.906C73.6067 125.861 73.6364 125.817 73.6661 125.772L73.6663 125.772C73.742 125.658 73.8178 125.544 73.8911 125.428C74.1017 125.097 73.9987 124.712 73.6529 124.533L73.6511 124.532L73.6499 124.531L73.6493 124.531L73.6487 124.531C73.0511 124.222 72.4535 123.914 71.855 123.607C71.5485 123.45 71.2605 123.516 71.0493 123.787C70.921 123.952 70.7922 124.117 70.6635 124.281L70.6584 124.287C70.5728 124.397 70.4871 124.507 70.3979 124.621C69.0775 123.919 68.0663 122.92 67.3786 121.587ZM70.672 165C71.6356 165 72.389 165.204 72.8057 165.679C73.1844 166.11 73.2897 166.586 73.1851 167.287C73.1851 167.287 73.1674 167.394 73.1565 167.45C72.7878 169.344 71.5256 169.999 69.9137 169.999H69.0931C68.8962 169.999 68.7299 170.143 68.699 170.337L68.2788 173.001H66.5521C66.4045 173.001 66.2917 172.87 66.3148 172.724L67.4794 165.338C67.5103 165.143 67.6779 165 67.875 165H70.672ZM73.6222 167.645C73.2213 169.51 71.9424 170.497 69.9137 170.497H69.1778L68.629 174H69.8226C69.9949 174 70.1415 173.875 70.1684 173.704L70.1826 173.63L70.4569 171.892L70.4746 171.796C70.5015 171.626 70.6481 171.5 70.8204 171.5H71.0382C72.4483 171.5 73.5524 170.927 73.875 169.27C74.0043 168.606 73.9423 168.048 73.6222 167.645Z" fill="#fff"/><path opacity=".828" d="M176.045 213H177.355L174.595 205.91H173.205L170.445 213H171.715L172.375 211.22H175.375L176.045 213ZM173.875 207.21L174.955 210.11H172.795L173.875 207.21ZM178.886 210.55C178.886 209.62 179.446 209.03 180.206 209.03C180.966 209.03 181.486 209.61 181.486 210.54C181.486 211.47 180.956 212.1 180.196 212.1C179.406 212.1 178.886 211.48 178.886 210.55ZM182.606 205.76H181.476V208.7C181.326 208.39 180.896 208 180.046 208C178.676 208 177.726 209.15 177.726 210.55C177.726 212.02 178.666 213.12 180.066 213.12C180.756 213.12 181.266 212.78 181.496 212.37C181.496 212.57 181.526 212.89 181.546 213H182.656C182.646 212.92 182.606 212.55 182.606 212.11V205.76ZM184.902 210.55C184.902 209.62 185.462 209.03 186.222 209.03C186.982 209.03 187.502 209.61 187.502 210.54C187.502 211.47 186.972 212.1 186.212 212.1C185.422 212.1 184.902 211.48 184.902 210.55ZM188.622 205.76H187.492V208.7C187.342 208.39 186.912 208 186.062 208C184.692 208 183.742 209.15 183.742 210.55C183.742 212.02 184.682 213.12 186.082 213.12C186.772 213.12 187.282 212.78 187.512 212.37C187.512 212.57 187.542 212.89 187.562 213H188.672C188.662 212.92 188.622 212.55 188.622 212.11V205.76ZM194.098 214.97L197.198 208.13H195.968L194.658 211.21L193.258 208.13H191.948L194.028 212.42L192.858 214.97H194.098ZM199.963 212.11C199.253 212.11 198.603 211.57 198.603 210.56C198.603 209.55 199.253 209.03 199.963 209.03C200.683 209.03 201.323 209.55 201.323 210.56C201.323 211.58 200.683 212.11 199.963 212.11ZM199.963 207.98C198.513 207.98 197.443 209.07 197.443 210.56C197.443 212.06 198.513 213.15 199.963 213.15C201.423 213.15 202.493 212.06 202.493 210.56C202.493 209.07 201.423 207.98 199.963 207.98ZM206.755 212.46C206.755 212.66 206.775 212.89 206.795 213H207.905C207.885 212.82 207.855 212.51 207.855 212.11V208.13H206.695V211.01C206.695 211.65 206.345 212.1 205.675 212.1C204.975 212.1 204.695 211.59 204.695 210.99V208.13H203.535V211.2C203.535 212.28 204.215 213.14 205.375 213.14C205.945 213.14 206.515 212.9 206.755 212.46ZM212.206 208.1C212.156 208.09 212.036 208.07 211.896 208.07C211.256 208.07 210.716 208.38 210.486 208.91V208.13H209.356V213H210.516V210.68C210.516 209.77 210.926 209.25 211.826 209.25C211.946 209.25 212.076 209.26 212.206 209.28V208.1ZM217.796 206.75C218.016 206.75 218.146 206.78 218.216 206.8V205.81C218.136 205.77 217.896 205.71 217.606 205.71C216.606 205.71 215.906 206.37 215.906 207.46V208.13H215.056V209.14H215.906V213H217.076V209.14H218.206V208.13H217.076V207.49C217.076 206.89 217.486 206.75 217.796 206.75ZM221.125 212.11C220.415 212.11 219.765 211.57 219.765 210.56C219.765 209.55 220.415 209.03 221.125 209.03C221.845 209.03 222.485 209.55 222.485 210.56C222.485 211.58 221.845 212.11 221.125 212.11ZM221.125 207.98C219.675 207.98 218.605 209.07 218.605 210.56C218.605 212.06 219.675 213.15 221.125 213.15C222.585 213.15 223.655 212.06 223.655 210.56C223.655 209.07 222.585 207.98 221.125 207.98ZM227.626 208.1C227.576 208.09 227.456 208.07 227.316 208.07C226.676 208.07 226.136 208.38 225.906 208.91V208.13H224.776V213H225.936V210.68C225.936 209.77 226.346 209.25 227.246 209.25C227.366 209.25 227.496 209.26 227.626 209.28V208.1ZM229.745 213V210.11C229.745 209.49 230.135 209.03 230.755 209.03C231.415 209.03 231.695 209.47 231.695 210.03V213H232.835V210.11C232.835 209.51 233.235 209.03 233.845 209.03C234.495 209.03 234.785 209.46 234.785 210.03V213H235.905V209.84C235.905 208.55 235.065 207.99 234.185 207.99C233.555 207.99 232.985 208.21 232.605 208.85C232.345 208.28 231.785 207.99 231.145 207.99C230.595 207.99 229.985 208.25 229.705 208.75V208.13H228.595V213H229.745ZM244.336 214.9V208.13H243.226V208.78C243.056 208.43 242.586 208.01 241.736 208.01C240.316 208.01 239.426 209.15 239.426 210.55C239.426 212 240.376 213.12 241.766 213.12C242.446 213.12 242.956 212.85 243.196 212.42V214.9H244.336ZM240.596 210.55C240.596 209.62 241.126 209.04 241.896 209.04C242.656 209.04 243.206 209.62 243.206 210.55C243.206 211.48 242.656 212.1 241.896 212.1C241.136 212.1 240.596 211.48 240.596 210.55ZM248.933 212.46C248.933 212.66 248.953 212.89 248.973 213H250.083C250.063 212.82 250.033 212.51 250.033 212.11V208.13H248.873V211.01C248.873 211.65 248.523 212.1 247.853 212.1C247.153 212.1 246.873 211.59 246.873 210.99V208.13H245.713V211.2C245.713 212.28 246.393 213.14 247.553 213.14C248.123 213.14 248.693 212.9 248.933 212.46ZM252.315 210.03C252.355 209.51 252.775 208.95 253.505 208.95C254.305 208.95 254.685 209.46 254.705 210.03H252.315ZM254.835 211.3C254.675 211.78 254.315 212.15 253.615 212.15C252.895 212.15 252.315 211.62 252.285 210.88H255.845C255.855 210.86 255.875 210.7 255.875 210.51C255.875 208.97 254.995 207.98 253.495 207.98C252.265 207.98 251.125 209 251.125 210.54C251.125 212.19 252.295 213.15 253.615 213.15C254.785 213.15 255.555 212.46 255.815 211.61L254.835 211.3ZM256.553 211.68C256.613 212.23 257.153 213.15 258.563 213.15C259.803 213.15 260.403 212.33 260.403 211.59C260.403 210.87 259.923 210.31 259.003 210.11L258.263 209.96C257.963 209.9 257.773 209.71 257.773 209.45C257.773 209.15 258.063 208.89 258.473 208.89C259.123 208.89 259.333 209.34 259.373 209.62L260.353 209.34C260.273 208.86 259.833 207.98 258.473 207.98C257.463 207.98 256.683 208.7 256.683 209.55C256.683 210.22 257.133 210.78 257.993 210.97L258.713 211.13C259.103 211.21 259.283 211.41 259.283 211.67C259.283 211.97 259.033 212.23 258.553 212.23C257.933 212.23 257.603 211.84 257.563 211.4L256.553 211.68ZM263.024 206.64H261.974V207.37C261.974 207.8 261.744 208.13 261.224 208.13H260.974V209.16H261.874V211.61C261.874 212.52 262.434 213.06 263.334 213.06C263.754 213.06 263.974 212.98 264.044 212.95V211.99C263.994 212 263.804 212.03 263.644 212.03C263.214 212.03 263.024 211.85 263.024 211.42V209.16H264.034V208.13H263.024V206.64ZM266.376 213V208.13H265.226V213H266.376ZM265.046 206.42C265.046 206.84 265.386 207.17 265.796 207.17C266.216 207.17 266.556 206.84 266.556 206.42C266.556 206 266.216 205.66 265.796 205.66C265.386 205.66 265.046 206 265.046 206.42ZM270.012 212.11C269.302 212.11 268.652 211.57 268.652 210.56C268.652 209.55 269.302 209.03 270.012 209.03C270.732 209.03 271.372 209.55 271.372 210.56C271.372 211.58 270.732 212.11 270.012 212.11ZM270.012 207.98C268.562 207.98 267.492 209.07 267.492 210.56C267.492 212.06 268.562 213.15 270.012 213.15C271.472 213.15 272.542 212.06 272.542 210.56C272.542 209.07 271.472 207.98 270.012 207.98ZM274.823 210.19C274.823 209.55 275.173 209.04 275.833 209.04C276.563 209.04 276.833 209.52 276.833 210.12V213H277.993V209.92C277.993 208.85 277.423 207.99 276.233 207.99C275.693 207.99 275.113 208.22 274.793 208.78V208.13H273.663V213H274.823V210.19ZM189.787 221.13L188.637 224.5L187.647 221.13H186.407L187.987 226H189.177L190.357 222.5L191.567 226H192.727L194.287 221.13H193.107L192.137 224.5L190.987 221.13H189.787ZM196.322 226V221.13H195.172V226H196.322ZM194.992 219.42C194.992 219.84 195.332 220.17 195.742 220.17C196.162 220.17 196.502 219.84 196.502 219.42C196.502 219 196.162 218.66 195.742 218.66C195.332 218.66 194.992 219 194.992 219.42ZM199.288 219.64H198.238V220.37C198.238 220.8 198.008 221.13 197.488 221.13H197.238V222.16H198.138V224.61C198.138 225.52 198.698 226.06 199.598 226.06C200.018 226.06 200.238 225.98 200.308 225.95V224.99C200.258 225 200.068 225.03 199.908 225.03C199.478 225.03 199.288 224.85 199.288 224.42V222.16H200.298V221.13H199.288V219.64ZM202.514 223.14C202.534 222.52 202.884 222.04 203.524 222.04C204.254 222.04 204.524 222.52 204.524 223.12V226H205.684V222.92C205.684 221.85 205.104 220.99 203.904 220.99C203.394 220.99 202.844 221.17 202.514 221.6V218.76H201.354V226H202.514V223.14ZM210.356 223.55C210.356 222.62 210.916 222.03 211.676 222.03C212.436 222.03 212.956 222.61 212.956 223.54C212.956 224.47 212.426 225.1 211.666 225.1C210.876 225.1 210.356 224.48 210.356 223.55ZM214.076 218.76H212.946V221.7C212.796 221.39 212.366 221 211.516 221C210.146 221 209.196 222.15 209.196 223.55C209.196 225.02 210.136 226.12 211.536 226.12C212.226 226.12 212.736 225.78 212.966 225.37C212.966 225.57 212.996 225.89 213.016 226H214.126C214.116 225.92 214.076 225.55 214.076 225.11V218.76ZM218.442 221.1C218.392 221.09 218.272 221.07 218.132 221.07C217.492 221.07 216.952 221.38 216.722 221.91V221.13H215.592V226H216.752V223.68C216.752 222.77 217.162 222.25 218.062 222.25C218.182 222.25 218.312 222.26 218.442 222.28V221.1ZM219.12 224.68C219.12 225.45 219.75 226.15 220.77 226.15C221.56 226.15 222.04 225.75 222.27 225.38C222.27 225.77 222.31 225.97 222.32 226H223.4C223.39 225.95 223.34 225.66 223.34 225.22V222.8C223.34 221.83 222.77 220.98 221.27 220.98C220.07 220.98 219.31 221.73 219.22 222.57L220.28 222.81C220.33 222.32 220.67 221.93 221.28 221.93C221.92 221.93 222.2 222.26 222.2 222.67C222.2 222.84 222.12 222.98 221.84 223.02L220.59 223.21C219.76 223.33 219.12 223.81 219.12 224.68ZM220.99 225.24C220.53 225.24 220.28 224.94 220.28 224.61C220.28 224.21 220.57 224.01 220.93 223.95L222.2 223.76V223.98C222.2 224.93 221.64 225.24 220.99 225.24ZM224.382 226.27C224.512 227.25 225.412 228.05 226.702 228.05C228.532 228.05 229.202 226.84 229.202 225.54V221.13H228.082V221.75C227.872 221.35 227.402 221.04 226.642 221.04C225.302 221.04 224.392 222.11 224.392 223.41C224.392 224.78 225.342 225.78 226.642 225.78C227.352 225.78 227.842 225.45 228.052 225.07V225.58C228.052 226.57 227.592 227.04 226.672 227.04C226.002 227.04 225.532 226.59 225.452 225.99L224.382 226.27ZM226.832 224.79C226.072 224.79 225.562 224.26 225.562 223.41C225.562 222.58 226.092 222.04 226.832 222.04C227.552 222.04 228.082 222.58 228.082 223.41C228.082 224.25 227.572 224.79 226.832 224.79ZM237.481 226H239.031L237.431 224.33L238.401 223.26V221.76L236.711 223.58L235.531 222.35L235.841 222.12C236.341 221.74 236.841 221.22 236.841 220.52C236.841 219.46 236.011 218.76 234.901 218.76C233.981 218.76 233.001 219.4 233.001 220.57C233.001 221.23 233.471 221.78 233.811 222.13L233.931 222.26L233.861 222.31C233.121 222.86 232.631 223.36 232.631 224.27C232.631 225.2 233.371 226.13 234.741 226.13C235.511 226.13 236.131 225.75 236.681 225.16L237.481 226ZM234.761 225.08C234.181 225.08 233.821 224.63 233.821 224.19C233.821 223.73 234.061 223.44 234.401 223.19L234.641 223.01L235.951 224.4L235.941 224.41C235.581 224.8 235.231 225.08 234.761 225.08ZM234.141 220.5C234.141 219.99 234.541 219.74 234.911 219.74C235.371 219.74 235.701 220.08 235.701 220.5C235.701 220.77 235.591 221.03 235.221 221.31L234.811 221.61L234.611 221.39C234.361 221.12 234.141 220.84 234.141 220.5ZM242.641 223.55C242.641 222.62 243.201 222.03 243.961 222.03C244.721 222.03 245.241 222.61 245.241 223.54C245.241 224.47 244.711 225.1 243.951 225.1C243.161 225.1 242.641 224.48 242.641 223.55ZM246.361 218.76H245.231V221.7C245.081 221.39 244.651 221 243.801 221C242.431 221 241.481 222.15 241.481 223.55C241.481 225.02 242.421 226.12 243.821 226.12C244.511 226.12 245.021 225.78 245.251 225.37C245.251 225.57 245.281 225.89 245.301 226H246.411C246.401 225.92 246.361 225.55 246.361 225.11V218.76ZM250.727 221.1C250.677 221.09 250.557 221.07 250.417 221.07C249.777 221.07 249.237 221.38 249.007 221.91V221.13H247.877V226H249.037V223.68C249.037 222.77 249.447 222.25 250.347 222.25C250.467 222.25 250.597 222.26 250.727 222.28V221.1ZM253.786 225.11C253.076 225.11 252.426 224.57 252.426 223.56C252.426 222.55 253.076 222.03 253.786 222.03C254.506 222.03 255.146 222.55 255.146 223.56C255.146 224.58 254.506 225.11 253.786 225.11ZM253.786 220.98C252.336 220.98 251.266 222.07 251.266 223.56C251.266 225.06 252.336 226.15 253.786 226.15C255.246 226.15 256.316 225.06 256.316 223.56C256.316 222.07 255.246 220.98 253.786 220.98ZM258.588 227.9V225.45C258.838 225.82 259.368 226.12 260.068 226.12C261.468 226.12 262.358 225.02 262.358 223.56C262.358 222.12 261.548 221.02 260.108 221.02C259.358 221.02 258.798 221.37 258.558 221.79V221.13H257.438V227.9H258.588ZM261.198 223.56C261.198 224.49 260.658 225.09 259.888 225.09C259.128 225.09 258.578 224.49 258.578 223.56C258.578 222.65 259.128 222.05 259.888 222.05C260.668 222.05 261.198 222.65 261.198 223.56Z" fill="#09F"/><path fill-rule="evenodd" clip-rule="evenodd" d="M233.167 183.167H224.833V174.833C224.833 174.373 224.46 174 224 174C223.54 174 223.167 174.373 223.167 174.833V183.167H214.833C214.373 183.167 214 183.54 214 184C214 184.46 214.373 184.833 214.833 184.833H223.167V193.167C223.167 193.627 223.54 194 224 194C224.46 194 224.833 193.627 224.833 193.167V184.833H233.167C233.627 184.833 234 184.46 234 184C234 183.54 233.627 183.167 233.167 183.167Z" fill="#09F" stroke="#09F"/><path d="M149 67.5H301" stroke="#E6EBF5"/><g style="mix-blend-mode:multiply" opacity=".45" filter="url(#customize-forms-2_svg__b)"><path d="M190.5 154H125.5C118.044 154 112 160.044 112 167.5C112 174.956 118.044 181 125.5 181H190.5C197.956 181 204 174.956 204 167.5C204 160.044 197.956 154 190.5 154Z" fill="#2D3D93"/></g><path d="M187.5 158H123.5C116.044 158 110 164.044 110 171.5C110 178.956 116.044 185 123.5 185H187.5C194.956 185 201 178.956 201 171.5C201 164.044 194.956 158 187.5 158Z" fill="#09F"/><path fill-rule="evenodd" clip-rule="evenodd" d="M122.763 170.222C122.744 170.237 122.726 170.253 122.7 170.274C123.77 172.339 125.343 173.887 127.397 174.974C127.538 174.794 127.674 174.621 127.81 174.448L128.41 173.683C128.739 173.262 129.187 173.16 129.663 173.403C130.477 173.819 131.289 174.236 132.101 174.653L132.46 174.838C132.998 175.114 133.158 175.71 132.831 176.223C132.72 176.396 132.606 176.568 132.492 176.739C132.442 176.814 132.392 176.888 132.342 176.963C132.256 177.092 132.171 177.222 132.085 177.351C131.947 177.56 131.809 177.769 131.67 177.978C131.337 178.476 130.87 178.682 130.272 178.656C128.564 178.578 127.042 177.955 125.612 177.08C123.525 175.802 121.839 174.118 120.557 172.038C119.938 171.034 119.444 169.969 119.191 168.813C119.081 168.312 119.034 167.794 119.003 167.281C118.971 166.756 119.223 166.352 119.66 166.063C119.889 165.911 120.118 165.76 120.347 165.608C120.712 165.366 121.078 165.124 121.443 164.881C121.724 164.695 122.022 164.674 122.331 164.796C122.557 164.884 122.709 165.054 122.819 165.267C123.045 165.707 123.274 166.145 123.503 166.583C123.565 166.703 123.628 166.823 123.69 166.942L123.787 167.129C123.941 167.424 124.094 167.718 124.246 168.012C124.494 168.491 124.395 168.951 123.97 169.283C123.569 169.597 123.166 169.909 122.763 170.222ZM144.632 168.035V171.437H146.62C147.81 171.437 148.538 170.779 148.538 169.757C148.538 168.707 147.81 168.035 146.62 168.035H144.632ZM149.938 169.743C149.938 171.423 148.706 172.669 146.872 172.669H144.632V176.729H143.26V166.803H146.872C148.706 166.803 149.938 168.077 149.938 169.743ZM154.221 170.989C153.213 170.989 152.681 171.773 152.653 172.767V176.729H151.337V166.593H152.653V170.779C153.143 170.065 153.927 169.799 154.697 169.799C156.307 169.799 157.105 170.961 157.105 172.459V176.729H155.789V172.683C155.789 171.745 155.397 170.989 154.221 170.989ZM159.982 173.355C159.982 174.923 160.962 175.763 162.082 175.763C163.202 175.763 164.182 174.923 164.182 173.355C164.182 171.801 163.202 170.961 162.082 170.961C160.962 170.961 159.982 171.801 159.982 173.355ZM158.638 173.355C158.638 171.311 160.066 169.785 162.082 169.785C164.098 169.785 165.526 171.311 165.526 173.355C165.526 175.413 164.098 176.939 162.082 176.939C160.066 176.939 158.638 175.413 158.638 173.355ZM170.094 170.989C169.058 170.989 168.526 171.815 168.526 172.837V176.729H167.21V169.995H168.498V170.961C168.988 170.121 169.786 169.799 170.57 169.799C172.18 169.799 172.978 170.961 172.978 172.459V176.729H171.662V172.683C171.662 171.745 171.27 170.989 170.094 170.989ZM177.759 170.947C176.653 170.947 175.981 171.801 175.925 172.669H179.607C179.579 171.703 178.949 170.947 177.759 170.947ZM177.913 175.777C179.005 175.777 179.551 175.175 179.803 174.419L180.937 174.811C180.559 176.001 179.481 176.939 177.913 176.939C176.107 176.939 174.525 175.623 174.525 173.341C174.525 171.227 176.051 169.785 177.745 169.785C179.817 169.785 180.979 171.213 180.979 173.313C180.979 173.481 180.965 173.649 180.951 173.733H175.883C175.911 174.937 176.779 175.777 177.913 175.777Z" fill="#fff"/><path fill-rule="evenodd" clip-rule="evenodd" d="M200.311 190.309C193.519 184.964 189.492 182.064 188.228 181.609C186.331 180.928 179.244 176.488 176.758 176.618C174.271 176.748 173.817 178.747 175.387 179.589C176.957 180.432 183.126 183.747 183.126 183.747C183.126 183.747 182.194 185.153 182.259 186.394C182.324 187.634 180.502 186.486 179.754 189.122C179.006 191.759 178.936 190.425 178.525 192.312C178.114 194.199 186.822 197.106 189.021 196.755C190.488 196.521 192.739 197.967 195.774 201.094L200.311 190.309Z" fill="#CD7448"/><mask id="customize-forms-2_svg__c" style="mask-type:alpha" maskUnits="userSpaceOnUse" x="262" y="236" width="42" height="205"><path d="M265.044 369.427C278.429 396.636 296.488 426.996 293.637 435.015C290.786 443.033 297.824 439.809 301.089 438.606C304.354 437.402 298.431 398.604 293.879 384.949C289.327 371.293 282.689 365.951 283.025 360.894C283.141 359.134 299.557 286.605 302.694 267.24C304.609 255.413 303.795 252.383 300.25 258.15C286.331 239.042 278.587 232.736 277.019 239.232C266.561 282.559 264.687 330.981 262.3 356.012C261.73 361.993 264.022 367.348 265.044 369.427Z" fill="#fff"/></mask><g mask="url(#customize-forms-2_svg__c)"><path d="M265.044 369.427C278.429 396.636 296.488 426.996 293.637 435.015C290.786 443.033 297.824 439.809 301.089 438.606C304.354 437.402 298.431 398.604 293.879 384.949C289.327 371.293 282.689 365.951 283.025 360.894C283.141 359.134 299.557 286.605 302.694 267.24C304.609 255.413 303.795 252.383 300.25 258.15C286.331 239.042 278.587 232.736 277.019 239.232C266.561 282.559 264.687 330.981 262.3 356.012C261.73 361.993 264.022 367.348 265.044 369.427Z" fill="#0D1430"/><path opacity=".161" d="M293.42 278.819C283.286 324.649 278.195 348.897 278.149 351.564C278.079 355.563 278.904 365.579 281.816 370.631C284.729 375.682 293.483 389.837 296.133 409.886" stroke="#fff" stroke-linecap="round" stroke-linejoin="round" stroke-dasharray="4 4"/><path opacity=".395" fill-rule="evenodd" clip-rule="evenodd" d="M292.162 296.872C290.527 290.253 289.675 287.061 289.604 287.299C289.533 287.537 284.596 310.137 274.793 355.099C273.79 360.526 273.727 364.154 274.603 365.984C275.918 368.73 294.539 394.917 298.174 420.842C300.598 438.125 302.43 437.25 303.671 418.215L289.754 356.721L297.302 314.657L292.162 296.872Z" fill="#0D1430"/></g><mask id="customize-forms-2_svg__d" style="mask-type:alpha" maskUnits="userSpaceOnUse" x="287" y="230" width="44" height="216"><path d="M326.182 295.688C323.196 307.991 311.103 355.846 313.908 363.651C323.161 389.394 314.41 411.58 309.921 433.249C309.166 436.898 310.573 438.62 310.448 439.316C308.456 450.356 299.965 443.836 298.669 443.084C297.373 442.332 301.016 440.027 301.086 436.009C301.128 433.582 303.464 396.517 295.252 364.116C294.288 360.313 293.859 355.366 293.965 349.274C290.607 307.182 288.97 283.718 289.054 278.883C289.181 271.631 286.939 248.053 288.277 244.021C297.393 216.535 310.815 237.725 321.53 244.601C335.236 253.396 331.105 275.411 326.182 295.688Z" fill="#fff"/></mask><g mask="url(#customize-forms-2_svg__d)"><path d="M326.182 295.688C323.196 307.991 311.103 355.846 313.908 363.651C323.161 389.394 314.41 411.58 309.921 433.249C309.166 436.898 310.573 438.62 310.448 439.316C308.456 450.356 299.965 443.836 298.669 443.084C297.373 442.332 301.016 440.027 301.086 436.009C301.128 433.582 303.464 396.517 295.252 364.116C294.288 360.313 293.859 355.366 293.965 349.274C290.607 307.182 288.97 283.718 289.054 278.883C289.181 271.631 286.939 248.053 288.277 244.021C297.393 216.535 310.815 237.725 321.53 244.601C335.236 253.396 331.105 275.411 326.182 295.688Z" fill="url(#customize-forms-2_svg__e)"/><path fill-rule="evenodd" clip-rule="evenodd" d="M335.512 256.321C334.845 258.988 331.512 260.988 325.512 262.321C325.648 271.589 327.687 276.378 331.629 276.688C335.572 276.999 336.866 270.21 335.512 256.321Z" fill="#010206"/><path opacity=".161" d="M323.416 279.343C313.281 325.173 308.191 349.421 308.144 352.087C308.074 356.087 308.899 366.103 311.812 371.154C314.724 376.206 313.096 412.183 306.922 422.077" stroke="#fff" stroke-linecap="round" stroke-linejoin="round" stroke-dasharray="4 4"/></g><mask id="customize-forms-2_svg__f" style="mask-type:alpha" maskUnits="userSpaceOnUse" x="288" y="193" width="59" height="48"><path d="M343.858 205.002L300.743 193.449C299.143 193.02 297.498 193.97 297.069 195.57L289.048 225.505C288.619 227.105 289.569 228.75 291.169 229.179L334.285 240.732C335.885 241.16 337.53 240.211 337.959 238.61L345.98 208.676C346.408 207.076 345.459 205.431 343.858 205.002Z" fill="#fff"/></mask><g mask="url(#customize-forms-2_svg__f)"><path d="M340.126 203.715L297.011 192.162C295.411 191.733 293.766 192.683 293.337 194.284L285.316 224.218C284.887 225.818 285.837 227.463 287.437 227.892L330.552 239.445C332.153 239.874 333.798 238.924 334.227 237.323L342.247 207.389C342.676 205.789 341.726 204.144 340.126 203.715Z" fill="#111842"/></g><mask id="customize-forms-2_svg__g" style="mask-type:alpha" maskUnits="userSpaceOnUse" x="191" y="149" width="139" height="111"><path d="M329.921 250.452C325.295 230.661 323.55 216.043 324.685 206.598C328.195 177.411 324.796 170.499 323.58 155.327C322.869 146.455 305.65 150.509 298.147 150.715C291.038 150.91 283.25 147.082 273.398 157.247C255.761 175.445 244.799 190.029 239.576 194.438C234.353 198.847 201.08 191.42 197.985 186.035L191.887 200.2C212.295 210.12 225.072 215.351 230.218 215.892C237.937 216.703 244.735 223.871 269.397 195.317C268.25 199.719 267.889 203.151 268.314 205.614C269.107 210.209 273.808 214.511 275.681 220.67C277.556 226.835 276.78 237.869 275.628 245.158C274.273 253.732 281.56 257.195 294.671 258.573C307.783 259.951 324.433 261.272 329.921 250.452Z" fill="#fff"/></mask><g mask="url(#customize-forms-2_svg__g)"><path d="M329.921 250.452C325.295 230.661 323.55 216.043 324.685 206.598C328.195 177.411 324.796 170.499 323.58 155.327C322.869 146.455 305.65 150.509 298.147 150.715C291.038 150.91 283.25 147.082 273.398 157.247C255.761 175.445 244.799 190.029 239.576 194.438C234.353 198.847 201.08 191.42 197.985 186.035L191.887 200.2C212.295 210.12 225.072 215.351 230.218 215.892C237.937 216.703 244.735 223.871 269.397 195.317C268.25 199.719 267.889 203.151 268.314 205.614C269.107 210.209 273.808 214.511 275.681 220.67C277.556 226.835 276.78 237.869 275.628 245.158C274.273 253.732 281.56 257.195 294.671 258.573C307.783 259.951 324.433 261.272 329.921 250.452Z" fill="url(#customize-forms-2_svg__h)"/><path fill-rule="evenodd" clip-rule="evenodd" d="M266.577 198.75L272.524 255.935C283.393 239.898 288.821 229.408 288.807 224.464C288.739 200.563 280.096 185.99 279.925 185.516C279.701 184.896 275.252 189.307 266.577 198.75Z" fill="url(#customize-forms-2_svg__i)"/></g><mask id="customize-forms-2_svg__j" style="mask-type:alpha" maskUnits="userSpaceOnUse" x="267" y="103" width="48" height="52"><path d="M269.541 112.941C269.117 116.698 268.488 120.801 267.652 125.25C266.398 131.923 269.556 141.739 275.442 145.443C278.64 147.455 282.991 147.096 288.494 144.366C289.327 143.953 291.023 146.953 293.583 153.368C310.609 155.399 317.355 154.212 313.821 149.807C310.287 145.402 306.558 137.624 302.635 126.472L295.309 103.937L269.689 108.681L269.541 112.941Z" fill="#fff"/></mask><g mask="url(#customize-forms-2_svg__j)"><path d="M269.541 112.941C269.117 116.698 268.488 120.801 267.652 125.25C266.398 131.923 269.556 141.739 275.442 145.443C278.64 147.455 282.991 147.096 288.494 144.366C289.327 143.953 291.023 146.953 293.583 153.368C310.609 155.399 317.355 154.212 313.821 149.807C310.287 145.402 306.558 137.624 302.635 126.472L295.309 103.937L269.689 108.681L269.541 112.941Z" fill="#CD7448"/><path fill-rule="evenodd" clip-rule="evenodd" d="M288.528 144.486C292.563 141.454 295.144 138.557 296.272 135.793C297.963 131.647 293.067 145.463 289.75 147.232C287.539 148.412 287.132 147.496 288.528 144.486Z" fill="#C69076"/><path d="M272.838 122.381C272.609 122.967 272.158 123.869 271.483 125.088C270.808 126.308 269.816 127.32 268.505 128.126C269.058 129.485 270.367 130.479 272.431 131.111" stroke="#9C3D0D" stroke-linecap="round" stroke-linejoin="round"/><path fill-rule="evenodd" clip-rule="evenodd" d="M271.359 121.536C271.324 122.553 270.898 123.363 270.407 123.346C269.917 123.329 269.548 122.491 269.584 121.474C269.619 120.457 270.046 119.647 270.536 119.664C271.026 119.681 271.395 120.519 271.359 121.536ZM279.576 122.745C279.541 123.762 279.064 124.57 278.513 124.551C277.961 124.532 277.542 123.692 277.577 122.675C277.613 121.658 278.089 120.849 278.641 120.869C279.193 120.888 279.612 121.728 279.576 122.745Z" fill="#0A1551"/><path fill-rule="evenodd" clip-rule="evenodd" d="M270.996 135.435C273.377 136.661 275.867 136.748 278.464 135.695C277.511 139.229 276.029 140.719 274.018 140.166C272.118 139.642 271.231 136.842 270.996 135.435C270.77 134.085 270.77 134.085 270.996 135.435Z" fill="#87220C"/><path opacity=".647" d="M282.852 133.876C286.248 133.994 289.053 132.589 289.118 130.737C289.183 128.884 286.482 127.286 283.086 127.168C279.69 127.049 276.885 128.455 276.82 130.307C276.756 132.159 279.456 133.757 282.852 133.876Z" fill="#B14B18"/></g><path fill-rule="evenodd" clip-rule="evenodd" d="M269.063 110.594C270.343 112.646 275.975 117.164 287.913 111.5C288.5 119.5 289.5 120.5 291.893 121.855C293.916 123 294.5 117.5 298.512 118.823C302.663 125.354 294.174 128.458 294.174 128.458C294.174 128.458 270.238 150.197 283.739 174.369C297.239 198.541 325 189 330 180C336 170.5 329.704 139.871 321.853 117.164C316.646 102.105 307.883 96.192 304 94.9999C295.5 92.3907 294.5 92.0001 284.913 92.8559C274.372 94.7918 269.088 101.371 269.063 110.594Z" fill="#771D0B"/><path fill-rule="evenodd" clip-rule="evenodd" d="M269.338 116.012C269.064 115.981 268.817 116.179 268.786 116.454C268.756 116.728 268.953 116.975 269.228 117.006C269.919 117.083 270.725 117.431 271.646 118.353C271.842 118.549 272.158 118.549 272.354 118.353C272.549 118.158 272.549 117.842 272.354 117.646C271.309 116.602 270.303 116.119 269.338 116.012ZM276.743 118.937L276.771 118.922L276.771 118.922C277.532 118.499 278.303 118.071 279.167 117.999C279.995 117.93 280.981 118.189 282.146 119.354C282.342 119.549 282.658 119.549 282.854 119.354C283.049 119.159 283.049 118.842 282.854 118.647C281.519 117.312 280.255 116.904 279.083 117.002C278.002 117.092 277.064 117.614 276.344 118.015L276.257 118.063C276.016 118.197 275.929 118.502 276.063 118.743C276.197 118.984 276.501 119.071 276.743 118.937Z" fill="#771D0B" fill-opacity=".49"/></g><defs><linearGradient id="customize-forms-2_svg__e" x1="306.576" y1="416.534" x2="303.012" y2="267.322" gradientUnits="userSpaceOnUse"><stop stop-color="#5553BD"/><stop offset="1" stop-color="#0D1431"/></linearGradient><linearGradient id="customize-forms-2_svg__h" x1="325.064" y1="236.849" x2="246.143" y2="200.375" gradientUnits="userSpaceOnUse"><stop stop-color="#BA4DDF"/><stop offset="1" stop-color="#9B27C2"/></linearGradient><linearGradient id="customize-forms-2_svg__i" x1="286.011" y1="204.322" x2="290.893" y2="203.096" gradientUnits="userSpaceOnUse"><stop stop-color="#9B27C2"/><stop offset="1" stop-color="#B445D9"/></linearGradient><filter id="customize-forms-2_svg__b" x="107" y="149" width="102" height="37" filterUnits="userSpaceOnUse" color-interpolation-filters="sRGB"><feFlood flood-opacity="0" result="BackgroundImageFix"/><feBlend in="SourceGraphic" in2="BackgroundImageFix" result="shape"/><feGaussianBlur stdDeviation="2.5" result="effect1_foregroundBlur_125_42"/></filter></defs></svg>