<svg width="360" height="294" viewBox="0 0 360 294" fill="none" xmlns="http://www.w3.org/2000/svg" aria-hidden="true"><path d="M0 10C0 4.47716 4.47715 0 10 0H350C355.523 0 360 4.47715 360 10V284C360 289.523 355.523 294 350 294H10C4.47716 294 0 289.523 0 284V10Z" fill="#F7D0C3"/><path fill-rule="evenodd" clip-rule="evenodd" d="M31.5106 215.128L41.2362 205.66L27.6825 191.2C21.2269 197.736 15.1568 204.641 9.50278 211.882C2.03609 221.824 13.6554 227.41 13.6554 227.41L64.8943 255.289L65.4759 241.505L31.5106 215.128ZM140.865 217.861L133.033 199.465L115.083 206.161C115.083 206.161 121.562 223.935 126.892 235.189C132.221 246.443 142.569 238.747 142.569 238.747L193.375 207.135L181.444 200.196L140.865 217.861Z" fill="#E58D78"/><path d="M94.5363 156.613L108.333 161.875C110.123 162.547 111.797 163.492 113.298 164.675C118.073 168.476 127.961 178.202 136.428 199.141L117.653 206.757L89.1663 181.638C89.1663 181.638 98.4455 166.542 94.5363 156.613Z" fill="url(#integrations-2_svg__a)"/><path d="M78.6912 156.613L60.7819 160.671C55.416 161.875 50.453 164.447 46.3761 168.138C39.464 174.387 28.6427 184.667 23.0292 192.296L39.7075 209.881L51.5162 201.17C51.5162 201.17 57.6589 214.399 59.1587 223.489C61.6503 238.589 61.4496 236.5 54.6544 262.418C47.8592 288.337 120.45 263.5 120.45 263.5C120.45 263.5 114.64 237.349 116.417 220.621C117.382 211.535 127.441 214.088 123.18 198.221C122.829 193.284 102.62 161.699 99.5087 156.613C95.2342 156.708 78.6912 156.613 78.6912 156.613Z" fill="#FF6100"/><path fill-rule="evenodd" clip-rule="evenodd" d="M69.4524 107.714C73.6457 94.052 84.8592 97.082 84.8592 97.082L84.3858 113.882C84.3858 113.882 96.4042 141.427 87.4496 147C78.4949 152.573 63.8173 145.123 60.9496 143.5C49.4495 134 57.7945 127.356 64.4496 122.5C68.7659 119.353 68.9851 114.264 69.1374 110.729C69.1913 109.478 69.2368 108.421 69.4524 107.714ZM96.3326 149.881L102.842 113.68L90.716 107.727C90.716 107.727 86.9285 102.559 103.187 102.668C114.44 102.742 114.237 110.093 113.046 114.613C113.316 115.544 113.5 116.599 113.572 117.791C113.785 121.321 116.274 124.368 118.685 127.319C122.453 131.931 126.03 136.31 120.432 141.929C115.346 147.035 102.996 149.382 96.3326 149.881Z" fill="#0A1551"/><path d="M95.4496 135.5L99.5366 156.613C99.5366 158.5 98.4392 162.024 96.4859 163.977C94.5327 165.931 91.8834 167.028 89.1211 167.028C86.3587 167.028 83.7095 165.931 81.7562 163.977C79.8029 162.024 78.7056 159.375 78.7056 156.613V129L95.4496 135.5Z" fill="#E58D78"/><path d="M98.4495 143.112V152.702C91.0099 150.957 85.9104 145.249 81.7983 137.918L98.4495 143.112Z" fill="#C66552"/><path d="M111.656 135.687C111.007 140.218 106.655 146.269 103.95 147.5C92.7631 152.599 78.9496 136 78.9496 136L78.4074 123.932L77.5146 108.336L92.3939 103.669C99.793 102.316 105.366 104.291 109.126 109.08C111.223 111.785 111.548 114.639 111.832 118.048C112.035 120.834 112.278 124.811 112.197 128.869C112.156 131.151 111.975 133.427 111.656 135.687Z" fill="#E58D78"/><path d="M125.45 294H90.8373L88.6645 289.239L87.7954 294H50.4496L54.2562 262H120.648L125.45 294Z" fill="#672444"/><path fill-rule="evenodd" clip-rule="evenodd" d="M86.5043 95.7423C105.116 91.9079 110.045 106.432 110.045 106.432L108.795 106.714L109.519 109.135C109.519 109.135 107.484 110.549 99.9496 113C96.6664 114.068 95.0345 114.131 93.37 114.196C91.9418 114.251 90.4896 114.307 87.9496 115C85.726 117.069 84.5777 119.52 83.9999 121.258C83.7025 123.645 83.4844 125.609 83.5211 125.974C78.7767 118.874 73.47 121.753 73.47 121.753C73.4931 121.339 73.5821 120.843 73.6753 120.324C73.85 119.351 74.0393 118.297 73.8354 117.545C70.3337 107.808 73.6043 101.103 86.5043 95.7423Z" fill="#0A1551"/><mask id="integrations-2_svg__b" style="mask-type:alpha" maskUnits="userSpaceOnUse" x="77" y="103" width="36" height="46"><path d="M111.656 135.687C111.007 140.218 106.655 146.269 103.95 147.5C92.763 152.599 78.9495 136 78.9495 136L78.4074 123.932L77.5146 108.336L92.3939 103.669C99.7929 102.316 105.366 104.291 109.126 109.08C111.223 111.785 111.548 114.639 111.832 118.048C112.035 120.834 112.278 124.811 112.197 128.869C112.156 131.151 111.975 133.427 111.656 135.687Z" fill="#E58D78"/></mask><g mask="url(#integrations-2_svg__b)"><path fill-rule="evenodd" clip-rule="evenodd" d="M114.47 132.867C117.14 132.163 118.848 129.86 118.284 127.724C117.72 125.588 115.099 124.428 112.429 125.132C109.759 125.837 108.051 128.14 108.615 130.276C109.179 132.412 111.8 133.572 114.47 132.867ZM90.4496 136C93.211 136 95.4496 134.209 95.4496 132C95.4496 129.791 93.211 128 90.4496 128C87.6882 128 85.4496 129.791 85.4496 132C85.4496 134.209 87.6882 136 90.4496 136Z" fill="#DD7258"/><path fill-rule="evenodd" clip-rule="evenodd" d="M101.987 124.388C102.287 124.247 102.646 124.374 102.788 124.673C103.424 126.009 103.867 126.668 104.3 127.144C104.519 127.384 104.745 127.588 105.014 127.818C105.086 127.88 105.161 127.944 105.241 128.011C105.454 128.191 105.695 128.394 105.958 128.631C106.454 129.078 106.695 129.647 106.67 130.25C106.645 130.833 106.375 131.385 105.975 131.849C105.177 132.776 103.766 133.469 102.086 133.556C101.754 133.573 101.471 133.319 101.454 132.989C101.437 132.659 101.693 132.377 102.024 132.36C103.429 132.287 104.511 131.709 105.063 131.07C105.338 130.75 105.458 130.446 105.468 130.2C105.478 129.974 105.399 129.742 105.151 129.519C104.903 129.296 104.685 129.112 104.476 128.935C104.393 128.865 104.311 128.796 104.23 128.727C103.948 128.486 103.678 128.244 103.409 127.948C102.865 127.351 102.362 126.575 101.701 125.186C101.559 124.887 101.687 124.53 101.987 124.388Z" fill="#CB5C41"/><path fill-rule="evenodd" clip-rule="evenodd" d="M110.021 117.619C109.473 117.09 108.592 116.593 107.474 116.554C106.342 116.515 105.054 116.946 103.707 118.12C103.42 118.371 103.39 118.808 103.64 119.095C103.891 119.382 104.327 119.412 104.615 119.161C105.752 118.17 106.709 117.91 107.424 117.934C108.152 117.96 108.72 118.284 109.061 118.614C109.335 118.878 109.773 118.87 110.038 118.596C110.303 118.321 110.296 117.884 110.021 117.619ZM90.8928 119.974C91.4627 119.197 92.5474 118.195 94.0008 117.641C95.4809 117.077 97.3285 116.985 99.3365 118.037C99.6742 118.214 99.8043 118.632 99.627 118.97C99.4496 119.307 99.0321 119.438 98.6943 119.261C97.0661 118.408 95.6341 118.496 94.4921 118.932C93.3233 119.377 92.4432 120.195 92.0062 120.79C91.7804 121.098 91.3481 121.165 91.0407 120.939C90.7332 120.713 90.667 120.281 90.8928 119.974Z" fill="#37120C" fill-opacity=".25"/><path fill-rule="evenodd" clip-rule="evenodd" d="M107.832 123.036C107.761 123.984 107.179 124.714 106.533 124.667C105.886 124.619 105.419 123.812 105.489 122.864C105.56 121.916 106.141 121.185 106.788 121.233C107.435 121.28 107.902 122.087 107.832 123.036ZM97.7157 123.932C97.6451 124.88 97.0634 125.611 96.4165 125.563C95.7696 125.516 95.3025 124.709 95.3731 123.76C95.4437 122.812 96.0254 122.082 96.6723 122.129C97.3192 122.176 97.7863 122.984 97.7157 123.932Z" fill="#321907"/><path d="M81.221 126.868C83.5746 113.761 98.9815 107.863 109.519 109.135C102.755 100.005 94.6394 100.397 88.5524 98.8008L76.2838 108.553L81.221 126.868Z" fill="#0A1551"/><path d="M96.4496 137.219C96.4496 137.219 99.1757 137.792 100.95 137.926C102.611 138.051 105.215 137.926 105.215 137.926C105.215 137.926 100.133 146.458 96.4496 137.219Z" fill="#9E341F"/></g><path d="M83.6022 122.296C85.1427 125.077 84.5222 128.32 82.2328 129.538C79.9434 130.755 76.8838 129.485 75.3112 126.704C73.7385 123.923 74.3911 120.68 76.6805 119.462C78.9699 118.245 82.0724 119.515 83.6022 122.296Z" fill="#E58D78"/><path fill-rule="evenodd" clip-rule="evenodd" d="M83.4424 111.258C83.3528 111.247 83.2435 111.252 83.1315 111.299C83.017 111.346 82.9309 111.424 82.8718 111.509C82.7661 111.66 82.7496 111.828 82.7466 111.925C82.7402 112.133 82.7924 112.383 82.8586 112.624C82.9967 113.126 83.2561 113.791 83.5605 114.468C83.8666 115.148 84.2273 115.86 84.5762 116.459C84.9123 117.037 85.2741 117.575 85.5897 117.846C86.1281 118.31 86.858 118.718 87.631 118.813C88.4348 118.912 89.2682 118.667 89.9 117.859C90.2281 117.439 90.364 116.983 90.348 116.529C90.3323 116.086 90.1736 115.675 89.9649 115.32C89.5517 114.619 88.8857 114.044 88.4037 113.724C87.9372 113.414 86.909 112.829 85.9175 112.315C85.4193 112.057 84.9217 111.811 84.5002 111.624C84.2897 111.53 84.0932 111.449 83.9222 111.387C83.7601 111.329 83.5895 111.276 83.4424 111.258Z" fill="#FFB629"/><path fill-rule="evenodd" clip-rule="evenodd" d="M69.8458 158.68L78.8238 153.955C77.7036 162.917 85.0977 166.469 89.0736 167.162L89.2188 166.715 89.4444 167.409C93.5352 166.332 99.7003 162.665 98.6705 154.428L107.649 159.153 108.594 177.582 94.5124 170.705 91.2786 173.054 92.5517 176.972 89.2188 174.551 85.8858 176.972 87.1589 173.054 83.826 170.633H87.9457L88.8248 167.927 88.2749 167.659C88.4911 167.624 88.7183 167.581 88.9545 167.528L89.0367 167.275 68.9008 177.109 69.8458 158.68zM89.7613 168.385L90.4918 170.633H94.3649L89.7613 168.385zM144.952 18C127.305 18 113 32.3053 113 49.9518 113 67.5983 127.305 81.9036 144.952 81.9036 162.598 81.9036 176.904 67.5983 176.904 49.9518 176.904 32.3053 162.598 18 144.952 18zM286.952 30C265.439 30 248 47.4393 248 68.9518 248 90.4643 265.439 107.904 286.952 107.904 308.464 107.904 325.904 90.4643 325.904 68.9518 325.904 47.4393 308.464 30 286.952 30zM50.5 37C37.5213 37 27 47.5213 27 60.5 27 73.4787 37.5213 84 50.5 84 63.4787 84 74 73.4787 74 60.5 74 47.5213 63.4787 37 50.5 37zM305.452 153C286.425 153 271 168.425 271 187.452 271 206.479 286.425 221.904 305.452 221.904 324.479 221.904 339.904 206.479 339.904 187.452 339.904 168.425 324.479 153 305.452 153zM140 164.952C140 138.469 161.469 117 187.952 117 214.435 117 235.904 138.469 235.904 164.952 235.904 191.435 214.435 212.904 187.952 212.904 161.469 212.904 140 191.435 140 164.952zM204 256.452C204 242.947 214.947 232 228.452 232 241.956 232 252.904 242.947 252.904 256.452 252.904 269.956 241.956 280.904 228.452 280.904 214.947 280.904 204 269.956 204 256.452z" fill="#fff"/><path d="M37.2437 55.2441C37.2437 50.8258 40.8254 47.2441 45.2437 47.2441H55.7565C60.1748 47.2441 63.7565 50.8258 63.7565 55.2441V65.7569C63.7565 70.1751 60.1748 73.7569 55.7565 73.7569H45.2437C40.8254 73.7569 37.2437 70.1751 37.2437 65.7569V55.2441Z" fill="#4A8CFF"/><path d="M53.9447 59.1834L56.9207 57.0086C57.1805 56.7969 57.3786 56.8461 57.3786 57.2376V63.8695C57.3786 64.3091 57.1313 64.2587 56.9207 64.0984L53.9447 61.9237V59.1834ZM43.872 57.2536V62.1984C43.8777 63.3162 44.7881 64.218 45.906 64.2129H53.1171C53.3202 64.2135 53.4856 64.0497 53.4868 63.8466V58.9018C53.4812 57.784 52.5707 56.8822 51.4528 56.8873H44.2417C44.0386 56.8867 43.8732 57.0505 43.872 57.2536Z" fill="#fff"/><path d="M298.172 168.951H313.046L327.034 193.067H312.127L298.172 168.951Z" fill="url(#integrations-2_svg__c)"/><path d="M327.034 193.067L319.58 205.952H291.671L299.141 193.067H327.034Z" fill="url(#integrations-2_svg__d)"/><path d="M291.671 205.952L284.251 193.067L298.172 168.951L305.642 181.87L291.671 205.952Z" fill="url(#integrations-2_svg__e)"/><path opacity=".1" d="M291.671 205.952L305.559 193.067H299.141L291.671 205.952ZM327.034 193.067H312.143L308.868 187.418L327.034 193.067ZM298.172 168.951L302.467 187.335L305.642 181.87L298.172 168.951Z" fill="#000"/><path d="M177.146 188.133C178.141 189.098 177.438 190.751 176.024 190.751H167.178C165.432 190.751 164.012 189.374 164.012 187.682V179.106C164.012 177.736 165.718 177.054 166.713 178.019L177.146 188.133Z" fill="#0A1551"/><path d="M190.974 188.738C188.356 186.137 188.356 181.919 190.974 179.317L200.425 169.928C203.044 167.327 207.289 167.327 209.908 169.928C212.527 172.53 212.527 176.748 209.908 179.349L200.457 188.738C197.839 191.34 193.593 191.34 190.974 188.738Z" fill="#FFB21D"/><path d="M166.007 165.147C163.389 162.545 163.389 158.327 166.007 155.725L181.864 139.962C184.482 137.36 188.728 137.36 191.346 139.962C193.965 142.563 193.965 146.781 191.346 149.383L175.49 165.147C172.871 167.748 168.626 167.748 166.007 165.147Z" fill="#09F"/><path d="M179.009 176.416C176.391 173.814 176.391 169.596 179.009 166.995L200.499 145.645C203.118 143.044 207.363 143.044 209.982 145.645C212.6 148.247 212.6 152.465 209.982 155.066L188.492 176.416C185.874 179.018 181.628 179.018 179.009 176.416Z" fill="#FF6100"/><path d="M281.738 55.3324C283.578 53.4146 286.141 52.2251 288.975 52.2251C292.743 52.2251 296.029 54.3259 297.78 57.4445C299.301 56.7649 300.985 56.3868 302.756 56.3868C309.551 56.3868 315.06 61.9437 315.06 68.798C315.06 75.6531 309.551 81.2099 302.756 81.2099C301.942 81.2104 301.13 81.1295 300.333 80.9685C298.791 83.718 295.854 85.5757 292.482 85.5757C291.071 85.5757 289.736 85.2497 288.547 84.67C286.985 88.3456 283.344 90.9227 279.101 90.9227C274.683 90.9227 270.917 88.1269 269.471 84.2058C268.84 84.3399 268.185 84.4099 267.514 84.4099C262.253 84.4099 257.988 80.1011 257.988 74.7849C257.988 71.2224 259.904 68.1118 262.751 66.4476C262.165 65.0989 261.839 63.6103 261.839 62.0452C261.839 55.9316 266.802 50.9756 272.924 50.9756C276.518 50.9756 279.713 52.6845 281.738 55.3324Z" fill="#00A1E0"/><path fill-rule="evenodd" clip-rule="evenodd" d="M291.674 64.957C291.799 64.9806 291.895 65.0026 292.001 65.0351C292.024 65.044 292.088 65.0757 292.062 65.1506L291.809 65.8449C291.788 65.8969 291.773 65.9286 291.665 65.8961C291.638 65.888 291.598 65.8766 291.496 65.8546C291.422 65.8391 291.324 65.8278 291.225 65.8278C291.094 65.8278 290.974 65.844 290.869 65.8782C290.767 65.9116 290.673 65.9693 290.592 66.0505C290.51 66.1335 290.412 66.2547 290.36 66.4034C290.258 66.6989 290.208 67.01 290.191 67.1144C290.188 67.1337 290.186 67.146 290.185 67.1497H291.243C291.332 67.1497 291.359 67.1904 291.351 67.2562L291.228 67.944C291.209 68.044 291.117 68.0407 291.117 68.0407H290.028L289.282 72.2577C289.204 72.6934 289.106 73.0674 288.991 73.3683C288.876 73.6731 288.755 73.8958 288.562 74.1089C288.383 74.3056 288.181 74.4511 287.95 74.5349C287.72 74.6178 287.442 74.6609 287.138 74.6609C286.993 74.6609 286.838 74.6585 286.654 74.6153C286.521 74.5836 286.449 74.5609 286.351 74.5267C286.31 74.5113 286.277 74.46 286.3 74.3942C286.324 74.3283 286.519 73.7926 286.546 73.7219C286.58 73.6365 286.665 73.669 286.665 73.669C286.725 73.6942 286.766 73.7113 286.844 73.7267C286.923 73.743 287.029 73.756 287.109 73.756C287.253 73.756 287.385 73.7382 287.498 73.6999C287.637 73.6535 287.716 73.574 287.801 73.4666C287.889 73.3544 287.959 73.2008 288.032 72.9959C288.106 72.7878 288.172 72.5138 288.23 72.1805L288.972 68.0407H288.241C288.153 68.0407 288.125 67.9993 288.134 67.9342L288.256 67.2456C288.276 67.1464 288.367 67.1497 288.367 67.1497H289.118L289.159 66.9261C289.271 66.2619 289.494 65.757 289.824 65.4253C290.155 65.092 290.626 64.9229 291.225 64.9229C291.396 64.9229 291.547 64.9343 291.674 64.957ZM277.128 72.2895C277.183 72.2895 277.223 72.2447 277.223 72.1894V65.1294C277.223 65.0742 277.183 65.0294 277.128 65.0294H276.25C276.195 65.0294 276.156 65.0742 276.156 65.1294V72.1894C276.156 72.2447 276.195 72.2895 276.25 72.2895H277.128ZM266.269 71.8107C266.252 71.7946 266.224 71.7678 266.254 71.6906L266.485 71.0499C266.522 70.9393 266.605 70.976 266.639 70.9971C266.702 71.0353 266.75 71.0702 266.832 71.1182C267.513 71.5483 268.143 71.5524 268.34 71.5524C268.849 71.5524 269.165 71.2825 269.165 70.9199V70.9004C269.165 70.5043 268.681 70.3553 268.119 70.1825L268.116 70.1817L267.992 70.1435C267.218 69.9223 266.393 69.6053 266.393 68.6273V68.6077C266.393 67.6801 267.141 67.033 268.213 67.033L268.33 67.0322C268.959 67.0322 269.567 67.2151 270.007 67.4826C270.047 67.507 270.086 67.5525 270.064 67.6143C270.043 67.6712 269.848 68.1964 269.826 68.255C269.784 68.3647 269.671 68.2915 269.671 68.2915C269.286 68.0785 268.687 67.911 268.183 67.911C267.73 67.911 267.437 68.1517 267.437 68.4786V68.4988C267.437 68.8806 267.937 69.0432 268.516 69.2315L268.518 69.2321L268.618 69.2647C269.388 69.5077 270.208 69.8443 270.208 70.7711V70.7906C270.208 71.7931 269.482 72.4158 268.311 72.4158C267.736 72.4158 267.186 72.3256 266.604 72.0167C266.58 72.0027 266.555 71.9891 266.531 71.9754C266.446 71.928 266.362 71.8806 266.278 71.8199C266.276 71.8171 266.273 71.8141 266.269 71.8107ZM283.417 71.8199C283.406 71.8037 283.357 71.7842 283.393 71.6906L283.624 71.0499C283.658 70.945 283.757 70.9833 283.778 70.9971C283.84 71.0369 283.889 71.0702 283.971 71.1182C284.651 71.5483 285.281 71.5524 285.479 71.5524C285.988 71.5524 286.304 71.2825 286.304 70.9199V70.9004C286.304 70.504 285.819 70.3551 285.256 70.1822L285.254 70.1817L285.13 70.1435C284.357 69.9223 283.532 69.6053 283.532 68.6273V68.6077C283.532 67.6801 284.28 67.033 285.351 67.033L285.468 67.0322C286.097 67.0322 286.706 67.2151 287.145 67.4826C287.185 67.507 287.224 67.5525 287.202 67.6143C287.182 67.6712 286.987 68.1964 286.964 68.255C286.923 68.3647 286.81 68.2915 286.81 68.2915C286.424 68.0785 285.826 67.911 285.322 67.911C284.868 67.911 284.576 68.1517 284.576 68.4786V68.4988C284.576 68.881 285.076 69.0435 285.657 69.2321L285.757 69.2647C286.527 69.5077 287.347 69.8443 287.347 70.7711V70.7906C287.347 71.7931 286.62 72.4158 285.45 72.4158C284.875 72.4158 284.325 72.3256 283.743 72.0167C283.72 72.0039 283.698 71.9913 283.675 71.9788C283.588 71.9302 283.502 71.882 283.417 71.8199ZM294.779 71.0555C294.987 70.7401 295.093 70.2938 295.093 69.7271C295.093 69.1613 294.987 68.7157 294.78 68.4036C294.573 68.0947 294.262 67.9442 293.828 67.9442C293.393 67.9442 293.083 68.0947 292.881 68.4036C292.676 68.7158 292.572 69.1613 292.572 69.7271C292.572 70.2938 292.676 70.7409 292.881 71.0555C293.083 71.3685 293.393 71.5198 293.828 71.5198C294.262 71.5198 294.573 71.3677 294.779 71.0555ZM295.625 67.828C295.824 68.0661 295.974 68.3523 296.07 68.6767C296.166 68.9995 296.214 69.3531 296.214 69.7271C296.214 70.1011 296.166 70.4548 296.07 70.7775C295.974 71.1019 295.825 71.388 295.625 71.6262C295.426 71.8652 295.173 72.0563 294.875 72.1921C294.576 72.3278 294.224 72.3969 293.828 72.3969C293.431 72.3969 293.079 72.3278 292.78 72.1921C292.482 72.0563 292.229 71.8653 292.03 71.6262C291.829 71.3873 291.681 71.1011 291.584 70.7775C291.489 70.4556 291.441 70.1019 291.441 69.7271C291.441 69.3523 291.489 68.9995 291.584 68.6767C291.681 68.3532 291.83 68.067 292.029 67.828C292.229 67.589 292.481 67.3971 292.78 67.2573C293.078 67.1183 293.431 67.0475 293.828 67.0475C294.224 67.0475 294.577 67.1183 294.875 67.2573C295.174 67.3971 295.426 67.589 295.625 67.828ZM303.97 71.3091C303.97 71.3091 304.062 71.2733 304.095 71.3684L304.335 72.0311C304.366 72.1131 304.295 72.1473 304.295 72.1473C303.926 72.2928 303.412 72.3944 302.911 72.3944C302.064 72.3944 301.414 72.1497 300.982 71.6684C300.55 71.1887 300.331 70.5335 300.331 69.7229C300.331 69.3481 300.385 68.9936 300.491 68.6709C300.597 68.3473 300.757 68.0612 300.966 67.8222C301.176 67.5831 301.441 67.3913 301.753 67.2523C302.066 67.1124 302.432 67.0425 302.843 67.0425C303.118 67.0425 303.365 67.0596 303.576 67.0921C303.802 67.1263 304.101 67.2067 304.228 67.2563C304.251 67.2653 304.314 67.297 304.288 67.3709C304.218 67.5715 304.165 67.7183 304.105 67.8833C304.087 67.933 304.068 67.9843 304.048 68.0392C304.012 68.14 303.935 68.1067 303.935 68.1067C303.613 68.0051 303.305 67.9587 302.902 67.9587C302.418 67.9587 302.056 68.1206 301.818 68.436C301.578 68.753 301.444 69.1693 301.443 69.7229C301.441 70.3311 301.592 70.7806 301.862 71.0587C302.131 71.3367 302.507 71.4774 302.98 71.4774C303.173 71.4774 303.353 71.4643 303.516 71.4392C303.677 71.414 303.828 71.3636 303.97 71.3091ZM306.072 68.4038C305.938 68.6078 305.851 68.8697 305.805 69.1843H308.164C308.14 68.8811 308.081 68.6078 307.944 68.4038C307.739 68.0949 307.452 67.9242 307.018 67.9242C306.583 67.9242 306.275 68.0941 306.072 68.4038ZM308.671 67.7184C308.806 67.8631 309.012 68.1794 309.095 68.4924C309.292 69.1849 309.21 69.7897 309.195 69.9008C309.194 69.9094 309.193 69.915 309.193 69.9175C309.184 70.0021 309.097 70.0037 309.097 70.0037L305.789 70.0004C305.81 70.5028 305.93 70.859 306.174 71.1012C306.413 71.3378 306.793 71.489 307.306 71.4898C308.022 71.4913 308.364 71.3603 308.599 71.2707C308.621 71.262 308.643 71.2537 308.664 71.2459C308.664 71.2459 308.756 71.2126 308.788 71.3028L309.005 71.9085C309.049 72.011 309.014 72.0467 308.977 72.067C308.77 72.1817 308.266 72.3946 307.311 72.3979C306.847 72.3987 306.443 72.3321 306.11 72.2036C305.775 72.0744 305.496 71.889 305.279 71.6524C305.061 71.4175 304.9 71.1338 304.799 70.8118C304.699 70.4924 304.649 70.1371 304.649 69.7557C304.649 69.381 304.697 69.0257 304.794 68.6997C304.89 68.3721 305.041 68.0835 305.242 67.8412C305.443 67.5981 305.699 67.403 306.004 67.2599C306.308 67.1168 306.683 67.0477 307.096 67.0477C307.45 67.0477 307.774 67.1241 308.044 67.2395C308.25 67.329 308.458 67.4891 308.671 67.7184ZM279.579 68.4038C279.445 68.6078 279.359 68.8697 279.312 69.1843H281.671C281.647 68.8811 281.588 68.6078 281.452 68.4038C281.246 68.0949 280.959 67.9242 280.525 67.9242C280.091 67.9242 279.782 68.0941 279.579 68.4038ZM282.178 67.7184C282.313 67.8631 282.518 68.1794 282.601 68.4924C282.802 69.197 282.715 69.8109 282.702 69.9062C282.701 69.9118 282.7 69.9156 282.7 69.9175C282.691 70.0021 282.604 70.0037 282.604 70.0037L279.296 70.0004C279.318 70.5028 279.437 70.859 279.682 71.1012C279.92 71.3378 280.301 71.489 280.813 71.4898C281.531 71.4913 281.873 71.3599 282.107 71.2702C282.129 71.2617 282.151 71.2535 282.171 71.2459C282.171 71.2459 282.263 71.2126 282.296 71.3028L282.512 71.9085C282.556 72.011 282.521 72.0467 282.484 72.067C282.277 72.1817 281.774 72.3946 280.818 72.3979C280.354 72.3987 279.95 72.3321 279.618 72.2036C279.283 72.0744 279.003 71.889 278.786 71.6524C278.568 71.4175 278.407 71.1338 278.306 70.8118C278.206 70.4924 278.156 70.1371 278.156 69.7557C278.156 69.381 278.205 69.0257 278.301 68.6997C278.397 68.3721 278.548 68.0835 278.749 67.8412C278.95 67.5981 279.206 67.403 279.511 67.2599C279.815 67.1168 280.191 67.0477 280.603 67.0477C280.957 67.0477 281.281 67.1241 281.551 67.2395C281.757 67.329 281.965 67.4891 282.178 67.7184ZM271.97 71.1544C272.014 71.221 272.032 71.247 272.161 71.3503C272.159 71.3495 272.458 71.5844 273.131 71.5438C273.604 71.5153 274.025 71.4251 274.025 71.4251H274.024V69.9211C274.024 69.9211 273.6 69.8511 273.126 69.8446C272.452 69.8357 272.165 70.0845 272.167 70.0837C271.968 70.2243 271.872 70.4332 271.872 70.7243C271.872 70.908 271.905 71.0527 271.97 71.1544ZM272.961 69.0105C273.169 69.0105 273.343 69.0162 273.478 69.026C273.478 69.026 273.739 69.0495 274.023 69.0901V68.9503C274.023 68.5096 273.931 68.3007 273.751 68.1625C273.565 68.0203 273.291 67.9487 272.933 67.9487C272.933 67.9487 272.128 67.9382 271.492 68.2845C271.462 68.3016 271.437 68.3113 271.437 68.3113C271.437 68.3113 271.358 68.339 271.329 68.2577L271.095 67.6284C271.059 67.5374 271.124 67.4967 271.124 67.4967C271.422 67.2642 272.144 67.1243 272.144 67.1243C272.383 67.0764 272.782 67.0422 273.03 67.0422C273.691 67.0422 274.203 67.1959 274.55 67.4999C274.899 67.8048 275.076 68.2967 275.076 68.9601L275.078 71.9852C275.078 71.9852 275.084 72.0731 275.002 72.0933C274.949 72.1076 274.897 72.1214 274.844 72.1347C274.819 72.1408 274.795 72.1468 274.77 72.1527C274.66 72.1778 274.261 72.2583 273.937 72.3136C273.609 72.3698 273.271 72.3974 272.932 72.3974C272.61 72.3974 272.316 72.3673 272.056 72.308C271.793 72.2486 271.566 72.1503 271.383 72.0162C271.197 71.882 271.052 71.708 270.951 71.4991C270.85 71.2909 270.8 71.0365 270.8 70.7438C270.8 70.456 270.859 70.1991 270.976 69.9812C271.092 69.7649 271.256 69.5782 271.456 69.4356C271.656 69.2926 271.888 69.1844 272.147 69.1154C272.404 69.0463 272.678 69.0105 272.961 69.0105ZM300.109 67.2028C300.131 67.2109 300.184 67.2466 300.159 67.3215C300.128 67.4117 299.967 67.8645 299.91 68.0158C299.889 68.0735 299.853 68.1125 299.79 68.1052C299.79 68.1052 299.599 68.0605 299.426 68.0605C299.306 68.0605 299.136 68.0759 298.982 68.1231C298.832 68.1694 298.694 68.2515 298.573 68.3686C298.453 68.4865 298.355 68.6507 298.284 68.8556C298.211 69.0629 298.174 69.393 298.174 69.7239V72.1888C298.174 72.2154 298.164 72.241 298.145 72.2599C298.133 72.2722 298.118 72.281 298.101 72.2857C298.093 72.2883 298.083 72.2896 298.074 72.2896H297.205C297.15 72.2896 297.104 72.2441 297.104 72.1888V67.2548C297.104 67.1986 297.144 67.154 297.199 67.154H298.047C298.103 67.154 298.142 67.1987 298.142 67.2548V67.6572C298.269 67.4873 298.497 67.3377 298.702 67.245C298.908 67.1524 299.139 67.0824 299.555 67.1076C299.772 67.1215 300.053 67.1808 300.109 67.2028Z" fill="#fff"/><path d="M149.75 50.0083C149.751 51.3785 149.503 52.7375 149.02 54.0197C147.738 54.5027 146.378 54.7502 145.008 54.7504H144.992C143.58 54.7487 142.228 54.4907 140.98 54.0203C140.497 52.7379 140.25 51.3787 140.25 50.0083V49.9917C140.249 48.6218 140.496 47.263 140.979 45.9809C142.261 45.497 143.621 45.2494 144.992 45.25H145.008C146.379 45.2493 147.738 45.4969 149.02 45.9808C149.504 47.2627 149.751 48.6216 149.75 49.9915V50.0082V50.0083ZM163.736 46.8334H152.645L160.487 38.991C159.872 38.1264 159.185 37.3146 158.435 36.5642V36.5636C157.684 35.814 156.873 35.128 156.008 34.5128L148.166 42.3552V31.2645C147.123 31.0891 146.067 31.0006 145.009 31H144.99C143.914 31.0006 142.86 31.092 141.833 31.2645V42.3552L133.991 34.5128C133.127 35.1278 132.316 35.8143 131.566 36.5649L131.562 36.5679C130.813 37.3174 130.127 38.1279 129.512 38.991L137.355 46.8334H126.265C126.265 46.8334 126 48.9164 126 49.9935V50.0065C126 51.0836 126.091 52.1391 126.265 53.1666H137.355L129.512 61.009C130.746 62.7404 132.26 64.2541 133.991 65.4878L141.833 57.6448V68.7361C142.875 68.9107 143.93 68.9989 144.986 69H145.013C146.069 68.999 147.124 68.9108 148.166 68.7361V57.6448L156.009 65.4878C156.873 64.8724 157.684 64.1862 158.435 63.4364L158.436 63.4346C159.186 62.6842 159.872 61.8729 160.487 61.009L152.644 53.1666H163.736C163.909 52.1409 163.999 51.0885 164 50.0138V49.9862C163.999 48.9115 163.909 47.8591 163.736 46.8334Z" fill="#FF4A00"/><path fill-rule="evenodd" clip-rule="evenodd" d="M225.806 251.034C226.815 249.844 228.057 248.809 229.17 248.228C229.209 248.208 229.25 248.251 229.229 248.289C229.14 248.453 228.97 248.803 228.916 249.068C228.908 249.109 228.952 249.14 228.986 249.116C229.678 248.635 230.883 248.119 231.939 248.052C231.985 248.049 232.007 248.109 231.971 248.137C231.81 248.263 231.634 248.437 231.506 248.613C231.484 248.643 231.505 248.686 231.541 248.686C232.283 248.692 233.329 248.957 234.01 249.347C234.056 249.373 234.024 249.464 233.972 249.452C232.941 249.211 231.253 249.028 229.499 249.465C227.934 249.854 226.739 250.456 225.867 251.103C225.823 251.136 225.77 251.076 225.806 251.034ZM230.832 262.566V262.567L230.832 262.567L230.832 262.567C230.832 262.567 230.832 262.567 230.832 262.566ZM234.994 263.067C235.024 263.055 235.044 263.02 235.041 262.985C235.037 262.943 234.999 262.912 234.958 262.916C234.958 262.916 232.804 263.241 230.769 262.481C230.947 261.891 231.362 261.946 231.98 262.029L231.981 262.029L231.981 262.029L231.981 262.029L231.981 262.029L231.981 262.029C232.132 262.049 232.296 262.071 232.471 262.085C234.076 262.183 235.515 261.943 236.579 261.632C237.5 261.362 238.71 260.83 239.65 260.072C239.967 260.783 240.079 261.566 240.079 261.566C240.079 261.566 240.325 261.521 240.53 261.65C240.724 261.771 240.866 262.024 240.769 262.679C240.571 263.901 240.062 264.893 239.206 265.805C238.686 266.378 238.053 266.875 237.33 267.237C236.946 267.443 236.537 267.621 236.105 267.765C232.88 268.84 229.578 267.658 228.514 265.12C228.429 264.929 228.357 264.729 228.301 264.52C227.847 262.848 228.232 260.841 229.436 259.578C229.51 259.497 229.586 259.402 229.586 259.283C229.586 259.183 229.524 259.078 229.47 259.004C229.386 258.88 229.262 258.739 229.118 258.576L229.118 258.576L229.118 258.576L229.118 258.576L229.118 258.576C228.538 257.919 227.648 256.91 227.883 255.263C228.093 253.786 229.359 252.746 230.538 252.808C230.638 252.813 230.738 252.819 230.837 252.825C231.081 252.84 231.31 252.863 231.529 252.885L231.529 252.885C231.768 252.909 231.995 252.932 232.215 252.941C232.92 252.972 233.553 252.868 234.303 252.23L234.345 252.194C234.579 251.995 234.778 251.825 235.103 251.769C235.109 251.768 235.116 251.766 235.124 251.764C235.17 251.753 235.257 251.731 235.408 251.738C235.591 251.748 235.765 251.8 235.922 251.906C236.523 252.314 236.609 253.304 236.64 254.027C236.658 254.44 236.707 255.44 236.723 255.727C236.762 256.383 236.931 256.475 237.272 256.59C237.429 256.643 237.576 256.685 237.767 256.739L237.906 256.778C238.702 257.006 239.174 257.238 239.472 257.535C239.649 257.721 239.732 257.918 239.757 258.107C239.851 258.806 239.225 259.669 237.569 260.454C235.759 261.311 233.563 261.528 232.046 261.356C231.929 261.343 231.516 261.295 231.514 261.294C230.3 261.128 229.608 262.728 230.337 263.825C230.806 264.532 232.085 264.992 233.364 264.992C236.298 264.993 238.552 263.714 239.391 262.61C239.416 262.577 239.419 262.573 239.458 262.512C239.499 262.449 239.465 262.414 239.414 262.45C238.729 262.928 235.685 264.828 232.429 264.257C232.429 264.257 232.034 264.19 231.673 264.047C231.386 263.933 230.785 263.651 230.712 263.022C233.339 263.851 234.994 263.067 234.994 263.067ZM220.563 256.695C219.649 256.876 218.844 257.405 218.351 258.135C218.057 257.884 217.509 257.399 217.412 257.21C216.626 255.687 218.27 252.724 219.419 251.051C222.257 246.917 226.703 243.787 228.761 244.355C229.096 244.452 230.204 245.763 230.204 245.763C230.204 245.763 228.147 246.928 226.239 248.552C223.668 250.572 221.726 253.509 220.563 256.695ZM230.833 262.568C230.833 262.568 230.833 262.567 230.833 262.567L230.833 262.567C230.833 262.568 230.833 262.568 230.833 262.568C230.833 262.568 230.833 262.568 230.833 262.568ZM222.098 263.687C221.96 263.711 221.819 263.72 221.677 263.717C220.302 263.679 218.817 262.416 218.669 260.918C218.506 259.262 219.335 257.988 220.803 257.685C220.978 257.649 221.19 257.629 221.419 257.641C222.241 257.687 223.453 258.331 223.73 260.16C223.975 261.779 223.586 263.428 222.098 263.687ZM240.722 260.755L240.714 260.725C240.689 260.634 240.62 260.38 240.528 260.081C240.423 259.736 240.314 259.493 240.314 259.493C240.736 258.847 240.744 258.269 240.688 257.942C240.628 257.536 240.462 257.191 240.129 256.833C239.795 256.476 239.113 256.11 238.155 255.835L238.027 255.799C237.878 255.758 237.675 255.701 237.652 255.693C237.651 255.686 237.648 255.546 237.643 255.344C237.633 254.947 237.618 254.311 237.603 253.972C237.587 253.603 237.556 253.027 237.381 252.46C237.173 251.692 236.809 251.02 236.355 250.59C237.608 249.265 238.39 247.805 238.388 246.552C238.384 244.144 235.486 243.415 231.915 244.925C231.912 244.926 231.567 245.075 231.343 245.172L231.158 245.252L231.152 245.246L231.152 245.246C231.057 245.151 229.789 243.881 229.769 243.864C225.698 240.239 212.967 254.682 217.037 258.19L217.926 258.959C217.696 259.569 217.605 260.268 217.679 261.02C217.774 261.985 218.262 262.91 219.053 263.625C219.804 264.304 220.791 264.734 221.748 264.733C223.332 268.458 226.952 270.744 231.195 270.872C235.747 271.01 239.568 268.83 241.169 264.915C241.274 264.64 241.718 263.402 241.718 262.308C241.718 261.21 241.11 260.755 240.722 260.755ZM222.864 261.829C222.816 261.769 222.738 261.787 222.662 261.805L222.661 261.805C222.607 261.818 222.547 261.832 222.48 261.831C222.338 261.828 222.218 261.766 222.15 261.66C222.062 261.522 222.067 261.316 222.165 261.081C222.178 261.049 222.193 261.014 222.21 260.975C222.365 260.62 222.624 260.026 222.333 259.46C222.114 259.034 221.756 258.769 221.326 258.713C220.914 258.66 220.489 258.816 220.218 259.121C219.79 259.602 219.723 260.258 219.806 260.489C219.836 260.574 219.884 260.597 219.918 260.602C219.991 260.612 220.099 260.558 220.166 260.373C220.17 260.364 220.174 260.349 220.179 260.332L220.185 260.313C220.215 260.215 220.271 260.033 220.363 259.887C220.473 259.711 220.645 259.59 220.847 259.545C221.053 259.5 221.263 259.541 221.439 259.658C221.738 259.858 221.854 260.233 221.726 260.59C221.66 260.775 221.552 261.128 221.576 261.419C221.624 262.006 221.978 262.243 222.296 262.268C222.606 262.279 222.822 262.102 222.877 261.973C222.909 261.896 222.882 261.849 222.864 261.829ZM235.966 256.324C235.792 256.299 235.603 256.3 235.406 256.324C235.256 256.129 235.121 255.813 235.046 255.444C234.911 254.787 234.925 254.311 235.301 254.249C235.677 254.188 235.859 254.585 235.994 255.242C236.084 255.683 236.067 256.089 235.966 256.324ZM232.178 256.844L232.214 256.861C232.462 256.972 232.615 257.041 232.677 256.975C232.719 256.931 232.706 256.848 232.642 256.741C232.509 256.52 232.236 256.295 231.947 256.169C231.354 255.909 230.647 255.996 230.102 256.396C229.922 256.53 229.752 256.717 229.776 256.83C229.784 256.866 229.811 256.894 229.874 256.903C229.932 256.91 230.048 256.873 230.203 256.823C230.442 256.746 230.776 256.638 231.138 256.615C231.56 256.589 231.909 256.724 232.178 256.844ZM230.969 257.443C231.093 257.333 231.287 257.216 231.637 257.159C232.12 257.101 232.473 257.33 232.555 257.466C232.591 257.525 232.577 257.563 232.565 257.581C232.528 257.64 232.448 257.631 232.28 257.612L232.267 257.611C231.949 257.574 231.627 257.552 231.139 257.73C231.139 257.73 230.962 257.803 230.883 257.803C230.86 257.803 230.841 257.795 230.825 257.781C230.814 257.77 230.799 257.75 230.799 257.715C230.798 257.642 230.864 257.537 230.969 257.443ZM234.316 258.316C234.554 258.435 234.816 258.388 234.901 258.211C234.986 258.034 234.862 257.794 234.624 257.675C234.387 257.556 234.125 257.602 234.039 257.779C233.954 257.956 234.078 258.197 234.316 258.316ZM235.487 257.436C235.492 257.165 235.652 256.949 235.845 256.952C236.039 256.955 236.192 257.177 236.187 257.448C236.183 257.718 236.022 257.935 235.829 257.932C235.636 257.928 235.483 257.706 235.487 257.436Z" fill="#241C15"/><defs><linearGradient id="integrations-2_svg__a" x1="127.95" y1="187" x2="119.45" y2="199" gradientUnits="userSpaceOnUse"><stop stop-color="#FF6100"/><stop offset=".998" stop-color="#ED5B09"/></linearGradient><linearGradient id="integrations-2_svg__c" x1="298.172" y1="168.951" x2="321.904" y2="197.354" gradientUnits="userSpaceOnUse"><stop stop-color="#F6C338"/><stop offset=".523" stop-color="#FFD351"/><stop offset="1" stop-color="#F6C338"/></linearGradient><linearGradient id="integrations-2_svg__d" x1="327.034" y1="193.067" x2="318.745" y2="215.817" gradientUnits="userSpaceOnUse"><stop stop-color="#286EE6"/><stop offset=".521" stop-color="#4286FB"/><stop offset="1" stop-color="#286EE6"/></linearGradient><linearGradient id="integrations-2_svg__e" x1="298.217" y1="168.951" x2="282.019" y2="200.92" gradientUnits="userSpaceOnUse"><stop stop-color="#069B5A"/><stop offset=".531" stop-color="#11AA62"/><stop offset="1" stop-color="#069B5A"/></linearGradient></defs></svg>