<svg xmlns="http://www.w3.org/2000/svg" width="360" height="294" viewBox="0 0 360 294" fill="none" aria-hidden="true"><path d="M350 0H10C4.47715 0 0 4.47715 0 10V284C0 289.523 4.47715 294 10 294H350C355.523 294 360 289.523 360 284V10C360 4.47715 355.523 0 350 0Z" fill="#ECD4D8"/><mask id="payments-2_svg__a" style="mask-type:alpha" maskUnits="userSpaceOnUse" x="0" y="0" width="360" height="294"><path d="M350 0H10C4.47715 0 0 4.47715 0 10V284C0 289.523 4.47715 294 10 294H350C355.523 294 360 289.523 360 284V10C360 4.47715 355.523 0 350 0Z" fill="#72E1B3"/></mask><g mask="url(#payments-2_svg__a)"><path d="M277 256H343V317H277V256Z" fill="#785858"/><path d="M325 104.452L322.762 120.229C322.762 120.229 323.741 132.456 319.051 137.453 311.5 145.5 299.893 147.758 294 141 292.39 138.689 289.74 134.316 289.531 131.497 289.174 128.923 288.997 126.327 289.003 123.728 288.996 118.023 289.003 109.232 289.003 103L325 104.452zM354.519 196.736L356.908 225.026 351.886 284.626 353 298 341.5 296 341.113 284.35 339.195 256.5V196.736H354.519z" fill="#E58D78"/><path d="M318.772 148.63L336.749 153.499C336.749 153.499 351.276 157.828 355.848 183.353C356.173 183.353 357 198.273 357 198.273H340.279V256.302H270.915L274.864 198.8L290.325 166.485L297.981 148.63H318.772Z" fill="#78BB07"/><path d="M318.935 137L322.762 152.552C322.762 156.018 321.386 159.342 318.935 161.792C316.485 164.242 313.161 165.619 309.695 165.619H309.398C307.68 165.621 305.979 165.284 304.391 164.629C302.804 163.973 301.361 163.011 300.145 161.798C298.929 160.584 297.964 159.143 297.305 157.557C296.646 155.971 297.002 154.218 297 152.5L301.5 135L318.935 137Z" fill="#E58D78"/><path d="M319 137.5C313.508 145.318 307 148.5 298 148.5L301.5 134L310.088 133.25L319 137.5Z" fill="#C66552"/><path d="M325 104.452L322.762 120.229C322.762 120.229 323.741 132.456 319.051 137.453C311.5 145.5 299.893 147.758 294 141C292.39 138.689 289.74 134.316 289.531 131.497C289.174 128.923 288.997 126.327 289.003 123.728C288.996 118.023 289.003 109.232 289.003 103L325 104.452Z" fill="#E58D78"/><path fill-rule="evenodd" clip-rule="evenodd" d="M315.897 125.438C316.27 127.335 314.156 129.348 311.176 129.934C308.195 130.52 305.477 129.458 305.103 127.561C304.73 125.665 306.844 123.652 309.824 123.066C312.805 122.479 315.523 123.541 315.897 125.438ZM289.397 123.161C289.263 123.188 289.132 123.217 289.002 123.248C289.003 123.387 289.003 123.524 289.003 123.659L289.003 123.823C288.998 125.95 289.116 128.075 289.354 130.188C289.807 130.174 290.274 130.123 290.748 130.03C293.728 129.443 295.842 127.43 295.469 125.534C295.096 123.637 292.377 122.575 289.397 123.161Z" fill="#E08069"/><path fill-rule="evenodd" clip-rule="evenodd" d="M297.246 134.087C299.498 135.047 301.772 134.966 304.063 133.849C303.429 137.115 302.179 138.562 300.312 138.191C298.552 137.84 297.559 135.353 297.246 134.087C296.951 132.875 296.951 132.875 297.246 134.087Z" fill="#A53135"/><path fill-rule="evenodd" clip-rule="evenodd" d="M290.825 115.157C291.639 114.765 293.939 114.268 296.827 115.195C297.221 115.322 297.643 115.105 297.77 114.71C297.897 114.316 297.68 113.893 297.285 113.767C294.061 112.732 291.361 113.234 290.175 113.805C289.802 113.985 289.645 114.433 289.824 114.806C290.004 115.179 290.452 115.336 290.825 115.157ZM310.386 114.857C307.658 113.22 304.942 113.25 301.774 113.748C301.365 113.813 301.086 114.196 301.15 114.606C301.214 115.015 301.598 115.294 302.008 115.23C305.058 114.75 307.342 114.78 309.614 116.143C309.969 116.356 310.43 116.241 310.643 115.886C310.856 115.531 310.741 115.07 310.386 114.857Z" fill="#6D341E" fill-opacity=".56"/><path fill-rule="evenodd" clip-rule="evenodd" d="M303.112 119.514C303.178 120.405 303.725 121.091 304.333 121.046C304.941 121.002 305.38 120.243 305.313 119.352C305.247 118.461 304.7 117.775 304.092 117.819C303.485 117.864 303.046 118.622 303.112 119.514ZM292.606 119.671C292.673 120.562 293.219 121.248 293.827 121.204C294.435 121.159 294.874 120.401 294.808 119.51C294.741 118.619 294.195 117.932 293.587 117.977C292.979 118.021 292.54 118.78 292.606 119.671Z" fill="#321907"/><path fill-rule="evenodd" clip-rule="evenodd" d="M298.756 119.851C296.993 122.993 296.019 123.245 294 126.5C292.759 128.5 295.164 130.886 298.071 131" fill="#E58D78"/><path d="M298.756 119.851C296.993 122.993 296.019 123.245 294 126.5C292.759 128.5 295.164 130.886 298.071 131" stroke="#B7523A" stroke-width=".779" stroke-linecap="round" stroke-linejoin="round"/><path d="M322 131.5C322.257 124.399 318.213 108.781 311.869 106.075C294.514 116.288 283.463 114.692 280 98.568C280 98.568 288.901 99.6772 298.369 92.8598C307.838 86.0424 313.397 86.0965 320.499 94.9429C333.308 98.4192 335.378 113.416 326.762 124.278L322 131.5Z" fill="#771D0B"/><path d="M325.17 120.94C323.749 123.503 320.913 124.776 318.836 123.762C316.758 122.748 316.23 119.846 317.675 117.313C319.12 114.781 321.932 113.477 323.965 114.511C325.998 115.545 326.592 118.378 325.17 120.94Z" fill="#E58D78"/><path d="M297.982 148.63L284.198 153.905C282.406 154.584 280.727 155.533 279.221 156.719C274.446 160.506 264.558 170.245 256.09 191.171L274.865 198.8L303.352 173.641C303.352 173.641 294.073 158.545 297.982 148.63Z" fill="#78BB07"/><path d="M274.932 209.151L277.164 198.695L271.185 207.528L274.932 209.151Z" fill="#EDB61D"/><path d="M242.14 130.072C242.14 130.072 230.882 132.163 232.557 145.132 234.232 158.1 228.939 158.737 226.247 162.465 220.518 170.233 228.066 194.981 239.5 197 247.965 198.162 247.454 202.089 255.941 201.159L242.14 130.072zM262.69 124.902C262.69 124.902 272.24 123.901 276.312 137.076 278.156 142.941 280.83 148.512 284.252 153.619 292.882 165.415 290.758 183.784 283.846 187.761 281.141 189.343 271.063 190.182 262.379 184.785 253.695 179.388 263.15 141.175 263.15 141.175L262.69 124.902z" fill="#672444"/><path d="M295.661 225.868L304.715 235.409 270.69 259.474 270.677 272.851 318.468 246.11C318.468 246.11 329.965 241.205 323.19 231.263 318.043 224.007 315.474 219.06 309.513 212.456L295.661 225.868zM215.5 213L203.579 236.949 164.244 219.838 152.678 226.601 200.915 253.239C200.915 253.239 210.952 260.692 216.106 249.803 221.259 238.914 228.536 225.6 228.536 225.6L215.5 213z" fill="#EFBB9D"/><path d="M248.474 177.592L235.11 182.678C233.378 183.333 231.754 184.245 230.294 185.384C225.668 189.063 218.211 198.264 210 218.5L230.294 226.5L253.668 201.778C253.668 201.778 244.687 187.196 248.474 177.592Z" fill="url(#payments-2_svg__b)"/><path d="M264.414 178L279.079 181.877C283.476 183.032 287.541 185.514 290.876 189.079C296.592 195.15 305.428 205.072 310 212.422L296.352 229.357L286.67 220.916C286.67 220.916 282.932 224.685 280.417 242.455C280.131 242.792 281.282 252.471 285.5 280C285.214 279.65 229.5 280 229.5 280C229.5 280 235.013 255.759 233.539 239.763C232.742 231.111 224.508 233.463 227.972 218.224C228.258 213.472 244.81 183.008 247.405 178.121C250.879 178.121 264.414 178 264.414 178Z" fill="#8D4ECC"/><path d="M248 161V179.888C248 182.039 249.106 183.103 251.075 184.624C253.045 186.145 255.715 187 258.5 187C261.285 187 263.955 186.145 265.925 184.624C267.894 183.103 269 182.039 269 179.888L266.5 164L248 161Z" fill="#EFBB9D"/><path d="M248 169.691V178.984C255.21 177.266 259.648 171.907 263.598 164.806L248 169.691Z" fill="#D5895D"/><path d="M236.5 161C237.136 165.396 241.5 171.5 245.5 173C258 176 265.5 167 266.5 164C268.204 158.889 268.5 155 268.5 150.5C268.5 146 269.737 135.792 269.737 135.792L255.304 131.287C248.149 129.935 242.752 131.883 239.072 136.549C237.043 139.16 236.746 141.96 236.502 145.233C236.327 147.939 236.083 151.78 236.164 155.689C236.2 157.902 236.212 158.806 236.5 161Z" fill="#EFBB9D"/><path d="M225 310H289L285.747 279H229.107L225 310Z" fill="#0A1551"/><path fill-rule="evenodd" clip-rule="evenodd" d="M236.397 179.352C236.521 178.982 236.762 178.661 237.083 178.439C237.526 178.12 238.067 177.967 238.611 178.006C239.623 178.221 240.536 178.763 241.209 179.548C242.703 181.072 243.9 182.861 244.739 184.824C245.321 186.122 246.944 189.801 245.023 190.735C243.683 191.398 242.471 190.464 241.67 189.399C242.231 190.995 242.648 193.039 241.276 193.71C239.694 194.494 238.287 193.047 237.543 191.789L236.546 190.112C237.167 191.606 238.133 194.429 236.448 195.266C234.879 196.051 233.54 194.698 232.836 193.521C232.434 192.855 232.051 192.18 231.671 191.506C231.81 192.045 231.941 192.586 232.065 193.129C232.39 194.252 232.376 195.834 230.793 196.24C228.859 196.741 227.533 193.765 227.074 192.71C226.363 191.161 225.998 189.476 226.005 187.773C225.959 186.942 226.241 186.126 226.79 185.5C227.145 185.155 227.599 184.928 228.088 184.851C228.125 184.845 228.163 184.84 228.2 184.836C228.218 184.756 228.241 184.677 228.269 184.6C228.401 184.241 228.646 183.935 228.968 183.728C229.734 183.158 230.595 182.727 231.511 182.456C231.807 182.529 232.096 182.624 232.376 182.74C232.358 182.21 232.57 181.732 233.16 181.374H233.242C233.53 181.047 233.886 180.785 234.284 180.608C234.682 180.43 235.114 180.34 235.55 180.344C235.833 180.346 236.114 180.389 236.384 180.468C236.271 180.105 236.275 179.714 236.397 179.352Z" fill="#E58D78"/><mask id="payments-2_svg__c" style="mask-type:alpha" maskUnits="userSpaceOnUse" x="236" y="130" width="34" height="44"><path d="M236.5 161C237.136 165.396 241.5 171.5 245.5 173C258 176 265.5 167 266.5 164C268.204 158.889 268.5 155 268.5 150.5C268.5 146 269.737 135.792 269.737 135.792L255.304 131.287C248.149 129.935 242.752 131.883 239.072 136.549C237.043 139.16 236.746 141.96 236.502 145.233C236.327 147.939 236.083 151.78 236.164 155.689C236.2 157.902 236.212 158.806 236.5 161Z" fill="#EFBB9D"/></mask><g mask="url(#payments-2_svg__c)"><path fill-rule="evenodd" clip-rule="evenodd" d="M239 155.5C239 157.433 236.538 159 233.5 159C230.462 159 228 157.433 228 155.5C228 153.567 230.462 152 233.5 152C236.538 152 239 153.567 239 155.5ZM262 157.5C262 159.433 259.538 161 256.5 161C253.462 161 251 159.433 251 157.5C251 155.567 253.462 154 256.5 154C259.538 154 262 155.567 262 157.5Z" fill="#E4A078"/><path fill-rule="evenodd" clip-rule="evenodd" d="M238.451 145.421C238.771 145.112 239.304 144.807 239.989 144.783C240.661 144.76 241.561 145.005 242.629 145.936C242.9 146.172 243.31 146.144 243.545 145.874C243.781 145.603 243.753 145.193 243.482 144.958C242.217 143.855 241.007 143.449 239.944 143.486C238.892 143.523 238.065 143.989 237.549 144.487C237.291 144.736 237.284 145.147 237.533 145.405C237.782 145.663 238.193 145.67 238.451 145.421ZM255.523 146.699C254.988 145.97 253.969 145.028 252.603 144.508C251.212 143.977 249.476 143.891 247.59 144.879C247.272 145.046 247.15 145.438 247.316 145.755C247.482 146.073 247.875 146.195 248.192 146.029C249.722 145.228 251.067 145.311 252.14 145.72C253.239 146.139 254.066 146.908 254.477 147.467C254.689 147.756 255.095 147.818 255.384 147.606C255.673 147.394 255.735 146.988 255.523 146.699Z" fill="#672444" fill-opacity=".36"/><path fill-rule="evenodd" clip-rule="evenodd" d="M250.16 162.337C247.944 163.53 245.179 163.267 241.864 161.55C243.718 165.606 245.567 167.361 247.41 166.815C249.253 166.269 250.17 164.776 250.16 162.337Z" fill="#A5330A"/><path fill-rule="evenodd" clip-rule="evenodd" d="M239.606 149.636C239.673 150.528 240.219 151.214 240.827 151.169C241.435 151.125 241.874 150.366 241.808 149.475C241.741 148.584 241.195 147.898 240.587 147.942C239.979 147.987 239.54 148.745 239.606 149.636ZM249.112 150.479C249.178 151.37 249.725 152.056 250.333 152.012C250.941 151.967 251.38 151.209 251.313 150.318C251.247 149.427 250.7 148.74 250.092 148.785C249.485 148.829 249.046 149.588 249.112 150.479Z" fill="#321907"/><path d="M245.756 149.816C243.993 152.958 243.271 153.082 241.481 154.489C239.601 155.965 242.164 158.62 245.071 158.733" stroke="#CE7036" stroke-width=".779" stroke-linecap="round" stroke-linejoin="round"/><path d="M266.221 148.754C263.949 136.066 249.002 130.344 238.803 131.575C245.404 122.729 253.222 123.108 259.093 121.566L270.969 131.034L266.221 148.754Z" fill="#AC4040"/><path d="M238.803 136.576C238.803 136.576 241.765 139.808 247.974 139.362C254.182 138.916 254.642 143.42 259.742 146.477C264.841 149.534 264.463 149.967 264.463 149.967L268.047 144.015L262.555 136.697L254.723 134.56L246.377 132.518L239.614 133.64L238.803 136.576Z" fill="#672444"/></g><mask id="payments-2_svg__d" style="mask-type:alpha" maskUnits="userSpaceOnUse" x="22" y="30" width="179" height="240"><path d="M195.996 30H26.671C24.0913 30 22 32.0898 22 34.6677V264.55C22 267.128 24.0913 269.218 26.671 269.218H195.996C198.575 269.218 200.667 267.128 200.667 264.55V34.6677C200.667 32.0898 198.575 30 195.996 30Z" fill="#fff"/></mask><g mask="url(#payments-2_svg__d)"><path d="M195.996 30.3892H26.671C24.0913 30.3892 22 32.4789 22 35.0568V264.939C22 267.517 24.0913 269.607 26.671 269.607H195.996C198.575 269.607 200.667 267.517 200.667 264.939V35.0568C200.667 32.4789 198.575 30.3892 195.996 30.3892Z" fill="#fff"/><path d="M215.848 17.1641H-16.5359V81.3444H215.848V17.1641Z" fill="#D728C8"/><path d="M180.815 220.207H43.0197C41.0849 220.207 39.5164 221.774 39.5164 223.708V250.547C39.5164 252.48 41.0849 254.048 43.0197 254.048H180.815C182.75 254.048 184.318 252.48 184.318 250.547V223.708C184.318 221.774 182.75 220.207 180.815 220.207Z" fill="#113984" stroke="#113984" stroke-width="2"/><path fill-rule="evenodd" clip-rule="evenodd" d="M117 41.7225H114.86L113.623 39.5558C113.593 39.5051 113.551 39.4629 113.5 39.4337C113.45 39.4044 113.392 39.389 113.333 39.3892H109.333C109.275 39.389 109.217 39.4044 109.166 39.4337C109.115 39.4629 109.073 39.5051 109.044 39.5558L107.807 41.7225H105C104.558 41.723 104.134 41.8988 103.822 42.2112C103.51 42.5237 103.334 42.9473 103.333 43.3892V51.3892C103.334 51.831 103.51 52.2546 103.822 52.5671C104.134 52.8795 104.558 53.0553 105 53.0558H117C117.442 53.0553 117.865 52.8795 118.178 52.5671C118.49 52.2546 118.666 51.831 118.667 51.3892V43.3892C118.666 42.9473 118.49 42.5237 118.178 42.2112C117.865 41.8988 117.442 41.723 117 41.7225ZM106 45.0558C105.868 45.0558 105.739 45.0167 105.63 44.9435C105.52 44.8702 105.435 44.7661 105.384 44.6443C105.334 44.5225 105.32 44.3884 105.346 44.2591C105.372 44.1298 105.435 44.011 105.529 43.9178C105.622 43.8245 105.741 43.761 105.87 43.7353C105.999 43.7096 106.133 43.7228 106.255 43.7732C106.377 43.8237 106.481 43.9091 106.554 44.0188C106.628 44.1284 106.667 44.2573 106.667 44.3892C106.667 44.566 106.596 44.7355 106.471 44.8606C106.346 44.9856 106.177 45.0558 106 45.0558ZM111.333 50.7225C110.674 50.7225 110.03 50.527 109.481 50.1607C108.933 49.7945 108.506 49.2739 108.254 48.6648C108.001 48.0557 107.935 47.3855 108.064 46.7389C108.193 46.0923 108.51 45.4983 108.976 45.0321C109.442 44.566 110.036 44.2485 110.683 44.1199C111.33 43.9913 112 44.0573 112.609 44.3096C113.218 44.5619 113.739 44.9891 114.105 45.5373C114.471 46.0854 114.667 46.7299 114.667 47.3892C114.667 48.2732 114.315 49.1211 113.69 49.7462C113.065 50.3713 112.217 50.7225 111.333 50.7225ZM49.9956 65.4102V62.5502H51.6206C52.6086 62.5502 53.2066 63.1092 53.2066 63.9932C53.2066 64.8642 52.6086 65.4102 51.6206 65.4102H49.9956ZM51.8546 66.7882C53.6226 66.7882 54.7926 65.6052 54.7926 63.9802C54.7926 62.3682 53.6226 61.1722 51.8546 61.1722H48.4356V70.3892H49.9956V66.7882H51.8546ZM57.5324 66.6712C57.5584 65.8652 58.0134 65.2412 58.8454 65.2412C59.7944 65.2412 60.1454 65.8652 60.1454 66.6452V70.3892H61.6534V66.3852C61.6534 64.9942 60.8994 63.8762 59.3394 63.8762C58.6764 63.8762 57.9614 64.1102 57.5324 64.6692V60.9772H56.0244V70.3892H57.5324V66.6712ZM66.2712 69.2322C65.3482 69.2322 64.5032 68.5302 64.5032 67.2172C64.5032 65.9042 65.3482 65.2282 66.2712 65.2282C67.2072 65.2282 68.0392 65.9042 68.0392 67.2172C68.0392 68.5432 67.2072 69.2322 66.2712 69.2322ZM66.2712 63.8632C64.3862 63.8632 62.9952 65.2802 62.9952 67.2172C62.9952 69.1672 64.3862 70.5842 66.2712 70.5842C68.1692 70.5842 69.5602 69.1672 69.5602 67.2172C69.5602 65.2802 68.1692 63.8632 66.2712 63.8632ZM72.8904 62.1212H71.5254V63.0702C71.5254 63.6292 71.2264 64.0582 70.5504 64.0582H70.2254V65.3972H71.3954V68.5822C71.3954 69.7652 72.1234 70.4672 73.2934 70.4672C73.8394 70.4672 74.1254 70.3632 74.2164 70.3242V69.0762C74.1514 69.0892 73.9044 69.1282 73.6964 69.1282C73.1374 69.1282 72.8904 68.8942 72.8904 68.3352V65.3972H74.2034V64.0582H72.8904V62.1212ZM78.4714 69.2322C77.5484 69.2322 76.7034 68.5302 76.7034 67.2172C76.7034 65.9042 77.5484 65.2282 78.4714 65.2282C79.4074 65.2282 80.2394 65.9042 80.2394 67.2172C80.2394 68.5432 79.4074 69.2322 78.4714 69.2322ZM78.4714 63.8632C76.5864 63.8632 75.1954 65.2802 75.1954 67.2172C75.1954 69.1672 76.5864 70.5842 78.4714 70.5842C80.3694 70.5842 81.7604 69.1672 81.7604 67.2172C81.7604 65.2802 80.3694 63.8632 78.4714 63.8632ZM82.7627 70.7402C82.9317 72.0142 84.1017 73.0542 85.7787 73.0542C88.1577 73.0542 89.0287 71.4812 89.0287 69.7912V64.0582H87.5727V64.8642C87.2997 64.3442 86.6887 63.9412 85.7007 63.9412C83.9587 63.9412 82.7757 65.3322 82.7757 67.0222C82.7757 68.8032 84.0107 70.1032 85.7007 70.1032C86.6237 70.1032 87.2607 69.6742 87.5337 69.1802V69.8432C87.5337 71.1302 86.9357 71.7412 85.7397 71.7412C84.8687 71.7412 84.2577 71.1562 84.1537 70.3762L82.7627 70.7402ZM85.9477 68.8162C84.9597 68.8162 84.2967 68.1272 84.2967 67.0222C84.2967 65.9432 84.9857 65.2412 85.9477 65.2412C86.8837 65.2412 87.5727 65.9432 87.5727 67.0222C87.5727 68.1142 86.9097 68.8162 85.9477 68.8162ZM94.578 64.0192C94.513 64.0062 94.357 63.9802 94.175 63.9802C93.343 63.9802 92.641 64.3832 92.342 65.0722V64.0582H90.873V70.3892H92.381V67.3732C92.381 66.1902 92.914 65.5142 94.084 65.5142C94.24 65.5142 94.409 65.5272 94.578 65.5532V64.0192ZM95.4595 68.6732C95.4595 69.6742 96.2785 70.5842 97.6045 70.5842C98.6315 70.5842 99.2556 70.0642 99.5546 69.5832C99.5546 70.0902 99.6066 70.3502 99.6195 70.3892H101.024C101.011 70.3242 100.946 69.9472 100.946 69.3752V66.2292C100.946 64.9682 100.205 63.8632 98.2546 63.8632C96.6945 63.8632 95.7065 64.8382 95.5895 65.9302L96.9676 66.2422C97.0325 65.6052 97.4745 65.0982 98.2675 65.0982C99.0996 65.0982 99.4636 65.5272 99.4636 66.0602C99.4636 66.2812 99.3596 66.4632 98.9955 66.5152L97.3705 66.7622C96.2915 66.9182 95.4595 67.5422 95.4595 68.6732ZM97.8905 69.4012C97.2925 69.4012 96.9676 69.0112 96.9676 68.5822C96.9676 68.0622 97.3446 67.8022 97.8126 67.7242L99.4636 67.4772V67.7632C99.4636 68.9982 98.7356 69.4012 97.8905 69.4012ZM104.263 72.8592V69.6742C104.588 70.1552 105.277 70.5452 106.187 70.5452C108.007 70.5452 109.164 69.1152 109.164 67.2172C109.164 65.3452 108.111 63.9152 106.239 63.9152C105.264 63.9152 104.536 64.3702 104.224 64.9162V64.0582H102.768V72.8592H104.263ZM107.656 67.2172C107.656 68.4262 106.954 69.2062 105.953 69.2062C104.965 69.2062 104.25 68.4262 104.25 67.2172C104.25 66.0342 104.965 65.2542 105.953 65.2542C106.967 65.2542 107.656 66.0342 107.656 67.2172ZM112.122 66.6712C112.148 65.8652 112.603 65.2412 113.435 65.2412C114.384 65.2412 114.735 65.8652 114.735 66.6452V70.3892H116.243V66.3852C116.243 64.9942 115.489 63.8762 113.929 63.8762C113.266 63.8762 112.551 64.1102 112.122 64.6692V60.9772H110.614V70.3892H112.122V66.6712ZM119.94 72.9502L123.97 64.0582H122.371L120.668 68.0622L118.848 64.0582H117.145L119.849 69.6352L118.328 72.9502H119.94ZM134.487 63.3302C134.279 62.3032 133.434 60.9772 131.263 60.9772C129.547 60.9772 128.13 62.2512 128.13 63.7982C128.13 65.1762 129.066 66.0992 130.47 66.3852L131.77 66.6582C132.563 66.8272 133.005 67.3082 133.005 67.9062C133.005 68.6212 132.433 69.1802 131.328 69.1802C130.002 69.1802 129.313 68.2962 129.222 67.3342L127.766 67.7502C127.909 69.0762 128.988 70.5842 131.328 70.5842C133.434 70.5842 134.591 69.2192 134.591 67.7892C134.591 66.4892 133.72 65.4622 132.095 65.1372L130.769 64.8642C130.054 64.7082 129.69 64.2662 129.69 63.6812C129.69 62.9792 130.34 62.3552 131.276 62.3552C132.511 62.3552 132.992 63.2002 133.083 63.7722L134.487 63.3302ZM137.045 66.5282C137.097 65.8522 137.643 65.1242 138.592 65.1242C139.632 65.1242 140.126 65.7872 140.152 66.5282H137.045ZM140.321 68.1792C140.113 68.8032 139.645 69.2842 138.735 69.2842C137.799 69.2842 137.045 68.5952 137.006 67.6332H141.634C141.647 67.6072 141.673 67.3992 141.673 67.1522C141.673 65.1502 140.529 63.8632 138.579 63.8632C136.98 63.8632 135.498 65.1892 135.498 67.1912C135.498 69.3362 137.019 70.5842 138.735 70.5842C140.256 70.5842 141.257 69.6872 141.595 68.5822L140.321 68.1792ZM142.555 68.6732C142.633 69.3882 143.335 70.5842 145.168 70.5842C146.78 70.5842 147.56 69.5182 147.56 68.5562C147.56 67.6202 146.936 66.8922 145.74 66.6322L144.778 66.4372C144.388 66.3592 144.141 66.1122 144.141 65.7742C144.141 65.3842 144.518 65.0462 145.051 65.0462C145.896 65.0462 146.169 65.6312 146.221 65.9952L147.495 65.6312C147.391 65.0072 146.819 63.8632 145.051 63.8632C143.738 63.8632 142.724 64.7992 142.724 65.9042C142.724 66.7752 143.309 67.5032 144.427 67.7502L145.363 67.9582C145.87 68.0622 146.104 68.3222 146.104 68.6602C146.104 69.0502 145.779 69.3882 145.155 69.3882C144.349 69.3882 143.92 68.8812 143.868 68.3092L142.555 68.6732ZM148.497 68.6732C148.575 69.3882 149.277 70.5842 151.11 70.5842C152.722 70.5842 153.502 69.5182 153.502 68.5562C153.502 67.6202 152.878 66.8922 151.682 66.6322L150.72 66.4372C150.33 66.3592 150.083 66.1122 150.083 65.7742C150.083 65.3842 150.46 65.0462 150.993 65.0462C151.838 65.0462 152.111 65.6312 152.163 65.9952L153.437 65.6312C153.333 65.0072 152.761 63.8632 150.993 63.8632C149.68 63.8632 148.666 64.7992 148.666 65.9042C148.666 66.7752 149.251 67.5032 150.369 67.7502L151.305 67.9582C151.812 68.0622 152.046 68.3222 152.046 68.6602C152.046 69.0502 151.721 69.3882 151.097 69.3882C150.291 69.3882 149.862 68.8812 149.81 68.3092L148.497 68.6732ZM156.492 70.3892V64.0582H154.997V70.3892H156.492ZM154.763 61.8352C154.763 62.3812 155.205 62.8102 155.738 62.8102C156.284 62.8102 156.726 62.3812 156.726 61.8352C156.726 61.2892 156.284 60.8472 155.738 60.8472C155.205 60.8472 154.763 61.2892 154.763 61.8352ZM161.219 69.2322C160.296 69.2322 159.451 68.5302 159.451 67.2172C159.451 65.9042 160.296 65.2282 161.219 65.2282C162.155 65.2282 162.987 65.9042 162.987 67.2172C162.987 68.5432 162.155 69.2322 161.219 69.2322ZM161.219 63.8632C159.334 63.8632 157.943 65.2802 157.943 67.2172C157.943 69.1672 159.334 70.5842 161.219 70.5842C163.117 70.5842 164.508 69.1672 164.508 67.2172C164.508 65.2802 163.117 63.8632 161.219 63.8632ZM167.474 66.7362C167.474 65.9042 167.929 65.2412 168.787 65.2412C169.736 65.2412 170.087 65.8652 170.087 66.6452V70.3892H171.595V66.3852C171.595 64.9942 170.854 63.8762 169.307 63.8762C168.605 63.8762 167.851 64.1752 167.435 64.9032V64.0582H165.966V70.3892H167.474V66.7362ZM87.2478 233.6V236.68H88.9978C90.0618 236.68 90.7058 236.092 90.7058 235.154C90.7058 234.202 90.0618 233.6 88.9978 233.6H87.2478ZM92.4138 235.14C92.4138 236.89 91.1538 238.164 89.2498 238.164H87.2478V242.042H85.5678V232.116H89.2498C91.1538 232.116 92.4138 233.404 92.4138 235.14ZM95.4116 242.252C93.9836 242.252 93.1016 241.272 93.1016 240.194C93.1016 238.976 93.9976 238.304 95.1596 238.136L96.9096 237.87C97.3016 237.814 97.4136 237.618 97.4136 237.38C97.4136 236.806 97.0216 236.344 96.1256 236.344C95.2716 236.344 94.7956 236.89 94.7256 237.576L93.2416 237.24C93.3676 236.064 94.4316 235.014 96.1116 235.014C98.2116 235.014 99.0096 236.204 99.0096 237.562V240.95C99.0096 241.566 99.0796 241.972 99.0936 242.042H97.5816C97.5676 242 97.5116 241.72 97.5116 241.174C97.1896 241.692 96.5176 242.252 95.4116 242.252ZM94.7256 240.096C94.7256 240.558 95.0756 240.978 95.7196 240.978C96.6296 240.978 97.4136 240.544 97.4136 239.214V238.906L95.6356 239.172C95.1316 239.256 94.7256 239.536 94.7256 240.096ZM107.221 235.224L102.881 244.8H101.145L102.783 241.23L99.8707 235.224H101.705L103.665 239.536L105.499 235.224H107.221ZM120.353 232.116V242.042H118.603L113.703 234.524V242.042H112.023V232.116H114.165L118.673 239.158V232.116H120.353ZM123.653 238.626C123.653 240.04 124.563 240.796 125.557 240.796C126.565 240.796 127.461 240.054 127.461 238.626C127.461 237.212 126.565 236.484 125.557 236.484C124.563 236.484 123.653 237.212 123.653 238.626ZM122.029 238.626C122.029 236.54 123.527 235.014 125.557 235.014C127.601 235.014 129.099 236.54 129.099 238.626C129.099 240.726 127.601 242.252 125.557 242.252C123.527 242.252 122.029 240.726 122.029 238.626ZM132.758 239.942L134.368 235.224H136.048L137.658 239.942L139.016 235.224H140.668L138.484 242.042H136.86L135.166 237.142L133.514 242.042H131.848L129.636 235.224H131.372L132.758 239.942Z" fill="#fff"/><path d="M43.0195 175.864C46.8891 175.864 50.026 172.73 50.026 168.863C50.026 164.996 46.8891 161.861 43.0195 161.861C39.1499 161.861 36.0129 164.996 36.0129 168.863C36.0129 172.73 39.1499 175.864 43.0195 175.864Z" fill="#fff" stroke="#3272EB"/><path fill-rule="evenodd" clip-rule="evenodd" d="M138.465 171.793V172.981H137.343V171.804C135.814 171.595 135.088 170.484 134.989 169.549L136.353 169.219C136.419 169.912 136.881 170.55 137.893 170.55C138.608 170.55 139.026 170.209 139.026 169.725C139.026 169.351 138.751 169.065 138.201 168.944L137.189 168.724C136.001 168.46 135.264 167.712 135.264 166.656C135.264 165.49 136.166 164.632 137.343 164.445V163.268H138.465V164.478C139.73 164.709 140.28 165.589 140.434 166.326L139.081 166.711C139.015 166.326 138.729 165.688 137.827 165.688C137.123 165.688 136.738 166.095 136.738 166.546C136.738 166.887 136.98 167.173 137.497 167.283L138.498 167.514C139.884 167.822 140.511 168.647 140.511 169.637C140.511 170.649 139.785 171.584 138.465 171.793ZM144.05 171.87C142.499 171.87 141.421 170.814 141.333 169.692L142.752 169.373C142.785 170.033 143.291 170.572 144.05 170.572C144.732 170.572 145.282 170.121 145.282 169.406C145.282 168.592 144.677 168.207 144.017 168.207C143.533 168.207 143.148 168.427 142.917 168.691C142.774 168.636 141.685 168.262 141.531 168.218L142.378 164.555H146.404V165.864H143.412L143.06 167.437C143.368 167.151 143.874 166.997 144.347 166.997C145.777 166.997 146.789 167.855 146.789 169.384C146.789 170.715 145.766 171.87 144.05 171.87ZM149.427 166.315C149.152 166.744 149.042 167.382 149.042 168.13C149.042 168.878 149.152 169.516 149.427 169.945C149.647 170.297 149.988 170.528 150.505 170.528C151.033 170.528 151.352 170.297 151.572 169.945C151.858 169.516 151.968 168.878 151.968 168.13C151.968 167.382 151.858 166.744 151.572 166.315C151.352 165.963 151.033 165.732 150.505 165.732C149.988 165.732 149.647 165.963 149.427 166.315ZM148.151 170.671C147.667 169.934 147.524 169.043 147.524 168.13C147.524 167.217 147.667 166.326 148.151 165.589C148.624 164.885 149.394 164.39 150.505 164.39C151.616 164.39 152.386 164.885 152.848 165.589C153.332 166.326 153.486 167.217 153.486 168.13C153.486 169.043 153.332 169.934 152.848 170.671C152.386 171.375 151.616 171.87 150.505 171.87C149.394 171.87 148.624 171.375 148.151 170.671ZM156.27 166.315C155.995 166.744 155.885 167.382 155.885 168.13C155.885 168.878 155.995 169.516 156.27 169.945C156.49 170.297 156.831 170.528 157.348 170.528C157.876 170.528 158.195 170.297 158.415 169.945C158.701 169.516 158.811 168.878 158.811 168.13C158.811 167.382 158.701 166.744 158.415 166.315C158.195 165.963 157.876 165.732 157.348 165.732C156.831 165.732 156.49 165.963 156.27 166.315ZM154.994 170.671C154.51 169.934 154.367 169.043 154.367 168.13C154.367 167.217 154.51 166.326 154.994 165.589C155.467 164.885 156.237 164.39 157.348 164.39C158.459 164.39 159.229 164.885 159.691 165.589C160.175 166.326 160.329 167.217 160.329 168.13C160.329 169.043 160.175 169.934 159.691 170.671C159.229 171.375 158.459 171.87 157.348 171.87C156.237 171.87 155.467 171.375 154.994 170.671ZM162.045 171.771C161.495 171.771 161.044 171.32 161.044 170.77C161.044 170.22 161.495 169.769 162.045 169.769C162.606 169.769 163.057 170.22 163.057 170.77C163.057 171.32 162.606 171.771 162.045 171.771ZM165.895 166.315C165.62 166.744 165.51 167.382 165.51 168.13C165.51 168.878 165.62 169.516 165.895 169.945C166.115 170.297 166.456 170.528 166.973 170.528C167.501 170.528 167.82 170.297 168.04 169.945C168.326 169.516 168.436 168.878 168.436 168.13C168.436 167.382 168.326 166.744 168.04 166.315C167.82 165.963 167.501 165.732 166.973 165.732C166.456 165.732 166.115 165.963 165.895 166.315ZM164.619 170.671C164.135 169.934 163.992 169.043 163.992 168.13C163.992 167.217 164.135 166.326 164.619 165.589C165.092 164.885 165.862 164.39 166.973 164.39C168.084 164.39 168.854 164.885 169.316 165.589C169.8 166.326 169.954 167.217 169.954 168.13C169.954 169.043 169.8 169.934 169.316 170.671C168.854 171.375 168.084 171.87 166.973 171.87C165.862 171.87 165.092 171.375 164.619 170.671ZM172.738 166.315C172.463 166.744 172.353 167.382 172.353 168.13C172.353 168.878 172.463 169.516 172.738 169.945C172.958 170.297 173.299 170.528 173.816 170.528C174.344 170.528 174.663 170.297 174.883 169.945C175.169 169.516 175.279 168.878 175.279 168.13C175.279 167.382 175.169 166.744 174.883 166.315C174.663 165.963 174.344 165.732 173.816 165.732C173.299 165.732 172.958 165.963 172.738 166.315ZM171.462 170.671C170.978 169.934 170.835 169.043 170.835 168.13C170.835 167.217 170.978 166.326 171.462 165.589C171.935 164.885 172.705 164.39 173.816 164.39C174.927 164.39 175.697 164.885 176.159 165.589C176.643 166.326 176.797 167.217 176.797 168.13C176.797 169.043 176.643 169.934 176.159 170.671C175.697 171.375 174.927 171.87 173.816 171.87C172.705 171.87 171.935 171.375 171.462 170.671ZM61.7324 163.895L63.4704 169.285L64.8784 163.895H66.4294L64.2734 171.694H62.7114L60.9294 166.139L59.1474 171.694H57.5634L55.3964 163.895H57.0024L58.4324 169.263L60.1594 163.895H61.7324ZM69.2042 167.305C68.4452 167.305 68.0272 167.877 67.9942 168.372H70.4142C70.3922 167.833 70.0402 167.305 69.2042 167.305ZM69.3252 170.605C70.0072 170.605 70.3812 170.264 70.5572 169.78L71.7782 170.143C71.5032 171.078 70.6452 171.859 69.3142 171.859C67.8292 171.859 66.5202 170.792 66.5202 168.966C66.5202 167.239 67.7962 166.117 69.1822 166.117C70.8542 166.117 71.8552 167.184 71.8552 168.922C71.8552 169.08 71.8427 169.244 71.8365 169.324C71.8345 169.35 71.8332 169.368 71.8332 169.373H67.9612C67.9942 170.088 68.5992 170.605 69.3252 170.605ZM76.7253 163.73H78.1663V170.715C78.1663 171.078 78.1883 171.474 78.2103 171.694H76.8133C76.7913 171.584 76.7583 171.32 76.7583 171.067C76.5163 171.496 75.9663 171.826 75.2403 171.826C73.7003 171.826 72.6003 170.616 72.6003 168.977C72.6003 167.393 73.6673 166.15 75.1963 166.15C76.1313 166.15 76.5713 166.535 76.7253 166.821V163.73ZM75.4163 167.459C74.6683 167.459 74.0743 168.009 74.0743 168.977C74.0743 169.945 74.6463 170.517 75.4163 170.517C76.1643 170.517 76.7473 169.945 76.7473 168.966C76.7473 167.998 76.1643 167.459 75.4163 167.459ZM83.4714 163.73H84.9124V170.715C84.9124 171.078 84.9344 171.474 84.9564 171.694H83.5594C83.5374 171.584 83.5044 171.32 83.5044 171.067C83.2624 171.496 82.7124 171.826 81.9864 171.826C80.4464 171.826 79.3464 170.616 79.3464 168.977C79.3464 167.393 80.4134 166.15 81.9424 166.15C82.8774 166.15 83.3174 166.535 83.4714 166.821V163.73ZM82.1624 167.459C81.4144 167.459 80.8204 168.009 80.8204 168.977C80.8204 169.945 81.3924 170.517 82.1624 170.517C82.9104 170.517 83.4934 169.945 83.4934 168.966C83.4934 167.998 82.9104 167.459 82.1624 167.459ZM87.9625 166.282V171.694H86.4995V166.282H87.9625ZM87.2255 165.402C86.7305 165.402 86.3235 164.995 86.3235 164.511C86.3235 164.005 86.7305 163.598 87.2255 163.598C87.7315 163.598 88.1275 164.005 88.1275 164.511C88.1275 164.995 87.7315 165.402 87.2255 165.402ZM92.0038 167.459C91.3658 167.459 90.9918 167.954 90.9918 168.581V171.694H89.5288V166.282H90.9478V166.953C91.2778 166.392 91.9268 166.139 92.5098 166.139C93.8518 166.139 94.4678 167.096 94.4678 168.284V171.694H93.0048V168.537C93.0048 167.932 92.7078 167.459 92.0038 167.459ZM98.1966 173.949C96.7116 173.949 95.7216 173.025 95.5676 171.991L96.8876 171.639C96.9866 172.233 97.4596 172.662 98.1526 172.662C99.0766 172.662 99.5936 172.2 99.5936 171.155V170.759C99.3736 171.111 98.8676 171.452 98.0866 171.452C96.6456 171.452 95.5676 170.341 95.5676 168.823C95.5676 167.393 96.6016 166.183 98.0866 166.183C98.9446 166.183 99.4396 166.557 99.6266 166.92V166.282H101.035V171.111C101.035 172.596 100.232 173.949 98.1966 173.949ZM97.0416 168.823C97.0416 169.67 97.5806 170.198 98.3396 170.198C99.0876 170.198 99.6156 169.659 99.6156 168.823C99.6156 167.987 99.0436 167.459 98.3396 167.459C97.6136 167.459 97.0416 167.987 97.0416 168.823Z" fill="#444E71"/><path fill-rule="evenodd" clip-rule="evenodd" d="M43.0195 112.851C46.8891 112.851 50.026 109.716 50.026 105.85C50.026 101.983 46.8891 98.8479 43.0195 98.8479C39.1499 98.8479 36.0129 101.983 36.0129 105.85C36.0129 109.716 39.1499 112.851 43.0195 112.851ZM43.0195 144.358C46.8891 144.358 50.026 141.223 50.026 137.356C50.026 133.49 46.8891 130.355 43.0195 130.355C39.1499 130.355 36.0129 133.49 36.0129 137.356C36.0129 141.223 39.1499 144.358 43.0195 144.358ZM50.026 199.203C50.026 203.07 46.8891 206.204 43.0195 206.204C39.1499 206.204 36.0129 203.07 36.0129 199.203C36.0129 195.336 39.1499 192.201 43.0195 192.201C46.8891 192.201 50.026 195.336 50.026 199.203Z" fill="#fff"/><path fill-rule="evenodd" clip-rule="evenodd" d="M43.0195 99.3479C39.4257 99.3479 36.5129 102.259 36.5129 105.85C36.5129 109.439 39.4257 112.351 43.0195 112.351C46.6133 112.351 49.526 109.439 49.526 105.85C49.526 102.259 46.6133 99.3479 43.0195 99.3479ZM35.5129 105.85C35.5129 101.706 38.8741 98.3479 43.0195 98.3479C47.165 98.3479 50.526 101.706 50.526 105.85C50.526 109.992 47.1649 113.351 43.0195 113.351C38.8741 113.351 35.5129 109.992 35.5129 105.85ZM43.0195 130.855C39.4257 130.855 36.5129 133.766 36.5129 137.356C36.5129 140.947 39.4257 143.858 43.0195 143.858C46.6133 143.858 49.526 140.947 49.526 137.356C49.526 133.766 46.6133 130.855 43.0195 130.855ZM35.5129 137.356C35.5129 133.213 38.8741 129.855 43.0195 129.855C47.1649 129.855 50.526 133.214 50.526 137.356C50.526 141.499 47.165 144.858 43.0195 144.858C38.8741 144.858 35.5129 141.499 35.5129 137.356ZM35.5129 199.203C35.5129 195.059 38.8741 191.701 43.0195 191.701C47.165 191.701 50.526 195.059 50.526 199.203C50.526 203.346 47.1649 206.704 43.0195 206.704C38.8742 206.704 35.5129 203.346 35.5129 199.203ZM43.0195 192.701C39.4257 192.701 36.5129 195.612 36.5129 199.203C36.5129 202.793 39.4257 205.704 43.0195 205.704C46.6134 205.704 49.526 202.793 49.526 199.203C49.526 195.612 46.6133 192.701 43.0195 192.701Z" fill="#979797"/><path fill-rule="evenodd" clip-rule="evenodd" d="M140.755 108.802V109.968H139.743V108.813C138.214 108.626 137.477 107.537 137.378 106.591L138.61 106.25C138.665 106.877 139.006 107.493 139.743 107.669V105.645L139.545 105.601C138.379 105.337 137.653 104.655 137.653 103.577C137.653 102.488 138.533 101.586 139.743 101.421V100.255H140.755V101.432C142.053 101.641 142.603 102.543 142.757 103.269L141.569 103.643C141.514 103.313 141.305 102.807 140.755 102.598V104.567L140.854 104.589C142.163 104.875 142.834 105.7 142.834 106.679C142.834 107.669 142.108 108.615 140.755 108.802ZM139.743 102.554C139.215 102.686 138.94 103.082 138.94 103.5C138.94 103.896 139.193 104.248 139.743 104.358V102.554ZM140.755 107.669C141.305 107.559 141.558 107.163 141.558 106.745C141.558 106.349 141.305 106.019 140.755 105.865V107.669ZM146.704 101.553V108.681H145.406V103.797H143.679V102.895C144.702 102.873 145.406 102.301 145.56 101.553H146.704ZM149.339 104.102C149.343 104.144 149.348 104.186 149.352 104.226L148.076 104.138L148.071 104.09C148.059 103.991 148.043 103.853 148.043 103.731C148.043 102.499 148.967 101.388 150.584 101.388C152.157 101.388 153.092 102.411 153.092 103.632C153.092 104.556 152.575 105.315 151.717 105.843L150.331 106.701C149.99 106.91 149.704 107.163 149.605 107.515H153.136V108.681H147.977C147.999 107.46 148.428 106.503 149.671 105.733L150.848 104.996C151.486 104.6 151.761 104.171 151.761 103.654C151.761 103.071 151.365 102.543 150.562 102.543C149.726 102.543 149.319 103.126 149.319 103.863C149.319 103.936 149.329 104.019 149.339 104.102L149.339 104.102ZM156.558 108.857C155.018 108.857 153.962 107.834 153.874 106.712L155.117 106.393C155.172 107.152 155.733 107.724 156.558 107.724C157.306 107.724 157.911 107.218 157.911 106.426C157.911 105.546 157.262 105.106 156.536 105.106C156.03 105.106 155.601 105.315 155.348 105.601L154.105 105.15L154.985 101.553H158.89V102.708H155.876L155.436 104.512C155.744 104.193 156.294 104.017 156.8 104.017C158.219 104.017 159.242 104.897 159.242 106.393C159.242 107.735 158.208 108.857 156.558 108.857ZM161.102 108.747C160.607 108.747 160.211 108.351 160.211 107.856C160.211 107.361 160.607 106.954 161.102 106.954C161.597 106.954 162.004 107.361 162.004 107.856C162.004 108.351 161.597 108.747 161.102 108.747ZM164.824 103.082C164.472 103.522 164.318 104.215 164.318 105.117C164.318 106.019 164.483 106.712 164.824 107.152C165.066 107.471 165.407 107.68 165.924 107.68C166.441 107.68 166.771 107.471 167.024 107.152C167.365 106.712 167.519 106.019 167.519 105.117C167.519 104.215 167.365 103.522 167.024 103.082C166.771 102.763 166.441 102.554 165.924 102.554C165.407 102.554 165.066 102.763 164.824 103.082ZM163.647 107.68C163.163 106.954 163.009 106.063 163.009 105.117C163.009 104.171 163.163 103.28 163.647 102.554C164.109 101.861 164.857 101.388 165.924 101.388C166.991 101.388 167.728 101.861 168.19 102.554C168.674 103.28 168.828 104.171 168.828 105.117C168.828 106.063 168.674 106.954 168.19 107.68C167.728 108.373 166.991 108.846 165.924 108.846C164.857 108.846 164.109 108.373 163.647 107.68ZM171.602 103.082C171.25 103.522 171.096 104.215 171.096 105.117C171.096 106.019 171.261 106.712 171.602 107.152C171.844 107.471 172.185 107.68 172.702 107.68C173.219 107.68 173.549 107.471 173.802 107.152C174.143 106.712 174.297 106.019 174.297 105.117C174.297 104.215 174.143 103.522 173.802 103.082C173.549 102.763 173.219 102.554 172.702 102.554C172.185 102.554 171.844 102.763 171.602 103.082ZM170.425 107.68C169.941 106.954 169.787 106.063 169.787 105.117C169.787 104.171 169.941 103.28 170.425 102.554C170.887 101.861 171.635 101.388 172.702 101.388C173.769 101.388 174.506 101.861 174.968 102.554C175.452 103.28 175.606 104.171 175.606 105.117C175.606 106.063 175.452 106.954 174.968 107.68C174.506 108.373 173.769 108.846 172.702 108.846C171.635 108.846 170.887 108.373 170.425 107.68ZM57.018 101.591V108.681H55.798V101.591H57.018ZM60.7879 104.721C60.1279 104.721 59.7779 105.231 59.7779 105.871V108.681H58.6179V103.811H59.7479V104.461C60.0679 103.901 60.6479 103.671 61.1879 103.671C62.3779 103.671 62.9479 104.531 62.9479 105.601V108.681H61.7879V105.801C61.7879 105.201 61.5179 104.721 60.7879 104.721ZM66.4601 104.711C65.7001 104.711 65.1401 105.301 65.1401 106.231C65.1401 107.161 65.6601 107.781 66.4501 107.781C67.2101 107.781 67.7401 107.151 67.7401 106.221C67.7401 105.291 67.2201 104.711 66.4601 104.711ZM67.7301 101.441H68.8601V107.791C68.8601 108.231 68.9001 108.601 68.9101 108.681H67.8001C67.7801 108.571 67.7501 108.251 67.7501 108.051C67.5201 108.461 67.0101 108.801 66.3201 108.801C64.9201 108.801 63.9801 107.701 63.9801 106.231C63.9801 104.831 64.9301 103.681 66.3001 103.681C67.1501 103.681 67.5801 104.071 67.7301 104.381V101.441ZM71.1557 106.241C71.1557 107.251 71.8057 107.791 72.5157 107.791C73.2357 107.791 73.8757 107.261 73.8757 106.241C73.8757 105.231 73.2357 104.711 72.5157 104.711C71.8057 104.711 71.1557 105.231 71.1557 106.241ZM69.9957 106.241C69.9957 104.751 71.0657 103.661 72.5157 103.661C73.9757 103.661 75.0457 104.751 75.0457 106.241C75.0457 107.741 73.9757 108.831 72.5157 108.831C71.0657 108.831 69.9957 107.741 69.9957 106.241ZM76.9467 106.241C76.9467 107.251 77.5967 107.791 78.3067 107.791C79.0267 107.791 79.6667 107.261 79.6667 106.241C79.6667 105.231 79.0267 104.711 78.3067 104.711C77.5967 104.711 76.9467 105.231 76.9467 106.241ZM75.7867 106.241C75.7867 104.751 76.8567 103.661 78.3067 103.661C79.7667 103.661 80.8367 104.751 80.8367 106.241C80.8367 107.741 79.7667 108.831 78.3067 108.831C76.8567 108.831 75.7867 107.741 75.7867 106.241ZM84.4978 103.751C84.6378 103.751 84.7578 103.771 84.8078 103.781V104.961C84.6778 104.941 84.5478 104.931 84.4278 104.931C83.5278 104.931 83.1178 105.451 83.1178 106.361V108.681H81.9578V103.811H83.0878V104.591C83.3178 104.061 83.8578 103.751 84.4978 103.751ZM138.329 141.475V140.309C139.682 140.122 140.408 139.176 140.408 138.186C140.408 137.207 139.737 136.382 138.428 136.096L138.329 136.074V134.105C138.879 134.314 139.088 134.82 139.143 135.15L140.331 134.776C140.177 134.05 139.627 133.148 138.329 132.939V131.762H137.317V132.928C136.107 133.093 135.227 133.995 135.227 135.084C135.227 136.162 135.953 136.844 137.119 137.108L137.317 137.152V139.176C136.58 139 136.239 138.384 136.184 137.757L134.952 138.098C135.051 139.044 135.788 140.133 137.317 140.32V141.475H138.329ZM136.514 135.007C136.514 134.589 136.789 134.193 137.317 134.061V135.865C136.767 135.755 136.514 135.403 136.514 135.007ZM139.132 138.252C139.132 138.67 138.879 139.066 138.329 139.176V137.372C138.879 137.526 139.132 137.856 139.132 138.252ZM142.715 135.733C142.711 135.693 142.706 135.651 142.702 135.61C142.692 135.526 142.682 135.443 142.682 135.37C142.682 134.633 143.089 134.05 143.925 134.05C144.728 134.05 145.124 134.578 145.124 135.161C145.124 135.678 144.849 136.107 144.211 136.503L143.034 137.24C141.791 138.01 141.362 138.967 141.34 140.188H146.499V139.022H142.968C143.067 138.67 143.353 138.417 143.694 138.208L145.08 137.35C145.938 136.822 146.455 136.063 146.455 135.139C146.455 133.918 145.52 132.895 143.947 132.895C142.33 132.895 141.406 134.006 141.406 135.238C141.406 135.381 141.428 135.546 141.439 135.645L142.715 135.733ZM148.623 135.733C148.619 135.693 148.614 135.651 148.61 135.61L148.61 135.609C148.6 135.526 148.59 135.443 148.59 135.37C148.59 134.633 148.997 134.05 149.833 134.05C150.636 134.05 151.032 134.578 151.032 135.161C151.032 135.678 150.757 136.107 150.119 136.503L148.942 137.24C147.699 138.01 147.27 138.967 147.248 140.188H152.407V139.022H148.876C148.975 138.67 149.261 138.417 149.602 138.208L150.988 137.35C151.846 136.822 152.363 136.063 152.363 135.139C152.363 133.918 151.428 132.895 149.855 132.895C148.238 132.895 147.314 134.006 147.314 135.238C147.314 135.36 147.33 135.498 147.342 135.597L147.347 135.645L148.623 135.733ZM153.145 138.219C153.233 139.341 154.289 140.364 155.829 140.364C157.479 140.364 158.513 139.242 158.513 137.9C158.513 136.404 157.49 135.524 156.071 135.524C155.565 135.524 155.015 135.7 154.707 136.019L155.147 134.215H158.161V133.06H154.256L153.376 136.657L154.619 137.108C154.872 136.822 155.301 136.613 155.807 136.613C156.533 136.613 157.182 137.053 157.182 137.933C157.182 138.725 156.577 139.231 155.829 139.231C155.004 139.231 154.443 138.659 154.388 137.9L153.145 138.219ZM159.481 139.363C159.481 139.858 159.877 140.254 160.372 140.254C160.867 140.254 161.274 139.858 161.274 139.363C161.274 138.868 160.867 138.461 160.372 138.461C159.877 138.461 159.481 138.868 159.481 139.363ZM163.588 136.624C163.588 135.722 163.742 135.029 164.094 134.589C164.336 134.27 164.677 134.061 165.194 134.061C165.711 134.061 166.041 134.27 166.294 134.589C166.635 135.029 166.789 135.722 166.789 136.624C166.789 137.526 166.635 138.219 166.294 138.659C166.041 138.978 165.711 139.187 165.194 139.187C164.677 139.187 164.336 138.978 164.094 138.659C163.753 138.219 163.588 137.526 163.588 136.624ZM162.279 136.624C162.279 137.57 162.433 138.461 162.917 139.187C163.379 139.88 164.127 140.353 165.194 140.353C166.261 140.353 166.998 139.88 167.46 139.187C167.944 138.461 168.098 137.57 168.098 136.624C168.098 135.678 167.944 134.787 167.46 134.061C166.998 133.368 166.261 132.895 165.194 132.895C164.127 132.895 163.379 133.368 162.917 134.061C162.433 134.787 162.279 135.678 162.279 136.624ZM170.367 136.624C170.367 135.722 170.521 135.029 170.873 134.589C171.115 134.27 171.456 134.061 171.973 134.061C172.49 134.061 172.82 134.27 173.073 134.589C173.414 135.029 173.568 135.722 173.568 136.624C173.568 137.526 173.414 138.219 173.073 138.659C172.82 138.978 172.49 139.187 171.973 139.187C171.456 139.187 171.115 138.978 170.873 138.659C170.532 138.219 170.367 137.526 170.367 136.624ZM169.058 136.624C169.058 137.57 169.212 138.461 169.696 139.187C170.158 139.88 170.906 140.353 171.973 140.353C173.04 140.353 173.777 139.88 174.239 139.187C174.723 138.461 174.877 137.57 174.877 136.624C174.877 135.678 174.723 134.787 174.239 134.061C173.777 133.368 173.04 132.895 171.973 132.895C170.906 132.895 170.158 133.368 169.696 134.061C169.212 134.787 169.058 135.678 169.058 136.624ZM58.8407 134.078C57.6507 134.078 56.4707 134.928 56.4707 136.638C56.4707 138.348 57.6507 139.198 58.8407 139.198C60.0407 139.198 61.2207 138.348 61.2207 136.638C61.2207 134.928 60.0407 134.078 58.8407 134.078ZM58.8407 140.338C56.9807 140.338 55.2407 138.968 55.2407 136.638C55.2407 134.318 56.9807 132.948 58.8407 132.948C60.7007 132.948 62.4507 134.318 62.4507 136.638C62.4507 138.968 60.7007 140.338 58.8407 140.338ZM66.8276 140.188C66.8076 140.078 66.7876 139.848 66.7876 139.648C66.5476 140.088 65.9776 140.328 65.4076 140.328C64.2476 140.328 63.5676 139.468 63.5676 138.388V135.318H64.7276V138.178C64.7276 138.778 65.0076 139.288 65.7076 139.288C66.3776 139.288 66.7276 138.838 66.7276 138.198V135.318H67.8876V139.298C67.8876 139.698 67.9176 140.008 67.9376 140.188H66.8276ZM69.809 133.828H70.859V135.318H71.869V136.348H70.859V138.608C70.859 139.038 71.049 139.218 71.479 139.218C71.639 139.218 71.829 139.188 71.879 139.178V140.138C71.809 140.168 71.589 140.248 71.169 140.248C70.269 140.248 69.709 139.708 69.709 138.798V136.348H68.809V135.318H69.059C69.579 135.318 69.809 134.988 69.809 134.558V133.828ZM75.1121 136.218C74.3521 136.218 73.7921 136.808 73.7921 137.738C73.7921 138.668 74.3121 139.288 75.1021 139.288C75.8621 139.288 76.3921 138.658 76.3921 137.728C76.3921 136.798 75.8721 136.218 75.1121 136.218ZM76.3821 132.948H77.5121V139.298C77.5121 139.738 77.5521 140.108 77.5621 140.188H76.4521C76.4321 140.078 76.4021 139.758 76.4021 139.558C76.1721 139.968 75.6621 140.308 74.9721 140.308C73.5721 140.308 72.6321 139.208 72.6321 137.738C72.6321 136.338 73.5821 135.188 74.9521 135.188C75.8021 135.188 76.2321 135.578 76.3821 135.888V132.948ZM79.8077 137.748C79.8077 138.758 80.4577 139.298 81.1677 139.298C81.8877 139.298 82.5277 138.768 82.5277 137.748C82.5277 136.738 81.8877 136.218 81.1677 136.218C80.4577 136.218 79.8077 136.738 79.8077 137.748ZM78.6477 137.748C78.6477 136.258 79.7177 135.168 81.1677 135.168C82.6277 135.168 83.6977 136.258 83.6977 137.748C83.6977 139.248 82.6277 140.338 81.1677 140.338C79.7177 140.338 78.6477 139.248 78.6477 137.748ZM85.5987 137.748C85.5987 138.758 86.2487 139.298 86.9587 139.298C87.6787 139.298 88.3187 138.768 88.3187 137.748C88.3187 136.738 87.6787 136.218 86.9587 136.218C86.2487 136.218 85.5987 136.738 85.5987 137.748ZM84.4387 137.748C84.4387 136.258 85.5087 135.168 86.9587 135.168C88.4187 135.168 89.4887 136.258 89.4887 137.748C89.4887 139.248 88.4187 140.338 86.9587 140.338C85.5087 140.338 84.4387 139.248 84.4387 137.748ZM93.1497 135.258C93.2897 135.258 93.4097 135.278 93.4597 135.288V136.468C93.3297 136.448 93.1997 136.438 93.0797 136.438C92.1797 136.438 91.7697 136.958 91.7697 137.868V140.188H90.6097V135.318H91.7397V136.098C91.9697 135.568 92.5097 135.258 93.1497 135.258ZM138.431 203.321V202.155C139.784 201.968 140.51 201.022 140.51 200.032C140.51 199.053 139.839 198.228 138.53 197.942L138.431 197.92V195.951C138.981 196.16 139.19 196.666 139.245 196.996L140.433 196.622C140.279 195.896 139.729 194.994 138.431 194.785V193.608H137.419V194.774C136.209 194.939 135.329 195.841 135.329 196.93C135.329 198.008 136.055 198.69 137.221 198.954L137.419 198.998V201.022C136.682 200.846 136.341 200.23 136.286 199.603L135.054 199.944C135.153 200.89 135.89 201.979 137.419 202.166V203.321H138.431ZM136.616 196.853C136.616 196.435 136.891 196.039 137.419 195.907V197.711C136.869 197.601 136.616 197.249 136.616 196.853ZM139.234 200.098C139.234 200.516 138.981 200.912 138.431 201.022V199.218C138.981 199.372 139.234 199.702 139.234 200.098ZM142.817 197.579C142.813 197.539 142.808 197.497 142.804 197.455C142.794 197.372 142.784 197.289 142.784 197.216C142.784 196.479 143.191 195.896 144.027 195.896C144.83 195.896 145.226 196.424 145.226 197.007C145.226 197.524 144.951 197.953 144.313 198.349L143.136 199.086C141.893 199.856 141.464 200.813 141.442 202.034H146.601V200.868H143.07C143.169 200.516 143.455 200.263 143.796 200.054L145.182 199.196C146.04 198.668 146.557 197.909 146.557 196.985C146.557 195.764 145.622 194.741 144.049 194.741C142.432 194.741 141.508 195.852 141.508 197.084C141.508 197.227 141.53 197.392 141.541 197.491L142.817 197.579ZM148.791 198.47C148.791 197.568 148.945 196.875 149.297 196.435C149.539 196.116 149.88 195.907 150.397 195.907C150.914 195.907 151.244 196.116 151.497 196.435C151.838 196.875 151.992 197.568 151.992 198.47C151.992 199.372 151.838 200.065 151.497 200.505C151.244 200.824 150.914 201.033 150.397 201.033C149.88 201.033 149.539 200.824 149.297 200.505C148.956 200.065 148.791 199.372 148.791 198.47ZM147.482 198.47C147.482 199.416 147.636 200.307 148.12 201.033C148.582 201.726 149.33 202.199 150.397 202.199C151.464 202.199 152.201 201.726 152.663 201.033C153.147 200.307 153.301 199.416 153.301 198.47C153.301 197.524 153.147 196.633 152.663 195.907C152.201 195.214 151.464 194.741 150.397 194.741C149.33 194.741 148.582 195.214 148.12 195.907C147.636 196.633 147.482 197.524 147.482 198.47ZM155.569 198.47C155.569 197.568 155.723 196.875 156.075 196.435C156.317 196.116 156.658 195.907 157.175 195.907C157.692 195.907 158.022 196.116 158.275 196.435C158.616 196.875 158.77 197.568 158.77 198.47C158.77 199.372 158.616 200.065 158.275 200.505C158.022 200.824 157.692 201.033 157.175 201.033C156.658 201.033 156.317 200.824 156.075 200.505C155.734 200.065 155.569 199.372 155.569 198.47ZM154.26 198.47C154.26 199.416 154.414 200.307 154.898 201.033C155.36 201.726 156.108 202.199 157.175 202.199C158.242 202.199 158.979 201.726 159.441 201.033C159.925 200.307 160.079 199.416 160.079 198.47C160.079 197.524 159.925 196.633 159.441 195.907C158.979 195.214 158.242 194.741 157.175 194.741C156.108 194.741 155.36 195.214 154.898 195.907C154.414 196.633 154.26 197.524 154.26 198.47ZM160.872 201.209C160.872 201.704 161.268 202.1 161.763 202.1C162.258 202.1 162.665 201.704 162.665 201.209C162.665 200.714 162.258 200.307 161.763 200.307C161.268 200.307 160.872 200.714 160.872 201.209ZM164.98 198.47C164.98 197.568 165.134 196.875 165.486 196.435C165.728 196.116 166.069 195.907 166.586 195.907C167.103 195.907 167.433 196.116 167.686 196.435C168.027 196.875 168.181 197.568 168.181 198.47C168.181 199.372 168.027 200.065 167.686 200.505C167.433 200.824 167.103 201.033 166.586 201.033C166.069 201.033 165.728 200.824 165.486 200.505C165.145 200.065 164.98 199.372 164.98 198.47ZM163.671 198.47C163.671 199.416 163.825 200.307 164.309 201.033C164.771 201.726 165.519 202.199 166.586 202.199C167.653 202.199 168.39 201.726 168.852 201.033C169.336 200.307 169.49 199.416 169.49 198.47C169.49 197.524 169.336 196.633 168.852 195.907C168.39 195.214 167.653 194.741 166.586 194.741C165.519 194.741 164.771 195.214 164.309 195.907C163.825 196.633 163.671 197.524 163.671 198.47ZM171.758 198.47C171.758 197.568 171.912 196.875 172.264 196.435C172.506 196.116 172.847 195.907 173.364 195.907C173.881 195.907 174.211 196.116 174.464 196.435C174.805 196.875 174.959 197.568 174.959 198.47C174.959 199.372 174.805 200.065 174.464 200.505C174.211 200.824 173.881 201.033 173.364 201.033C172.847 201.033 172.506 200.824 172.264 200.505C171.923 200.065 171.758 199.372 171.758 198.47ZM170.449 198.47C170.449 199.416 170.603 200.307 171.087 201.033C171.549 201.726 172.297 202.199 173.364 202.199C174.431 202.199 175.168 201.726 175.63 201.033C176.114 200.307 176.268 199.416 176.268 198.47C176.268 197.524 176.114 196.633 175.63 195.907C175.168 195.214 174.431 194.741 173.364 194.741C172.297 194.741 171.549 195.214 171.087 195.907C170.603 196.633 170.449 197.524 170.449 198.47ZM55.8612 202.034V194.944H58.3012C59.6612 194.944 60.4612 195.744 60.4612 196.854C60.4612 197.604 60.0212 198.164 59.4112 198.384C60.1612 198.584 60.6812 199.234 60.6812 200.074C60.6812 201.214 59.8012 202.034 58.4812 202.034H55.8612ZM57.0512 195.964V197.944H58.1412C58.8412 197.944 59.2612 197.544 59.2612 196.954C59.2612 196.354 58.8412 195.964 58.1112 195.964H57.0512ZM57.0512 198.954V201.014H58.2712C58.9912 201.014 59.4612 200.624 59.4612 199.994C59.4612 199.384 59.0512 198.954 58.3112 198.954H57.0512ZM63.1366 202.184C62.1166 202.184 61.4866 201.484 61.4866 200.714C61.4866 199.844 62.1266 199.364 62.9566 199.244L64.2066 199.054C64.4866 199.014 64.5666 198.874 64.5666 198.704C64.5666 198.294 64.2866 197.964 63.6466 197.964C63.0366 197.964 62.6966 198.354 62.6466 198.844L61.5866 198.604C61.6766 197.764 62.4366 197.014 63.6366 197.014C65.1366 197.014 65.7066 197.864 65.7066 198.834V201.254C65.7066 201.694 65.7566 201.984 65.7666 202.034H64.6866C64.6766 202.004 64.6366 201.804 64.6366 201.414C64.4066 201.784 63.9266 202.184 63.1366 202.184ZM62.6466 200.644C62.6466 200.974 62.8966 201.274 63.3566 201.274C64.0066 201.274 64.5666 200.964 64.5666 200.014V199.794L63.2966 199.984C62.9366 200.044 62.6466 200.244 62.6466 200.644ZM68.2389 201.384V202.034H67.1089V194.794H68.2489V197.764C68.4689 197.384 69.0289 197.034 69.7789 197.034C71.2389 197.034 72.0289 198.144 72.0289 199.574C72.0289 201.044 71.1589 202.154 69.7389 202.154C69.0489 202.154 68.5189 201.854 68.2389 201.384ZM69.5489 201.124C70.3089 201.124 70.8589 200.544 70.8589 199.584C70.8589 198.614 70.3189 198.064 69.5489 198.064C68.8089 198.064 68.2389 198.614 68.2389 199.584C68.2389 200.544 68.8089 201.124 69.5489 201.124ZM77.4994 197.164L74.3994 204.004H73.1594L74.3294 201.454L72.2494 197.164H73.5594L74.9594 200.244L76.2694 197.164H77.4994ZM80.6347 198.594V199.624H77.8147V198.594H80.6347ZM83.4154 202.184C82.0054 202.184 81.4654 201.264 81.4054 200.714L82.4154 200.434C82.4554 200.874 82.7854 201.264 83.4054 201.264C83.8854 201.264 84.1354 201.004 84.1354 200.704C84.1354 200.444 83.9554 200.244 83.5654 200.164L82.8454 200.004C81.9854 199.814 81.5354 199.254 81.5354 198.584C81.5354 197.734 82.3154 197.014 83.3254 197.014C84.6854 197.014 85.1254 197.894 85.2054 198.374L84.2254 198.654C84.1854 198.374 83.9754 197.924 83.3254 197.924C82.9154 197.924 82.6254 198.184 82.6254 198.484C82.6254 198.744 82.8154 198.934 83.1154 198.994L83.8554 199.144C84.7754 199.344 85.2554 199.904 85.2554 200.624C85.2554 201.364 84.6554 202.184 83.4154 202.184ZM88.5758 198.074C87.9358 198.074 87.5858 198.554 87.5658 199.174V202.034H86.4058V194.794H87.5658V197.634C87.8958 197.204 88.4458 197.024 88.9558 197.024C90.1558 197.024 90.7358 197.884 90.7358 198.954V202.034H89.5758V199.154C89.5758 198.554 89.3058 198.074 88.5758 198.074ZM92.9279 199.594C92.9279 200.604 93.5779 201.144 94.2879 201.144C95.0079 201.144 95.6479 200.614 95.6479 199.594C95.6479 198.584 95.0079 198.064 94.2879 198.064C93.5779 198.064 92.9279 198.584 92.9279 199.594ZM91.7679 199.594C91.7679 198.104 92.8379 197.014 94.2879 197.014C95.7479 197.014 96.8179 198.104 96.8179 199.594C96.8179 201.094 95.7479 202.184 94.2879 202.184C92.8379 202.184 91.7679 201.094 91.7679 199.594ZM99.4318 200.534L100.582 197.164H101.782L102.932 200.534L103.902 197.164H105.082L103.522 202.034H102.362L101.152 198.534L99.9718 202.034H98.7818L97.2018 197.164H98.4418L99.4318 200.534ZM107.849 197.984C107.119 197.984 106.699 198.544 106.659 199.064H109.049C109.029 198.494 108.649 197.984 107.849 197.984ZM107.959 201.184C108.659 201.184 109.019 200.814 109.179 200.334L110.159 200.644C109.899 201.494 109.129 202.184 107.959 202.184C106.639 202.184 105.469 201.224 105.469 199.574C105.469 198.034 106.609 197.014 107.839 197.014C109.339 197.014 110.219 198.004 110.219 199.544C110.219 199.734 110.199 199.894 110.189 199.914H106.629C106.659 200.654 107.239 201.184 107.959 201.184ZM113.868 197.104C114.008 197.104 114.128 197.124 114.178 197.134V198.314C114.048 198.294 113.918 198.284 113.798 198.284C112.898 198.284 112.488 198.804 112.488 199.714V202.034H111.328V197.164H112.458V197.944C112.688 197.414 113.228 197.104 113.868 197.104Z" fill="#5C678E"/></g><path d="M43 173C45.2091 173 47 171.209 47 169C47 166.791 45.2091 165 43 165C40.7909 165 39 166.791 39 169C39 171.209 40.7909 173 43 173Z" fill="#3272EB"/><path d="M235.083 135.903C235.083 135.903 239.012 120.23 254.585 120.924C270.158 121.618 276.163 127.504 276.362 139.135C276.471 140.474 276.801 141.786 277.336 143.019C277.336 143.019 270.67 142.012 268.477 151.386C268.162 150.235 261.78 136.744 261.78 136.744L240.245 137.337L235.083 135.903Z" fill="#672444"/><path d="M263.763 148.007C262.38 150.526 262.927 153.479 264.997 154.582C267.067 155.684 269.854 154.533 271.237 152.003C272.62 149.473 272.073 146.53 270.003 145.418C267.933 144.306 265.146 145.497 263.763 148.007Z" fill="#EFBB9D"/></g><defs><linearGradient id="payments-2_svg__b" x1="218.5" y1="213.5" x2="231.834" y2="226.5" gradientUnits="userSpaceOnUse"><stop stop-color="#8D4ECC"/><stop offset="1" stop-color="#7E36C6"/></linearGradient></defs></svg>